<svg id="Layer_1" data-name="Layer 1" xmlns="http://www.w3.org/2000/svg" viewBox="0 0 117.77 64.28"><defs><style>.cls-1,.cls-2{fill:#fff;}.cls-2{fill-rule:evenodd;}</style></defs><title>BTP 2.0 (w)NB_KO</title><path class="cls-1" d="M9.33,58.5h-3V66H5.1V58.5h-3V57.39H9.33Z" transform="translate(-2.12 -1.86)"/><path class="cls-1" d="M13,57.39c1.74,0,2.83.92,2.83,2.42a2.16,2.16,0,0,1-1.44,2.11,6.9,6.9,0,0,1,1.92,2.4c.37.59.59.88,1.18,1.7H16l-1.14-1.77c-1.14-1.77-1.66-2-2.29-2h-.52V66H10.84V57.39Zm-.94,3.77h.8c1.33,0,1.71-.68,1.69-1.4s-.49-1.31-1.69-1.31h-.8Z" transform="translate(-2.12 -1.86)"/><path class="cls-1" d="M20,66H18.79V57.39H20Z" transform="translate(-2.12 -1.86)"/><path class="cls-1" d="M22.27,57.39h3.36a4.27,4.27,0,0,1,4.59,4.32A4.36,4.36,0,0,1,25.64,66H22.27Zm1.24,7.52h2A3.17,3.17,0,0,0,29,61.71c0-1.74-1.11-3.21-3.52-3.21H23.51Z" transform="translate(-2.12 -1.86)"/><path class="cls-1" d="M37,58.5H33.31v2.61h3.54v1.12H33.31v2.68h3.78V66h-5V57.39H37Z" transform="translate(-2.12 -1.86)"/><path class="cls-1" d="M46.71,66H45.65l-5.78-6.64V66H38.71V57.39h1l5.85,6.68V57.39h1.16Z" transform="translate(-2.12 -1.86)"/><path class="cls-1" d="M55.41,58.5h-3V66H51.18V58.5h-3V57.39h7.22Z" transform="translate(-2.12 -1.86)"/><path class="cls-1" d="M63.36,57.39c1.89,0,2.75,1.11,2.75,2.48s-.91,2.42-2.91,2.42H61.91V66H60.66V57.39Zm-1.45,3.79h1.4a1.34,1.34,0,0,0,1.52-1.36,1.28,1.28,0,0,0-1.47-1.32H61.91Z" transform="translate(-2.12 -1.86)"/><path class="cls-1" d="M69.71,57.39c1.74,0,2.83.92,2.83,2.42a2.16,2.16,0,0,1-1.44,2.11A7.13,7.13,0,0,1,73,64.32c.37.59.58.88,1.18,1.7H72.72l-1.14-1.77c-1.14-1.77-1.66-2-2.29-2h-.52V66H67.53V57.39Zm-.94,3.77h.8c1.33,0,1.71-.68,1.69-1.4s-.49-1.31-1.69-1.31h-.8Z" transform="translate(-2.12 -1.86)"/><path class="cls-1" d="M79,57.28a4.43,4.43,0,1,1-4.63,4.43A4.4,4.4,0,0,1,79,57.28ZM79,65a3.29,3.29,0,1,0-3.35-3.29A3.24,3.24,0,0,0,79,65Z" transform="translate(-2.12 -1.86)"/><path class="cls-1" d="M93,65.43a7.55,7.55,0,0,1-3.3.71,4.36,4.36,0,0,1-4.59-4.38,4.46,4.46,0,0,1,4.63-4.48,7.05,7.05,0,0,1,3.08.73v1.25a6.51,6.51,0,0,0-3.1-.84A3.29,3.29,0,1,0,89.9,65a6,6,0,0,0,1.87-.34V62.88H90.12V61.77H93Z" transform="translate(-2.12 -1.86)"/><path class="cls-1" d="M97.33,57.39c1.75,0,2.84.92,2.84,2.42a2.16,2.16,0,0,1-1.44,2.11,7.13,7.13,0,0,1,1.92,2.4c.37.59.58.88,1.18,1.7h-1.48l-1.14-1.77c-1.14-1.77-1.66-2-2.29-2H96.4V66H95.16V57.39Zm-.93,3.77h.79c1.33,0,1.71-.68,1.7-1.4s-.49-1.31-1.7-1.31H96.4Z" transform="translate(-2.12 -1.86)"/><path class="cls-1" d="M110.59,66h-1.27l-1.15-2.54H104.5L103.41,66h-1.26l3.71-8.68h.87ZM105,62.37h2.69l-1.4-3.13Z" transform="translate(-2.12 -1.86)"/><path class="cls-1" d="M119.88,66h-1.24V59.3h0L116,62.64h-.2L113.1,59.3h0V66h-1.24V57.39H113l2.86,3.54,2.87-3.54h1.15Z" transform="translate(-2.12 -1.86)"/><path class="cls-1" d="M56.43,24.64A14.29,14.29,0,1,0,62,23.52,14.19,14.19,0,0,0,56.43,24.64ZM52.94,46.8a12.76,12.76,0,1,1,9,3.75A12.69,12.69,0,0,1,52.94,46.8Z" transform="translate(-2.12 -1.86)"/><polygon class="cls-1" points="66.56 30.47 66.56 39.19 67.33 39.61 67.33 40.64 66.56 40.52 66.56 40.97 67.33 41.38 67.33 41.44 67.33 42.76 66.55 42.32 66.55 42.79 67.33 43.22 67.33 44.53 65.82 43.68 64.3 44.55 64.3 43.24 65.09 42.78 65.09 42.32 64.3 42.77 64.3 41.4 65.09 40.96 65.09 40.52 64.3 40.68 64.3 39.63 65.09 39.19 65.1 30.47 65.1 29.67 64.11 29.95 65.83 26.92 67.56 29.95 66.56 29.66 66.56 30.47"/><polygon class="cls-2" points="58.13 28.43 59.85 25.41 61.58 28.43 60.58 28.13 60.58 39.66 61.5 40.19 61.5 41.48 60.58 40.98 60.58 41.53 61.5 42.03 61.5 43.39 60.58 42.86 60.58 43.35 61.5 43.87 61.5 45.15 59.85 44.24 58.2 45.17 58.2 43.89 59.12 43.35 59.12 42.86 58.2 43.41 58.2 42.05 59.12 41.53 59.12 40.99 58.2 41.51 58.2 40.2 59.12 39.67 59.12 28.13 58.13 28.43"/><polygon class="cls-1" points="54.61 30.47 54.61 39.19 55.38 39.61 55.38 40.69 54.61 40.52 54.61 40.97 55.37 41.38 55.37 41.44 55.38 42.76 54.6 42.32 54.6 42.79 55.37 43.22 55.37 44.53 53.87 43.68 52.34 44.55 52.34 43.24 53.14 42.78 53.14 42.32 52.35 42.77 52.34 41.4 53.14 40.96 53.14 40.52 52.35 40.65 52.35 39.63 53.14 39.19 53.15 30.47 53.15 29.67 52.15 29.95 53.88 26.92 55.61 29.95 54.61 29.66 54.61 30.47"/><path class="cls-1" d="M51.73,38.63A4.27,4.27,0,1,0,56,34.36,4.28,4.28,0,0,0,51.73,38.63Zm1,0A3.32,3.32,0,1,1,56,41.94,3.32,3.32,0,0,1,52.68,38.63Z" transform="translate(-2.12 -1.86)"/><path class="cls-2" d="M57.71,44.52A4.26,4.26,0,1,0,62,40.25,4.26,4.26,0,0,0,57.71,44.52Zm.95,0A3.32,3.32,0,1,1,62,47.83,3.31,3.31,0,0,1,58.66,44.52Z" transform="translate(-2.12 -1.86)"/><path class="cls-1" d="M63.69,38.61A4.26,4.26,0,1,0,68,34.35,4.26,4.26,0,0,0,63.69,38.61Zm.94,0A3.32,3.32,0,1,1,68,41.93,3.32,3.32,0,0,1,64.63,38.61Z" transform="translate(-2.12 -1.86)"/><path class="cls-1" d="M48.05,9.41V3.33H49.1c2.13,0,2.52,1.11,2.52,3.24A3.54,3.54,0,0,1,51,9a1.57,1.57,0,0,1-1.19.41Zm48.34,1.81,2-5.56,2.32,5.56ZM22.5,3.35c1.66,0,2.61.49,2.62,3A3.71,3.71,0,0,1,24.53,9a1.86,1.86,0,0,1-1.38.45H21.52V3.34Zm28.43,7c1.68-.54,2.54-1.84,2.54-3.88,0-2.81-1.47-4.13-4.61-4.16H45.27V3h.24c.61,0,.79.53.79,2.37v9.75c0,1.15-.06,1.92-.36,2.22a.63.63,0,0,1-.49.16h-.18v.63h3.81v-.44l0-.19h-.18c-.63,0-.82-.53-.82-2.38V10.42h1.08c.26,1.12,2,7.91,5.48,7.92v-.13c-1.79-1.29-3.41-6.86-3.68-7.84M80,2.32V6.19h-.5l0-.14C79,4.13,78.17,3.37,76.71,3.33h-.82V15.12c0,1.8.2,2.38.8,2.38H77v.71H73.09v-.71h.25A.6.6,0,0,0,74,17a6.4,6.4,0,0,0,.18-1.88V3.34H73.3c-1.46,0-2.23.77-2.74,2.7l0,.14H70V2.33Zm9.46,1h-.81V15.12c0,1.8.2,2.38.81,2.38h.25v.71H85.84v-.71h.25c.6,0,.8-.57.8-2.37V3.34h-.83c-1.46,0-2.24.77-2.75,2.7l0,.14h-.5V2.33h10V6.19h-.5l0-.14c-.51-1.92-1.28-2.68-2.75-2.72M105.83,17.6A2.87,2.87,0,0,1,104.45,16L98.74,1.86,94.41,14.41c-.79,2.19-1.28,3.11-2.29,3.17h-.18v.63h4.18V17.6l-.17,0a1.12,1.12,0,0,1-1.08-1.18,6.8,6.8,0,0,1,.44-1.86l.74-2.3h5l1.16,3a4.44,4.44,0,0,1,.36,1.42c0,.54-.28.91-.67.91h-.28v.64H106v-.6ZM25.53,9.86A3.85,3.85,0,0,0,27,6.44c0-2.91-1.32-4.07-4.7-4.11H18.74V3H19c.6,0,.79.51.79,2.1v9.75c0,1.35-.06,2.19-.37,2.5a.6.6,0,0,1-.48.15h-.18v.63h4.37c3.1,0,4.73-1.4,4.73-4,0-2.27-.76-3.68-2.31-4.29m-.47,6.67a2.8,2.8,0,0,1-1.83.71h-1a.61.61,0,0,1-.45-.15c-.24-.24-.24-.84-.23-1.6V10.42h1.24C25,10.43,26,11.63,26,14.2a3,3,0,0,1-1,2.33m14.7-2.24v3.94l-7.66,0v-.66h.25a.6.6,0,0,0,.62-.49,6.55,6.55,0,0,0,.17-1.88V5.33C33.14,3.53,33,3,32.37,3h-.29V2.33h7.67V6.2h-.42l0-.14c-.52-1.94-1.28-2.7-2.71-2.7H34.94V9.41c1.43,0,2-.53,2-1.69V7.54h.51v4.65H37V12c0-1.1-.55-1.52-2-1.56v6.75h1.6c1.48,0,2.24-.78,2.75-2.77l0-.14Zm26.1,0v3.94l-7.67,0v-.66h.25a.6.6,0,0,0,.62-.49,6.11,6.11,0,0,0,.18-1.88V5.33c0-1.8-.19-2.38-.78-2.38h-.28V2.33h7.67V6.2h-.42l0-.14c-.52-1.94-1.28-2.7-2.71-2.7H61.05V9.41c1.43,0,2-.53,2-1.69V7.54h.52v4.65H63.1V12c0-1.1-.56-1.52-2-1.56v6.75h1.6c1.47,0,2.24-.78,2.74-2.77l0-.14Z" transform="translate(-2.12 -1.86)"/></svg>