<svg id="Layer_1" data-name="Layer 1" xmlns="http://www.w3.org/2000/svg" viewBox="0 0 138.12 89.63"><defs><style>.cls-1{fill:#fff;}</style></defs><title>dual_endorsed_orvis_kwhite copy</title><path class="cls-1" d="M136.34,34.81a1.25,1.25,0,1,1,1.25,1.28,1.25,1.25,0,0,1-1.25-1.28m1.25,1.54A1.54,1.54,0,1,0,136,34.81a1.54,1.54,0,0,0,1.55,1.54m-.32-1.42h.31l.47.77h.3l-.51-.78a.46.46,0,0,0,.46-.49c0-.35-.21-.5-.62-.5H137V35.7h.27Zm0-.23v-.54h.37c.18,0,.38,0,.38.26s-.2.28-.43.28Z" transform="translate(-1.02 -2.52)"/><path class="cls-1" d="M92.84,43.14l.14-.71c.65.14,1,0,1.14-.5L97.61,24.3c.09-.47-.21-.77-.87-.9l.14-.7L103.33,24l-.14.7c-.66-.13-1,0-1.15.5L98.56,42.81c-.09.47.21.77.87.9l-.14.7Z" transform="translate(-1.02 -2.52)"/><path class="cls-1" d="M109.85,44.87l3.31-4.09.34.29a1.2,1.2,0,0,0,0,.65c.45,1.47,3.93,3.64,6.34,4.27,1.69.44,6.28,1.18,6.9-1.16,1.21-4.68-15.88-2.86-13.45-12.25.83-3.18,4.62-5.6,11-3.94,5.33,1.38,7.4,4,8.7,4.31a1.07,1.07,0,0,0,.83,0l.38.43-3.89,4.1-.34-.25a2.14,2.14,0,0,0-.08-1c-.5-1.4-3.39-3.5-6.35-4.27-2.26-.58-5.22-.66-5.66,1-1.26,4.87,15.77,3.24,13.38,12.44-1.37,5.29-8,5-12.18,3.88-5.9-1.54-7-3.87-8.16-4.17a.69.69,0,0,0-.58.18Z" transform="translate(-1.02 -2.52)"/><path class="cls-1" d="M39.67,26.14l6.8-.81c3.78-.45,5,.68,5.23,2.34s-.76,3-4.54,3.48L40.35,32Zm-5.94-2c.78-.1,1.16.1,1.22.57l2.11,17.86c.06.47-.27.75-1.05.84l.08.71,6.8-.8-.08-.71c-.91.1-1.21-.1-1.26-.57l-.83-7,5.62-.67L51.4,40c.46.5.73.79.76,1.06s-.34.48-.81.54l.08.7,7.36-.86-.09-.71a1.49,1.49,0,0,1-1.4-.39l-6.11-6.86c3.38-1,5.38-3.07,5-6.49-.53-4.49-4-5.75-9.06-5.15L33.64,23.42Z" transform="translate(-1.02 -2.52)"/><path class="cls-1" d="M88.24,21.49l0,.71c-1.06,0-1.47,1-1.72,1.44l-7.66,15.1a10.75,10.75,0,0,0-.91,1.9.66.66,0,0,0,.33.57l0,.72-6.06-.26,0-.71a.55.55,0,0,0,.38-.54A16.64,16.64,0,0,0,71.64,38L65.17,22.27c-.25-.57-.68-.83-1.54-1.1l0-.71,7.09.3,0,.71a.7.7,0,0,0-.83.64,9.77,9.77,0,0,0,1,2.82L75.54,36l5.4-10.52a16.73,16.73,0,0,0,1.43-2.92c0-.43-.37-.65-1.09-.68l0-.71Z" transform="translate(-1.02 -2.52)"/><path class="cls-1" d="M11.41,32.27c3.83-1.36,8.86-.43,10.37,3.82s-1.81,8.14-5.65,9.5S7.27,46,5.76,41.77s1.81-8.14,5.65-9.5m-1.23-3.46c-5.49,2-11,7.55-8.56,14.43S11.87,51,17.36,49.05s11-7.55,8.56-14.43-10.25-7.76-15.74-5.81" transform="translate(-1.02 -2.52)"/><path class="cls-1" d="M91.5,91.3H85.74V88.43h3v-.69h-3V85.11h5.51v-.69h-6.2V92H91.5ZM83,88h-3.4v.68h2.71V90c0,.61-.89,1.5-2.71,1.5a3.23,3.23,0,0,1-3.47-3.27,3.27,3.27,0,0,1,3.53-3.25,3.48,3.48,0,0,1,2.71,1.17l.45-.49a4.08,4.08,0,0,0-3.15-1.36,4,4,0,1,0-.07,7.89c2.29,0,3.4-1.21,3.4-2.2ZM67.21,91.3V85.11h3.13C72,85.11,73,86.9,73,88.2c0,1.47-1.06,3.1-2.65,3.1Zm-.69-6.88V92h3.82c2.1,0,3.33-2.08,3.33-3.79s-1.23-3.78-3.33-3.78Zm-6,7a3.26,3.26,0,1,1,3.37-3.26,3.25,3.25,0,0,1-3.37,3.26m4.06-3.26a4.06,4.06,0,1,0-4.06,4,3.88,3.88,0,0,0,4.06-4m-9.46,3.1H50.16V84.42h-.69V92h5.6Z" transform="translate(-1.02 -2.52)"/><path class="cls-1" d="M122.07,74.1h-3.4v.68h2.71v1.31c0,.6-.88,1.5-2.71,1.5a3.23,3.23,0,0,1-3.47-3.27,3.27,3.27,0,0,1,3.53-3.25,3.5,3.5,0,0,1,2.71,1.17l.45-.49a4.09,4.09,0,0,0-3.15-1.36,4,4,0,1,0-.07,7.89c2.29,0,3.4-1.22,3.4-2.2Zm-10-3.55h-.69v6.57h0l-5.28-6.57h-.69v7.56h.69V71.58h0l5.29,6.53h.69Zm-9.81,0h-.68v7.56h.68Zm-5.7.68h2.87v-.68H93v.68h2.87v6.88h.68Zm-9,6.36a3.26,3.26,0,1,1,3.37-3.26,3.25,3.25,0,0,1-3.37,3.26m4.06-3.26a4.06,4.06,0,1,0-4.06,4,3.88,3.88,0,0,0,4.06-4M77.84,77.59a3.26,3.26,0,1,1,3.37-3.26,3.26,3.26,0,0,1-3.37,3.26m4.06-3.26a4.06,4.06,0,1,0-4.06,4,3.88,3.88,0,0,0,4.06-4M71.26,70.55h-.69v3.31H65.32V70.55h-.68v7.56h.68V74.54h5.25v3.57h.69ZM58,73.8c-.88,0-1.73-.26-1.73-1.18,0-.62.72-1.55,2.61-1.55a4.49,4.49,0,0,1,2.64.91l.42-.52a4.83,4.83,0,0,0-3.11-1.07c-2.35,0-3.24,1.24-3.24,2.22,0,1.48,1.32,1.86,2.41,1.88l1.73,0c1.33,0,2,.75,2,1.44,0,1.13-1.34,1.63-2.9,1.63a4.21,4.21,0,0,1-3.27-1.36l-.48.5a4.73,4.73,0,0,0,3.75,1.55c2.68,0,3.59-1.23,3.59-2.32s-.93-2.1-2.61-2.13Zm-8,.3h-3.4v.68h2.71v1.31c0,.6-.89,1.5-2.71,1.5a3.24,3.24,0,0,1-3.48-3.27,3.27,3.27,0,0,1,3.53-3.25,3.5,3.5,0,0,1,2.72,1.17l.44-.49a4,4,0,0,0-3.14-1.36,4,4,0,1,0-.07,7.89c2.28,0,3.4-1.22,3.4-2.2ZM40,70.55h-.69v6.57h0L34,70.55h-.68v7.56H34V71.58h0l5.29,6.53H40Zm-9.81,0H29.5v7.56h.69Zm-2.42,0H27l-2,6.39h0l-1.73-6.39h-.69l-1.69,6.39h0l-2-6.39H18.1l2.44,7.56h.69l1.68-6.18h0l1.72,6.18h.69Z" transform="translate(-1.02 -2.52)"/><path class="cls-1" d="M113,63a3.09,3.09,0,0,1-2,.68c-1.12,0-2.23-.49-2.23-1.46s1.4-1.31,2-1.44Zm1,0a6.46,6.46,0,0,0,1.09-1.41l-.59-.38a5.16,5.16,0,0,1-1,1.3l-3-2.92c-.22-.2-.48-.44-.48-.73,0-.47.78-.77,1.45-.77a3.56,3.56,0,0,1,1.8.46l.29-.62a4.67,4.67,0,0,0-2-.53c-1.44,0-2.21.82-2.21,1.5s.55,1,.75,1.27c-.8.21-2.08.74-2.08,2,0,1.11,1.14,2.11,2.91,2.11a4.35,4.35,0,0,0,2.57-.87l.75.71h1Zm-11.36-2.86H99.24v.69H102v1.3c0,.61-.9,1.51-2.73,1.51a3.25,3.25,0,0,1-3.49-3.28,3.29,3.29,0,0,1,3.55-3.26A3.5,3.5,0,0,1,102,58.34l.45-.49a4.08,4.08,0,0,0-3.16-1.37,4,4,0,1,0-.07,7.92c2.3,0,3.41-1.21,3.41-2.21Zm-10-3.57H92v6.6h0l-5.31-6.6h-.68v7.6h.68V57.67h0L92,64.24h.68Zm-9.85,0h-.68v7.6h.68Zm-4,0h-.69V60H72.88V56.64h-.69v7.6h.69V60.65h5.26v3.59h.69ZM65.51,59.91c-.88,0-1.74-.26-1.74-1.18,0-.63.73-1.56,2.62-1.56a4.47,4.47,0,0,1,2.66.91l.42-.51a4.8,4.8,0,0,0-3.13-1.09c-2.35,0-3.25,1.24-3.25,2.23,0,1.49,1.32,1.88,2.42,1.89l1.74,0c1.33,0,2,.76,2,1.45,0,1.13-1.35,1.63-2.92,1.63A4.22,4.22,0,0,1,63,62.35l-.48.5A4.75,4.75,0,0,0,66.3,64.4c2.7,0,3.6-1.23,3.6-2.32S69,60,67.29,59.94Zm-5-3.27h-.68v7.6h.68Zm-8.71,4h3.47V60H51.76V57.33H57.3v-.69H51.07v7.6h.69Zm-9.29.27,3.41-4.29H45l-2.86,3.62-2.87-3.62h-.89l3.41,4.29v3.31h.69Zm-4.83,2.62H32.7V56.64H32v7.6h5.63ZM24.37,60.66h3.48V60H24.37V57.33h5.55v-.69H23.69v7.6h.68Z" transform="translate(-1.02 -2.52)"/><path class="cls-1" d="M113.51,8.9V3.29h2.84c1.53,0,2.4,1.62,2.4,2.8a2.69,2.69,0,0,1-2.4,2.81Zm-.62-6.24V9.52h3.46c1.9,0,3-1.88,3-3.43a3.26,3.26,0,0,0-3-3.43ZM111,8.9h-5.22V6.29h2.73V5.67h-2.73V3.29h5V2.66h-5.62V9.52H111ZM99.57,5.61C98.78,5.6,98,5.38,98,4.55c0-.57.65-1.41,2.36-1.41a4.06,4.06,0,0,1,2.39.82l.38-.46a4.31,4.31,0,0,0-2.82-1c-2.12,0-2.93,1.12-2.93,2,0,1.34,1.19,1.69,2.18,1.69l1.57,0c1.2,0,1.78.69,1.78,1.31,0,1-1.22,1.48-2.64,1.48a3.84,3.84,0,0,1-3-1.23l-.43.45a4.3,4.3,0,0,0,3.39,1.4c2.44,0,3.26-1.12,3.26-2.1s-.84-1.9-2.36-1.93ZM90,6V3.29h3.58a1.26,1.26,0,0,1,1.38,1.3C94.91,5.88,93.85,6,93,6Zm3.71.61a1.9,1.9,0,0,0,1.87-2,1.9,1.9,0,0,0-2-1.93h-4.2V9.52H90V6.59h3l1.72,2.93h.72ZM83.87,9.05a3,3,0,1,1,3.06-3,2.94,2.94,0,0,1-3.06,3m3.68-3a3.68,3.68,0,0,0-7.35,0,3.68,3.68,0,0,0,7.35,0M72.71,8.9V3.29h2.83c1.54,0,2.41,1.62,2.41,2.8A2.69,2.69,0,0,1,75.54,8.9Zm-.62-6.24V9.52h3.45c1.91,0,3-1.88,3-3.43a3.26,3.26,0,0,0-3-3.43Zm-2.54,0h-.63v6h0l-4.8-6h-.62V9.52h.62V3.6h0l4.79,5.92h.63ZM61.2,8.9H56V6.29H58.7V5.67H56V3.29h5V2.66H55.36V9.52H61.2ZM54,6.91H51.45v.53H54Zm-3.28,2H46.26V2.66h-.62V9.52h5.07ZM42.24,6.47h-2.9l1.45-3.11ZM41.1,2.66h-.62L37.13,9.52h.7L39,7.09h3.52l1.2,2.43h.7Zm-5.49,0H35V7c0,1.24-.74,2-2.41,2s-2.4-.77-2.4-2V2.66h-.62V7c0,1.74,1.14,2.63,3,2.63s3-.89,3-2.63ZM21.42,8.9V3.29h2.83c1.54,0,2.41,1.62,2.41,2.8A2.69,2.69,0,0,1,24.25,8.9ZM20.8,2.66V9.52h3.45c1.9,0,3-1.88,3-3.43a3.26,3.26,0,0,0-3-3.43Z" transform="translate(-1.02 -2.52)"/></svg>