<svg id="Layer_1" data-name="Layer 1" xmlns="http://www.w3.org/2000/svg" viewBox="0 0 85 85.03"><defs><style>.cls-1{fill:#fff;}</style></defs><title>TOP RESORTS US-WINNER_KO_transparent</title><path class="cls-1" d="M44.46,10.78A34.24,34.24,0,1,0,78.7,45,34.23,34.23,0,0,0,44.46,10.78Zm0,66.42A32.19,32.19,0,1,1,76.65,45,32.23,32.23,0,0,1,44.46,77.2Z" transform="translate(-1.96 -2.48)"/><path class="cls-1" d="M19.22,11.8,22.45,16l-.63.48-3.23-4.16-.59.46-.47-.61,1.79-1.39.47.61Z" transform="translate(-1.96 -2.48)"/><path class="cls-1" d="M24.35,14.72a1.15,1.15,0,0,1-1.66-.38l-2.07-3.13a1.17,1.17,0,1,1,1.94-1.29l2.08,3.13A1.15,1.15,0,0,1,24.35,14.72ZM21.86,10.3a.36.36,0,0,0-.53-.12.36.36,0,0,0-.08.53L23.41,14a.34.34,0,0,0,.51.12.35.35,0,0,0,.1-.53Z" transform="translate(-1.96 -2.48)"/><path class="cls-1" d="M25.7,10.93l-.38.21,1.2,2.14-.69.39L22.89,8.39,24,7.79a1,1,0,0,1,1.39.47L26,9.5A.94.94,0,0,1,25.7,10.93Zm-1-2.29q-.16-.32-.39-.18l-.34.19L25,10.54l.34-.19c.15-.08.16-.22.05-.42Z" transform="translate(-1.96 -2.48)"/><path class="cls-1" d="M31.07,11.12c-.27.12-.52-.17-.68-.57l-.56-1.33c-.09-.19-.25-.3-.44-.22l-.33.14,1,2.38-.74.31L27,6.26l1.12-.47a1,1,0,0,1,1.34.6l.49,1.17a.77.77,0,0,1-.13.88.82.82,0,0,1,.75.53l.52,1.24a1.15,1.15,0,0,0,.36.51l.09.21ZM28.72,6.7c-.09-.22-.2-.29-.36-.22L28,6.63l.78,1.87.32-.13c.18-.08.22-.22.13-.46Z" transform="translate(-1.96 -2.48)"/><path class="cls-1" d="M32,10.74,30.08,5l1.83-.61.24.7-1.09.37.59,1.72.75-.25.23.68-.76.25.64,1.9,1.09-.36.24.71Z" transform="translate(-1.96 -2.48)"/><path class="cls-1" d="M35.37,9.8a1.11,1.11,0,0,1-1.43-.91l-.16-.63.7-.18.17.66c.08.31.26.46.51.39s.36-.28.29-.57a2.83,2.83,0,0,0-1-1.42,4.21,4.21,0,0,1-1.36-1.79,1.17,1.17,0,0,1,.79-1.59,1.09,1.09,0,0,1,1.36.93l.17.67-.69.17-.18-.69c-.08-.29-.25-.43-.48-.37s-.33.24-.26.52c.16.65.46.9,1.07,1.45a3.84,3.84,0,0,1,1.32,1.79A1.16,1.16,0,0,1,35.37,9.8Z" transform="translate(-1.96 -2.48)"/><path class="cls-1" d="M38.13,9.2a1.16,1.16,0,0,1-1.37-1l-.65-3.7a1.17,1.17,0,1,1,2.3-.4l.66,3.69A1.16,1.16,0,0,1,38.13,9.2Zm-.51-5a.37.37,0,0,0-.44-.32.36.36,0,0,0-.29.45l.68,3.84a.34.34,0,0,0,.42.32.35.35,0,0,0,.3-.45Z" transform="translate(-1.96 -2.48)"/><path class="cls-1" d="M41.78,8.67c-.29,0-.44-.32-.48-.75l-.14-1.44c0-.21-.14-.36-.35-.34l-.35,0,.24,2.57-.79.07-.57-6,1.21-.11a.94.94,0,0,1,1.1,1l.12,1.26a.8.8,0,0,1-.39.81.81.81,0,0,1,.55.72l.13,1.34a1.15,1.15,0,0,0,.19.6l0,.23Zm-.92-4.92c0-.23-.11-.34-.28-.32l-.38,0,.19,2,.34,0c.19,0,.28-.15.26-.4Z" transform="translate(-1.96 -2.48)"/><path class="cls-1" d="M44,3.29l.1,5.27h-.79l-.1-5.26h-.75l0-.77,2.27,0v.77Z" transform="translate(-1.96 -2.48)"/><path class="cls-1" d="M46.26,8.7a1.11,1.11,0,0,1-1.09-1.29l0-.65.72,0,0,.68c0,.32.11.51.37.53s.43-.16.44-.46a2.76,2.76,0,0,0-.55-1.66,4.07,4.07,0,0,1-.76-2.11c0-.76.44-1.32,1.22-1.28a1.08,1.08,0,0,1,1,1.28l0,.69-.71,0,0-.71c0-.3-.1-.49-.33-.5a.39.39,0,0,0-.41.42,2.67,2.67,0,0,0,.59,1.71,3.76,3.76,0,0,1,.72,2.09C47.43,8.38,46.83,8.73,46.26,8.7Z" transform="translate(-1.96 -2.48)"/><path class="cls-1" d="M49.19,8.87l.85-6,.79.11L50,9Z" transform="translate(-1.96 -2.48)"/><path class="cls-1" d="M52.45,9.44l-.26-3,0-.93-.77,3.72-.7-.15,1.22-5.91.73.15.16,3,0,.94.76-3.73.7.14L53.06,9.56Z" transform="translate(-1.96 -2.48)"/><path class="cls-1" d="M57.74,5.45l-1.62,5-.75-.24,1.62-5L56.28,5l.23-.74,2.16.7-.24.74Z" transform="translate(-1.96 -2.48)"/><path class="cls-1" d="M58.69,11.44l1-2.4L59,8.75l-1,2.4-.74-.3,2.3-5.59.74.31L59.27,8l.7.29,1-2.47.74.3-2.3,5.59Z" transform="translate(-1.96 -2.48)"/><path class="cls-1" d="M60.05,12l2.72-5.4,1.72.87-.33.67-1-.52-.82,1.63.71.36-.32.64L62,9.93l-.9,1.79,1,.52-.33.67Z" transform="translate(-1.96 -2.48)"/><path class="cls-1" d="M64.2,14.46a1.13,1.13,0,0,1-.32-1.63l2.68-4.14.67.43-2.7,4.18a.33.33,0,0,0,.08.52.35.35,0,0,0,.53-.13l2.7-4.17.64.41L65.8,14.07A1.11,1.11,0,0,1,64.2,14.46Z" transform="translate(-1.96 -2.48)"/><path class="cls-1" d="M66.5,16.08a1.11,1.11,0,0,1-.17-1.68l.39-.52.58.44-.41.55c-.19.25-.2.48,0,.64s.44.11.62-.13A2.86,2.86,0,0,0,68,13.7a4.07,4.07,0,0,1,.56-2.17,1.15,1.15,0,0,1,1.73-.36,1.07,1.07,0,0,1,.11,1.63l-.41.55-.57-.44.43-.57c.18-.23.19-.46,0-.6a.39.39,0,0,0-.58.11,2.69,2.69,0,0,0-.48,1.75,3.71,3.71,0,0,1-.59,2.13A1.15,1.15,0,0,1,66.5,16.08Z" transform="translate(-1.96 -2.48)"/><path class="cls-1" d="M70.79,16.73a.78.78,0,0,1,0-1.17.82.82,0,1,1,0,1.17Z" transform="translate(-1.96 -2.48)"/><path class="cls-1" d="M72.86,22.14l-.45-.53L74.9,19l-3.05,2-.44-.52L75.55,16l.51.59-2.88,2.9,3.4-2.29.4.47-2.83,2.95,3.35-2.34.47.55Z" transform="translate(-1.96 -2.48)"/><path class="cls-1" d="M73.61,23.12l4.87-3.58.47.64-4.87,3.58Z" transform="translate(-1.96 -2.48)"/><path class="cls-1" d="M75.47,25.84l2-2.28.62-.69-3.19,2.05-.39-.6,5.09-3.27.4.63-2,2.21-.64.68,3.2-2.06.38.6-5.08,3.26Z" transform="translate(-1.96 -2.48)"/><path class="cls-1" d="M77,28.54l2.16-2.1.68-.64-3.35,1.77-.34-.63,5.34-2.82.35.65-2.21,2-.7.63,3.37-1.78.33.62-5.34,2.82Z" transform="translate(-1.96 -2.48)"/><path class="cls-1" d="M77.56,29.71,83.1,27.3l.77,1.78-.68.29-.46-1.05-1.67.73.32.73-.66.29-.32-.74-1.83.8L79,31.18l-.69.3Z" transform="translate(-1.96 -2.48)"/><path class="cls-1" d="M79.13,33.79c-.09-.28.21-.51.62-.65l1.36-.48a.32.32,0,0,0,.25-.42l-.12-.33-2.44.85L78.54,32l5.7-2,.41,1.15a1,1,0,0,1-.69,1.3l-1.2.42a.79.79,0,0,1-.88-.19.8.8,0,0,1-.57.71l-1.26.44a1.19,1.19,0,0,0-.54.33l-.21.08Zm4.56-2.06c.23-.08.3-.2.25-.36L83.81,31l-1.92.67L82,32c.06.18.2.23.44.15Z" transform="translate(-1.96 -2.48)"/><path class="cls-1" d="M82.05,36a.83.83,0,1,1,1,.6A.79.79,0,0,1,82.05,36Z" transform="translate(-1.96 -2.48)"/><path class="cls-1" d="M85.84,39.64l-5.22.72-.1-.78,5.21-.72-.1-.75.76-.1.32,2.24-.77.11Z" transform="translate(-1.96 -2.48)"/><path class="cls-1" d="M80.75,42.62a1.14,1.14,0,0,1,1.15-1.24l3.75-.24A1.16,1.16,0,0,1,87,42.22a1.17,1.17,0,0,1-1.16,1.25l-3.75.24A1.15,1.15,0,0,1,80.75,42.62Zm5.07.05a.37.37,0,0,0,.37-.4.35.35,0,0,0-.41-.33l-3.9.25a.34.34,0,0,0-.36.38.35.35,0,0,0,.41.35Z" transform="translate(-1.96 -2.48)"/><path class="cls-1" d="M83.36,45.69v-.44l-2.45,0v-.79l6,.08v1.22a1,1,0,0,1-1.1,1l-1.42,0A.94.94,0,0,1,83.36,45.69Zm2.51.24c.23,0,.34-.08.34-.25v-.39l-2.17,0v.39c0,.17.11.26.34.26Z" transform="translate(-1.96 -2.48)"/><path class="cls-1" d="M80.51,50.26c0-.29.41-.36.85-.31l1.43.17a.32.32,0,0,0,.4-.26l0-.36-2.57-.31.1-.79,6,.73-.15,1.22a1,1,0,0,1-1.18.86l-1.26-.16a.79.79,0,0,1-.71-.55.79.79,0,0,1-.82.38l-1.33-.16a1.22,1.22,0,0,0-.63.06l-.23,0Zm5,.16c.23,0,.35,0,.37-.21l0-.37-2-.25,0,.34c0,.19.08.3.33.33Z" transform="translate(-1.96 -2.48)"/><path class="cls-1" d="M80.39,51.26l5.92,1.17-.38,1.89-.73-.14.23-1.12-1.79-.36-.16.79-.7-.14.16-.79-2-.38-.22,1.12L80,53.15Z" transform="translate(-1.96 -2.48)"/><path class="cls-1" d="M79.53,54.63A1.1,1.1,0,0,1,81,53.85l.63.17-.19.7-.65-.18c-.31-.08-.53,0-.6.25s.07.45.35.53a2.83,2.83,0,0,0,1.75-.18,4.14,4.14,0,0,1,2.22-.3,1.17,1.17,0,0,1,1,1.48A1.09,1.09,0,0,1,84,57l-.66-.18.19-.69.69.19c.29.08.5,0,.56-.22a.38.38,0,0,0-.32-.49,2.67,2.67,0,0,0-1.8.21,3.74,3.74,0,0,1-2.2.25A1.16,1.16,0,0,1,79.53,54.63Z" transform="translate(-1.96 -2.48)"/><path class="cls-1" d="M78.68,57.33a1.15,1.15,0,0,1,1.56-.68l3.53,1.26A1.18,1.18,0,1,1,83,60.12l-3.53-1.27A1.16,1.16,0,0,1,78.68,57.33Zm4.64,2.06a.36.36,0,0,0,.49-.22.35.35,0,0,0-.24-.47L79.9,57.38a.35.35,0,0,0-.49.21.35.35,0,0,0,.24.48Z" transform="translate(-1.96 -2.48)"/><path class="cls-1" d="M77.32,60.76c.12-.27.5-.23.9,0l1.31.6a.33.33,0,0,0,.47-.14l.15-.32L77.8,59.78l.32-.72,5.5,2.49-.5,1.11a.94.94,0,0,1-1.39.47l-1.15-.52a.78.78,0,0,1-.51-.74.82.82,0,0,1-.9.12l-1.23-.56a1.27,1.27,0,0,0-.61-.13l-.21-.09Zm4.73,1.65c.22.1.35.07.42-.09l.16-.35-1.85-.83-.15.31c-.07.17,0,.31.22.42Z" transform="translate(-1.96 -2.48)"/><path class="cls-1" d="M80.9,65.35l-4.62-2.53.37-.69,4.63,2.52.36-.66.68.37-1.09,2L80.56,66Z" transform="translate(-1.96 -2.48)"/><path class="cls-1" d="M75.08,64.64a1.1,1.1,0,0,1,1.66-.3l.55.35-.4.61-.57-.37c-.27-.17-.5-.16-.64.06s-.07.45.18.61a2.74,2.74,0,0,0,1.71.35,4.06,4.06,0,0,1,2.21.39,1.16,1.16,0,0,1,.51,1.7,1.09,1.09,0,0,1-1.62.24l-.58-.37.38-.6.61.38c.25.16.47.16.6,0a.39.39,0,0,0-.16-.57,2.71,2.71,0,0,0-1.78-.33,3.84,3.84,0,0,1-2.18-.42A1.15,1.15,0,0,1,75.08,64.64Z" transform="translate(-1.96 -2.48)"/><path class="cls-1" d="M73.47,67.09l4.76,3.72-.49.63L73,67.72Z" transform="translate(-1.96 -2.48)"/><path class="cls-1" d="M71.35,69.63l2.73,1.28.83.42-2.83-2.52.47-.54,4.52,4-.5.56L73.9,71.48l-.83-.43,2.85,2.53-.47.53-4.52-4Z" transform="translate(-1.96 -2.48)"/><path class="cls-1" d="M72.17,76.2l-3.53-3.91.58-.53,3.54,3.91.56-.51.51.58-1.68,1.52-.51-.57Z" transform="translate(-1.96 -2.48)"/><path class="cls-1" d="M66.49,74.05l1.59,2,.61-.47-1.59-2,.63-.49,3.7,4.78-.63.48-1.64-2.11-.6.47,1.64,2.11-.63.49-3.71-4.77Z" transform="translate(-1.96 -2.48)"/><path class="cls-1" d="M65.3,74.93l3.34,5L67,81l-.42-.62,1-.63-1-1.52-.66.44-.4-.6.67-.44L65.06,76l-1,.63L63.69,76Z" transform="translate(-1.96 -2.48)"/><path class="cls-1" d="M61.14,77.32a1.13,1.13,0,0,1,1.57.54L65,82.24l-.71.37L62,78.19c-.12-.22-.3-.3-.5-.19a.35.35,0,0,0-.15.52l2.29,4.42-.68.35-2.27-4.38A1.12,1.12,0,0,1,61.14,77.32Z" transform="translate(-1.96 -2.48)"/><path class="cls-1" d="M58.6,78.52a1.1,1.1,0,0,1,1.54.68l.25.61-.67.28-.26-.63c-.13-.29-.32-.41-.57-.31s-.31.33-.2.6A2.82,2.82,0,0,0,59.91,81a4.05,4.05,0,0,1,1.61,1.57A1.16,1.16,0,0,1,61,84.27a1.09,1.09,0,0,1-1.47-.72l-.27-.63.66-.28.28.66c.12.27.3.39.52.3a.38.38,0,0,0,.19-.55c-.26-.62-.59-.83-1.28-1.29A3.79,3.79,0,0,1,58,80.19,1.15,1.15,0,0,1,58.6,78.52Z" transform="translate(-1.96 -2.48)"/><path class="cls-1" d="M55.9,81.92a.83.83,0,1,1-.54,1A.79.79,0,0,1,55.9,81.92Z" transform="translate(-1.96 -2.48)"/><path class="cls-1" d="M50.17,81l.69-.12,1.06,3.48-.22-3.64.67-.13,1.8,5.81-.77.14-1.08-3.94.29,4.09-.61.12-1.14-3.93L51.22,87l-.71.13Z" transform="translate(-1.96 -2.48)"/><path class="cls-1" d="M49,81.19l.67,6-.79.09-.68-6Z" transform="translate(-1.96 -2.48)"/><path class="cls-1" d="M45.66,81.45l1,2.85.29.88-.18-3.78.71,0,.29,6-.74,0-.9-2.86-.27-.9L46,87.48l-.71,0-.29-6Z" transform="translate(-1.96 -2.48)"/><path class="cls-1" d="M42.58,81.42l.74,2.92.22.9.13-3.79.72,0-.22,6-.74,0-.66-2.93-.19-.91-.14,3.8-.71,0,.22-6Z" transform="translate(-1.96 -2.48)"/><path class="cls-1" d="M41.28,81.33l-.68,6-1.92-.21.09-.74,1.13.13.21-1.82-.8-.09.08-.71.8.09.22-2-1.14-.13.09-.75Z" transform="translate(-1.96 -2.48)"/><path class="cls-1" d="M37,80.66c.29,0,.34.43.26.86l-.27,1.42a.33.33,0,0,0,.25.42l.34.07L38,80.89l.78.14L37.68,87l-1.2-.22a.94.94,0,0,1-.78-1.24l.23-1.25a.79.79,0,0,1,.6-.67.8.8,0,0,1-.33-.85l.24-1.32a1.18,1.18,0,0,0,0-.63l0-.22Zm-.48,5c0,.23,0,.35.19.38l.37.07.38-2L37.07,84c-.19,0-.31.06-.35.31Z" transform="translate(-1.96 -2.48)"/><path class="cls-1" d="M33.55,82.08a.83.83,0,1,1-1,.57A.78.78,0,0,1,33.55,82.08Z" transform="translate(-1.96 -2.48)"/><path class="cls-1" d="M28.54,83.58l2-4.89.73.29-2,4.9.7.28-.29.71L27.58,84l.28-.72Z" transform="translate(-1.96 -2.48)"/><path class="cls-1" d="M28.48,77.68A1.15,1.15,0,0,1,29,79.3l-1.65,3.37a1.17,1.17,0,1,1-2.1-1l1.65-3.37A1.15,1.15,0,0,1,28.48,77.68Zm-2.56,4.38a.35.35,0,0,0,.16.51.35.35,0,0,0,.5-.19l1.72-3.5a.35.35,0,0,0-.16-.51.35.35,0,0,0-.5.19Z" transform="translate(-1.96 -2.48)"/><path class="cls-1" d="M24.52,78.41l.37.22,1.25-2.1.68.4-3.08,5.2-1-.63a.94.94,0,0,1-.3-1.44l.72-1.21A1,1,0,0,1,24.52,78.41Zm-1.46,2.06c-.12.2-.11.34,0,.42l.34.2,1.1-1.86L24.2,79c-.14-.09-.27,0-.39.17Z" transform="translate(-1.96 -2.48)"/><path class="cls-1" d="M22,73.68c.23.17.11.54-.15.88L21,75.72a.32.32,0,0,0,0,.48l.28.22,1.56-2.07.63.48-3.62,4.83-1-.74a.94.94,0,0,1-.16-1.45l.77-1a.79.79,0,0,1,.83-.34.79.79,0,0,1,.08-.9l.8-1.07a1.13,1.13,0,0,0,.26-.58l.14-.18Zm-2.64,4.26q-.21.27,0,.42l.3.23L20.86,77l-.28-.21c-.15-.11-.3-.08-.45.12Z" transform="translate(-1.96 -2.48)"/><path class="cls-1" d="M21.18,73.07l-4,4.55-1.45-1.27.49-.56.86.75,1.2-1.37-.6-.53.47-.54.6.53,1.32-1.51-.86-.75.49-.57Z" transform="translate(-1.96 -2.48)"/><path class="cls-1" d="M18.68,70.64a1.11,1.11,0,0,1-.07,1.69l-.46.46-.51-.52.48-.48c.22-.22.26-.45.08-.64s-.42-.17-.64,0a2.87,2.87,0,0,0-.71,1.6A4.18,4.18,0,0,1,16,74.87a1.16,1.16,0,0,1-1.77.12,1.09,1.09,0,0,1,.11-1.64l.49-.48.51.51-.51.5c-.22.21-.25.43-.09.6a.39.39,0,0,0,.59,0A2.74,2.74,0,0,0,16,72.78a3.75,3.75,0,0,1,.88-2A1.16,1.16,0,0,1,18.68,70.64Z" transform="translate(-1.96 -2.48)"/><path class="cls-1" d="M16.76,68.55a1.15,1.15,0,0,1-.19,1.69l-2.86,2.43a1.17,1.17,0,1,1-1.51-1.78l2.86-2.43A1.16,1.16,0,0,1,16.76,68.55Zm-4.1,3a.37.37,0,0,0-.06.54.35.35,0,0,0,.53,0l3-2.52a.35.35,0,0,0,.06-.53.36.36,0,0,0-.54,0Z" transform="translate(-1.96 -2.48)"/><path class="cls-1" d="M14.46,65.68c.17.23-.05.54-.41.79l-1.17.85a.32.32,0,0,0-.11.47l.21.29,2.09-1.51.47.64-4.9,3.54-.72-1a1,1,0,0,1,.29-1.44l1-.74a.79.79,0,0,1,.89-.08.82.82,0,0,1,.35-.84l1.09-.78A1.22,1.22,0,0,0,14,65.4l.18-.13ZM10.68,69c-.19.13-.24.26-.13.4l.22.31,1.65-1.19-.21-.28c-.11-.15-.26-.16-.47,0Z" transform="translate(-1.96 -2.48)"/><path class="cls-1" d="M8.7,66.5l4.49-2.76.42.68L9.12,67.18l.39.64-.66.4L7.67,66.29l.65-.41Z" transform="translate(-1.96 -2.48)"/><path class="cls-1" d="M12.21,61.8a1.11,1.11,0,0,1-.56,1.59l-.58.3-.34-.64.61-.32c.28-.14.38-.35.26-.59s-.35-.28-.62-.14a2.77,2.77,0,0,0-1.15,1.32A4.07,4.07,0,0,1,8.4,65a1.17,1.17,0,0,1-1.73-.4,1.09,1.09,0,0,1,.6-1.53l.61-.32.33.63-.64.34c-.26.13-.36.33-.26.54a.39.39,0,0,0,.57.14c.6-.31.77-.65,1.17-1.38a3.84,3.84,0,0,1,1.45-1.68A1.16,1.16,0,0,1,12.21,61.8Z" transform="translate(-1.96 -2.48)"/><path class="cls-1" d="M10.88,59.19,5.29,61.48,5,60.74l5.59-2.29Z" transform="translate(-1.96 -2.48)"/><path class="cls-1" d="M9.72,56.08,7.25,57.81l-.77.52,3.59-1.21.23.68L4.58,59.73,4.34,59l2.51-1.65.78-.51L4,58.09l-.22-.67,5.72-1.93Z" transform="translate(-1.96 -2.48)"/><path class="cls-1" d="M3.61,53.52,8.76,52.4l.17.77L3.78,54.3l.16.73-.75.17L2.7,53l.76-.16Z" transform="translate(-1.96 -2.48)"/><path class="cls-1" d="M8.31,49.67,5.74,50l.1.75,2.57-.35.11.79-6,.83-.11-.79,2.65-.37L5,50.14l-2.65.36-.11-.79,6-.83Z" transform="translate(-1.96 -2.48)"/><path class="cls-1" d="M8.14,48.21l-6,.37L2,46.66l.74,0,.07,1.14,1.82-.11,0-.8.72,0,0,.79,2-.12-.07-1.14.75,0Z" transform="translate(-1.96 -2.48)"/><path class="cls-1" d="M8.14,43.4a1.14,1.14,0,0,1-1.25,1.1L2,44.28l0-.8,5,.22c.26,0,.41-.11.42-.33A.35.35,0,0,0,7,43l-5-.23,0-.76L7,42.21A1.13,1.13,0,0,1,8.14,43.4Z" transform="translate(-1.96 -2.48)"/><path class="cls-1" d="M8.37,40.6a1.1,1.1,0,0,1-1.36,1l-.65-.08.09-.72.68.09c.31,0,.52-.08.55-.34s-.13-.44-.43-.47a2.82,2.82,0,0,0-1.7.43,4.13,4.13,0,0,1-2.15.62c-.76-.1-1.29-.53-1.2-1.32a1.09,1.09,0,0,1,1.36-.92l.68.08-.08.71-.71-.08c-.3,0-.5.07-.53.3a.39.39,0,0,0,.39.44,2.75,2.75,0,0,0,1.75-.47,3.76,3.76,0,0,1,2.14-.57A1.15,1.15,0,0,1,8.37,40.6Z" transform="translate(-1.96 -2.48)"/><path class="cls-1" d="M6.76,36.57a.8.8,0,0,1-1,.63.82.82,0,0,1,.36-1.61A.79.79,0,0,1,6.76,36.57Z" transform="translate(-1.96 -2.48)"/><path class="cls-1" d="M10.38,32l-.23.66L6.6,31.89,9.87,33.5l-.23.65L3.71,32.83,4,32.09l4,1L4.23,31.33l.2-.59,4,1L4.69,30l.24-.69Z" transform="translate(-1.96 -2.48)"/><path class="cls-1" d="M10.84,30.91,5.3,28.51l.31-.73,5.55,2.4Z" transform="translate(-1.96 -2.48)"/><path class="cls-1" d="M12.25,27.92l-3-.56-.91-.19,3.38,1.73-.33.63L6.05,26.79l.34-.66,2.93.64.91.21L6.84,25.25l.32-.63,5.38,2.74Z" transform="translate(-1.96 -2.48)"/><path class="cls-1" d="M13.82,25.26l-2.91-.81L10,24.18l3.22,2-.38.61L7.73,23.6,8.12,23l2.87.89.89.29-3.23-2,.37-.6,5.13,3.2Z" transform="translate(-1.96 -2.48)"/><path class="cls-1" d="M14.54,24.17,9.67,20.59,10.82,19l.6.44-.68.92,1.47,1.08.47-.65.58.43-.47.64,1.61,1.19.68-.92.6.44Z" transform="translate(-1.96 -2.48)"/><path class="cls-1" d="M17.27,20.77c-.19.22-.54.07-.87-.21l-1.1-.94a.33.33,0,0,0-.49,0l-.23.27,2,1.68-.52.61-4.59-3.93.79-.93a.94.94,0,0,1,1.46-.06l1,.82a.79.79,0,0,1,.29.86.79.79,0,0,1,.89.13l1,.87a1.15,1.15,0,0,0,.56.3l.17.15Zm-4.08-2.91c-.18-.15-.32-.16-.43,0l-.25.29,1.55,1.32.22-.26c.13-.14.1-.3-.09-.46Z" transform="translate(-1.96 -2.48)"/><path class="cls-1" d="M17.75,17.1a.83.83,0,1,1-1.15-1.2.83.83,0,0,1,1.15,1.2Z" transform="translate(-1.96 -2.48)"/><path class="cls-1" d="M55.45,59.35c-.14,0-.19.08-.19,1.56s0,1.51.19,1.51.19-.07.19-1.51S55.6,59.35,55.45,59.35Z" transform="translate(-1.96 -2.48)"/><path class="cls-1" d="M49.3,41.76h-.19a1,1,0,0,0-1,1.05v2.35h2.14V42.81A1,1,0,0,0,49.3,41.76Z" transform="translate(-1.96 -2.48)"/><path class="cls-1" d="M26.55,57.88h-.11v1.6h.25c.3,0,.4-.16.4-.72C27.09,57.88,26.91,57.88,26.55,57.88Z" transform="translate(-1.96 -2.48)"/><path class="cls-1" d="M42.93,25.56c.47,0,.59-.47.59-1.19v-2c0-.72-.12-1.2-.59-1.2s-.6.48-.6,1.2v2C42.33,25.09,42.45,25.56,42.93,25.56Z" transform="translate(-1.96 -2.48)"/><path class="cls-1" d="M38.76,59.88c0-.49,0-.69-.18-.69s-.2.13-.2.81v.44h.35C38.74,60.34,38.76,60,38.76,59.88Z" transform="translate(-1.96 -2.48)"/><path class="cls-1" d="M32.52,61.85c0,.43.07.48.17.48s.17-.07.17-.34v-.93C32.59,61.16,32.52,61.29,32.52,61.85Z" transform="translate(-1.96 -2.48)"/><path class="cls-1" d="M43.44,69c0,.43.08.49.17.49s.18-.07.18-.35v-.92C43.52,68.28,43.44,68.41,43.44,69Z" transform="translate(-1.96 -2.48)"/><polygon class="cls-1" points="48.95 32.63 49.77 32.63 49.34 31.49 48.95 32.63"/><path class="cls-1" d="M49.36,66.45c-.19,0-.21.17-.21,1.54s0,1.5.17,1.5.22-.09.22-1.49C49.54,66.76,49.51,66.45,49.36,66.45Z" transform="translate(-1.96 -2.48)"/><path class="cls-1" d="M30.13,59.88c0-.49,0-.69-.18-.69s-.2.13-.2.81v.44h.35C30.11,60.34,30.13,60,30.13,59.88Z" transform="translate(-1.96 -2.48)"/><path class="cls-1" d="M36.83,65.94c0,.59,0,1.12-.07,1.39,0,.45-.11,1.15-.11,1.15H37s-.09-.71-.14-1.17C36.87,67,36.86,66.52,36.83,65.94Z" transform="translate(-1.96 -2.48)"/><path class="cls-1" d="M35.68,62.36c.17,0,.22-.08.22-1.48,0-1.24,0-1.55-.19-1.55s-.21.17-.21,1.54S35.52,62.36,35.68,62.36Z" transform="translate(-1.96 -2.48)"/><path class="cls-1" d="M62.58,42.81a1,1,0,0,0-1-1.05h-.18a1,1,0,0,0-1,1.05v2.35h2.14Z" transform="translate(-1.96 -2.48)"/><path class="cls-1" d="M40.77,35.88H41a.25.25,0,0,0,.28-.26V33.9a.25.25,0,0,0-.28-.25h-.46v2A.25.25,0,0,0,40.77,35.88Z" transform="translate(-1.96 -2.48)"/><path class="cls-1" d="M49.51,25.57c.42,0,.6-.38.6-1.05s-.18-1.07-.6-1.07-.61.38-.61,1.07S49.08,25.57,49.51,25.57Z" transform="translate(-1.96 -2.48)"/><path class="cls-1" d="M44.46,13.25A31.76,31.76,0,1,0,76.23,45,31.8,31.8,0,0,0,44.46,13.25ZM47.71,23c0-1.77.5-2.8,1.87-2.8,1.09,0,1.64.74,1.64,1.9v.23H50.09v-.23c0-.55-.15-.9-.55-.9s-.64.49-.64,1.26v.62a1.06,1.06,0,0,1,1-.49c.94,0,1.44.75,1.44,2s-.53,2-1.76,2-1.82-1-1.82-2.78Zm-2.54-1.79c.73,0,.87-.28,1-.95h.9v6.25H45.89V22h-.72ZM41.07,23c0-1.78.51-2.81,1.86-2.81s1.85,1,1.85,2.81v.77c0,1.78-.52,2.81-1.85,2.81s-1.86-1-1.86-2.81Zm-3.89,2.63,1.54-2.1a2.63,2.63,0,0,0,.69-1.61c0-.43-.1-.75-.53-.75s-.52.35-.52.87v.55H37.19v-.46c0-1.17.48-1.94,1.69-1.94a1.54,1.54,0,0,1,1.72,1.74,3,3,0,0,1-.76,1.91l-1.22,1.63h2v1H37.18ZM29,29.13H59.89v.41H29Zm29.65,6.75H59V36H57v-.14h.25c.19,0,.24-.1.24-.23v-2c-.4,0-.63.11-.75.67l0,.12h-.14v-.93h2.79v.93h-.14l0-.12c-.12-.56-.35-.67-.75-.67v2A.2.2,0,0,0,58.69,35.88ZM55,35.25l-.51-.09c-.45-.07-.91-.28-.91-.82s.53-.88,1.28-.88a2,2,0,0,1,.86.21.4.4,0,0,0,.18-.21h.17v.7h-.14l0-.07a1.27,1.27,0,0,0-1-.49c-.4,0-.58.16-.58.32s.14.26.39.31l.65.11c.51.1,1,.31,1,.84s-.38.88-1.26.88a1.87,1.87,0,0,1-1-.28.39.39,0,0,0-.25.28h-.16v-.9h.13l.05.07a1.41,1.41,0,0,0,1.19.69c.23,0,.49-.09.49-.32S55.23,35.3,55,35.25Zm-3,.42-.16-.42h-.92l-.11.3c-.09.26,0,.33.17.33h.21V36H50.07v-.14h.11c.17,0,.28-.07.38-.35L51.11,34a.73.73,0,0,0,.07-.25.52.52,0,0,0-.09-.23h1L53,35.67a.28.28,0,0,0,.28.21h.07V36H51.67v-.14h.14C52,35.88,52,35.81,52,35.67Zm-4.18.21H48V36H47v-.14h.16c.19,0,.24-.1.24-.23V33.76l-.12-.11H47v-.14h1.37L49.53,35V33.88c0-.14,0-.23-.23-.23h-.16v-.14h1v.14H50c-.18,0-.23.09-.23.23V36h-.51L47.53,34v1.7C47.53,35.78,47.58,35.88,47.77,35.88Zm-5-2.23H42.6v-.14h2.77v.93h-.16l0-.1c-.11-.46-.27-.69-.88-.69H44v1c.35,0,.44,0,.49-.35l0-.19h.17v1.26h-.17l0-.19c0-.3-.14-.37-.49-.37v.84a.21.21,0,0,0,.23.23h.14a.8.8,0,0,0,.91-.77l0-.12h.17v1H42.6v-.14h.17a.2.2,0,0,0,.23-.23V33.88C43,33.74,43,33.65,42.77,33.65Zm.55-.4v-.07l1.56-.3v.37Zm-4,.4h-.16v-.14h1.77a1.26,1.26,0,1,1,0,2.51H39.14v-.14h.16c.19,0,.23-.1.23-.23V33.88C39.53,33.74,39.49,33.65,39.3,33.65Zm-2.83,2.23h.27V36H35.65v-.14h.16c.19,0,.24-.1.24-.23V33.76l-.12-.11h-.28v-.14H37L38.23,35V33.88c0-.14,0-.23-.23-.23h-.16v-.14h1v.14h-.16c-.19,0-.23.09-.23.23V36h-.51L36.23,34v1.7C36.23,35.78,36.28,35.88,36.47,35.88Zm-1-1.12A1.45,1.45,0,1,1,34,33.46,1.35,1.35,0,0,1,35.44,34.76ZM31,35.92a1.05,1.05,0,0,0,1-.65l0-.07h.14v.86H32a.52.52,0,0,0-.19-.28,1.52,1.52,0,0,1-.9.28,1.3,1.3,0,1,1,0-2.6,1.46,1.46,0,0,1,.88.28.54.54,0,0,0,.19-.28h.14v.86H32l0-.07a1,1,0,0,0-1-.65c-.33,0-.4.16-.4.32V35.6C30.58,35.76,30.65,35.92,31,35.92ZM18.21,49.29v-.14h.7c.86,0,1.42-.32,1.42-1.06V38a5.13,5.13,0,0,0-3.89,3.33H16.3V37.9H27.05v3.47h-.14A5.12,5.12,0,0,0,23,38V48.09c0,.74.33,1.06,1.24,1.06h.32c.86,0,1.33-.34,1.33-1.06V43c0-.63-.21-1-1.05-1h-.11v-.14h3.72v2a2.38,2.38,0,0,1,2.32-2.1,1.4,1.4,0,1,1,.05,2.79A1.37,1.37,0,0,1,29.47,43,1.5,1.5,0,0,1,30,41.92a2.93,2.93,0,0,0-1.56,2.91v3.26c0,.74.34,1.06,1.23,1.06h.42v.14Zm16-7.51a5,5,0,0,0-1.81.31L32.3,42a5.38,5.38,0,0,1,1.91-.33c2.35,0,3.46,1.26,3.46,2.66v3.53c0,.49.24.67.56.67s.56-.18.56-.67V46.39h.14v1.53c0,1-.72,1.51-1.91,1.51a1.67,1.67,0,0,1-1.86-1.51,2.53,2.53,0,0,1-2.51,1.51,2.23,2.23,0,0,1-2.46-2.16c0-1,.81-2.14,2.93-2.14h2V41.85A7,7,0,0,0,34.21,41.78Zm8.9,5.37L44,44.78A6,6,0,0,0,44.42,43c0-.86-.56-1.1-1.26-1.1h-.11v-.14h3.39v.14h0c-.51,0-1,.44-1.51,1.31a59.51,59.51,0,0,0-2.37,5.9l-.12.3H41.28L38,41.92H37v-.14h5.21v.14H41Zm14.75,2h.23v.14H52.6v-.14h.23c.87,0,1.24-.32,1.24-1.06V39c0-.63-.21-1-1-1h-.23V37.9h3.84V48.09C56.63,48.83,57,49.15,57.86,49.15ZM46.35,58.29h-.5V57h1v1.29a1.18,1.18,0,0,1-.49,1.1,1.1,1.1,0,0,1-.25.15l-.24-.35a.86.86,0,0,0,.29-.25A.84.84,0,0,0,46.35,58.29ZM29,54.27v-.42H59.89v.42ZM41.42,59.5c-.15,0-.2.14-.2.68V63H40.14V58.72H41.2v.42a.59.59,0,0,1,.62-.49c.51,0,.73.29.73,1a3.29,3.29,0,0,1-.14.92l-.87,0a4.73,4.73,0,0,0,.07-.68C41.61,59.64,41.55,59.5,41.42,59.5Zm-2.79,2.91c.14,0,.17,0,.17-.6,0-.11,0-.33,0-.46l.93,0a3.1,3.1,0,0,1,.05.54c0,.83-.36,1.16-1.1,1.16-.93,0-1.33-.3-1.33-2,0-1.88.4-2.4,1.27-2.4s1.18.51,1.18,1.77c0,.11,0,.53-.07.63H38.4v.39C38.42,62.33,38.47,62.41,38.63,62.41ZM53.07,45.23v.06H48.14v1.89a1.82,1.82,0,0,0,2,2,2.75,2.75,0,0,0,2.77-2.74v0H53c0,1.9-1.58,3-3.56,3-3.14,0-4.28-2.09-4.28-3.79a3.93,3.93,0,0,1,4.05-4A3.76,3.76,0,0,1,53.07,45.23ZM27.09,63A3.8,3.8,0,0,1,27,61.9v-.74c0-.54-.09-.81-.43-.81h-.09V63H25.22V57h1.72c.82,0,1.38.44,1.38,1.52s-.2,1.3-1,1.4c.72,0,.84.63.85,1.57a3.78,3.78,0,0,0,.26,1.5ZM30,62.41c.13,0,.16,0,.16-.6,0-.11,0-.33,0-.46l.93,0a4.51,4.51,0,0,1,.05.54c0,.83-.36,1.16-1.1,1.16-.94,0-1.33-.3-1.33-2,0-1.88.39-2.4,1.27-2.4s1.17.51,1.17,1.77c0,.11,0,.53-.06.63H29.77v.39C29.78,62.33,29.84,62.41,30,62.41Zm4.15.59a1.78,1.78,0,0,1-.53.07c-.32,0-.57-.1-.61-.31a.54.54,0,0,1-.56.31c-.46,0-1.05-.16-1.05-1.28a1.09,1.09,0,0,1,.93-1.26l.26-.07c.25-.07.27-.19.27-.72,0-.29,0-.39-.2-.39s-.19.12-.19.3a2.71,2.71,0,0,0,0,.4l-.91.08a1.58,1.58,0,0,1-.1-.53c0-.62.38-1,1.16-1s1.21.23,1.21,1v2.4c0,.14,0,.23.15.23a.47.47,0,0,0,.17,0Zm.25-2c0-1.85.46-2.32,1.07-2.32a.48.48,0,0,1,.43.25V57H37v6H36v-.34c-.1.26-.21.38-.51.38C34.78,63,34.4,62.68,34.4,61Zm2.86,9.14-.12-1h-.58l-.12,1H35.37l.93-6h1.13l1.11,6Zm4.11,0h-.84s-.15-1.13-.23-1.83a4.15,4.15,0,0,1,0-.54l0,.54c-.09.71-.27,1.83-.27,1.83H39.1l-.78-4.26h1s.11,1,.19,1.69c0,.19,0,.68,0,.79,0-.1,0-.6.05-.79.1-.67.24-1.69.24-1.69h.81l.18,1.69c0,.18,0,.59,0,.75a7.06,7.06,0,0,1,.06-.75l.24-1.69h1Zm3.7,0a1.45,1.45,0,0,1-.52.07c-.32,0-.58-.09-.62-.3a.52.52,0,0,1-.55.3c-.46,0-1.05-.16-1.05-1.28a1.09,1.09,0,0,1,.93-1.26l.25-.07c.25-.06.28-.19.28-.72,0-.29,0-.39-.21-.39s-.18.12-.18.31a2.66,2.66,0,0,0,0,.39l-.9.08a1.52,1.52,0,0,1-.1-.53c0-.61.37-.94,1.16-.94s1.2.23,1.2,1v2.4c0,.15,0,.23.16.23a.51.51,0,0,0,.17,0Zm-1-7.05c-.72,0-1.19-.34-1.19-1a2.22,2.22,0,0,1,.05-.45l.94-.07a2.63,2.63,0,0,0-.06.42c0,.29,0,.45.22.45s.23-.14.23-.44-.15-.6-.58-.81L43.36,61c-.39-.19-.55-.51-.55-1.19A1.12,1.12,0,0,1,44,58.65c.73,0,1.18.3,1.18,1a1.15,1.15,0,0,1,0,.29l-1,.06a2.34,2.34,0,0,0,0-.33c0-.29-.06-.38-.2-.38s-.21.11-.21.32,0,.43.37.58l.3.13a1.38,1.38,0,0,1,.82,1.43A1.15,1.15,0,0,1,44,63.07Zm3.67,4.63-.87,0a4.59,4.59,0,0,0,.07-.68c0-.29-.07-.43-.19-.43s-.2.15-.2.69v2.8H45.41V65.85h1.06v.41a.61.61,0,0,1,.63-.48c.5,0,.73.29.73,1A3.23,3.23,0,0,1,47.69,67.7Zm2.92,2.41h-1v-.34c-.1.26-.21.39-.52.39-.65,0-1-.35-1-2.07s.46-2.31,1.06-2.31a.46.46,0,0,1,.43.25v-1.9h1.07Zm-1.18-7c-1.09,0-1.55-.36-1.55-2.77,0-2.68.33-3.43,1.53-3.43,1,0,1.36.55,1.36,1.51a7.16,7.16,0,0,1-.07.94l-1.12,0c0-.32.06-.67.06-1,0-.53,0-.68-.21-.68s-.23.13-.23,2.32,0,2.16.26,2.16.22-.21.22-1.1a5.08,5.08,0,0,0,0-.79l1.15,0a7.38,7.38,0,0,1,.06,1C50.84,62.47,50.39,63.11,49.43,63.11Zm2.75,7.08c-.72,0-1.19-.34-1.19-1a2.22,2.22,0,0,1,0-.45l.94-.06a2.27,2.27,0,0,0,0,.41c0,.3,0,.45.22.45s.22-.14.22-.43c0-.45-.15-.6-.57-.81l-.28-.14c-.39-.18-.55-.5-.55-1.19a1.11,1.11,0,0,1,1.21-1.16c.74,0,1.18.3,1.18,1a2.37,2.37,0,0,1,0,.3l-1,.06c0-.06,0-.23,0-.34,0-.29-.06-.38-.2-.38s-.21.12-.21.33,0,.43.37.58l.3.13a1.36,1.36,0,0,1,.82,1.42C53.5,69.78,53.07,70.19,52.18,70.19ZM53.77,63H52.71V59.68c0-.15-.08-.21-.17-.21s-.22.1-.22.35V63H51.25V57h1v2a.82.82,0,0,1,.67-.38.72.72,0,0,1,.81.79Zm1.68.08c-.93,0-1.3-.46-1.3-2.16s.29-2.26,1.3-2.26,1.3.66,1.3,2.26S56.45,63.07,55.45,63.07Zm2.8-.08h-1.1V58.72h1.1Zm0-4.75h-1.1v-1h1.1Zm1.69,4.83c-1,0-1.3-.46-1.3-2.27s.54-2.15,1.28-2.15,1.13.35,1.13,1.25a2.54,2.54,0,0,1,0,.49H60a2.2,2.2,0,0,0,0-.5c0-.5,0-.6-.15-.6s-.19.13-.18,1.58,0,1.51.22,1.51.16-.1.16-.71c0-.13,0-.4,0-.62l1,0a3.85,3.85,0,0,1,.07.68C61.14,62.74,60.82,63.07,59.94,63.07Zm2.8-.66c.13,0,.16,0,.16-.6,0-.11,0-.33,0-.46l.93,0a4.51,4.51,0,0,1,.05.54c0,.83-.36,1.16-1.1,1.16-.94,0-1.33-.3-1.33-2,0-1.88.39-2.4,1.27-2.4s1.17.51,1.17,1.77c0,.11,0,.53-.06.63H62.51v.39C62.52,62.33,62.58,62.41,62.74,62.41Zm-1-13c-3.14,0-4.28-2.09-4.28-3.79a3.93,3.93,0,0,1,4-4,3.76,3.76,0,0,1,3.86,3.59v.06H60.44v1.89a1.82,1.82,0,0,0,2,2,2.75,2.75,0,0,0,2.77-2.74v0h.14C65.3,48.29,63.72,49.43,61.74,49.43Zm9.49-5A1.37,1.37,0,0,1,69.86,43a1.5,1.5,0,0,1,.56-1.12,2.93,2.93,0,0,0-1.56,2.91v3.26c0,.74.34,1.06,1.23,1.06h.42v.14H65v-.14h.1c.88,0,1.23-.32,1.23-1.06V43c0-.63-.21-1-1-1h-.11v-.14h3.72v2a2.38,2.38,0,0,1,2.32-2.1,1.4,1.4,0,1,1,0,2.79ZM16.3,37v-.14H72.62V37Z" transform="translate(-1.96 -2.48)"/><path class="cls-1" d="M33,47.46a.94.94,0,0,0,1,1h.19a1,1,0,0,0,1-1V45.27H33Z" transform="translate(-1.96 -2.48)"/><path class="cls-1" d="M33.63,33.85v1.82a.25.25,0,0,0,.28.25h.18a.25.25,0,0,0,.28-.25V33.85a.25.25,0,0,0-.28-.25h-.18A.25.25,0,0,0,33.63,33.85Z" transform="translate(-1.96 -2.48)"/><path class="cls-1" d="M62.87,59.88c0-.49,0-.69-.18-.69s-.2.13-.2.81v.44h.35C62.85,60.34,62.87,60,62.87,59.88Z" transform="translate(-1.96 -2.48)"/></svg>