<svg id="Layer_1" data-name="Layer 1" xmlns="http://www.w3.org/2000/svg" viewBox="0 0 152.63 88.88"><defs><style>.cls-1{fill:none;stroke:#fff;stroke-width:0.32px;}.cls-2,.cls-3{fill:#fff;}.cls-3,.cls-4{fill-rule:evenodd;}.cls-4{fill:#f79e6d;}</style></defs><title>VirtPreferred_rev</title><line class="cls-1" x1="6.32" y1="72.15" x2="144.58" y2="72.15"/><path class="cls-2" d="M35.35,88.14v3h-1.1V83.8H35.5a5.82,5.82,0,0,1,1.38.13,1.93,1.93,0,0,1,.83.48A2.09,2.09,0,0,1,38.34,86a2,2,0,0,1-.67,1.58,2.61,2.61,0,0,1-1.81.59Zm0-1h.41c1,0,1.52-.39,1.52-1.17s-.52-1.13-1.57-1.13h-.36Z" transform="translate(-2 -2.23)"/><path class="cls-2" d="M46.79,88l2.26,3.12H47.71l-2.09-3h-.2v3h-1.1V83.8h1.29a3.23,3.23,0,0,1,2.09.55,2,2,0,0,1,.71,1.6A2.11,2.11,0,0,1,48,87.28,2,2,0,0,1,46.79,88Zm-1.37-.83h.35c1,0,1.57-.4,1.57-1.2s-.51-1.12-1.53-1.12h-.39Z" transform="translate(-2 -2.23)"/><path class="cls-2" d="M59,84.84H56.09v1.75h2.85v1H56.09v2.44H59v1H55V83.8h4Z" transform="translate(-2 -2.23)"/><path class="cls-2" d="M69,84.84H66.41v1.75h2.46v1H66.41v3.48h-1.1V83.8H69Z" transform="translate(-2 -2.23)"/><path class="cls-2" d="M79.1,84.84H76.18v1.75H79v1H76.18v2.44H79.1v1h-4V83.8h4Z" transform="translate(-2 -2.23)"/><path class="cls-2" d="M87.87,88l2.26,3.12H88.78l-2.09-3h-.2v3h-1.1V83.8h1.29a3.23,3.23,0,0,1,2.09.55,2,2,0,0,1,.71,1.6A2.11,2.11,0,0,1,89,87.28,2,2,0,0,1,87.87,88Zm-1.38-.83h.35c1,0,1.57-.4,1.57-1.2s-.51-1.12-1.52-1.12h-.4Z" transform="translate(-2 -2.23)"/><path class="cls-2" d="M98.54,88l2.26,3.12H99.45l-2.08-3h-.2v3h-1.1V83.8h1.29a3.25,3.25,0,0,1,2.09.55,2,2,0,0,1,.71,1.6,2.06,2.06,0,0,1-.45,1.33A2,2,0,0,1,98.54,88Zm-1.37-.83h.35q1.56,0,1.56-1.2c0-.75-.51-1.12-1.52-1.12h-.39Z" transform="translate(-2 -2.23)"/><path class="cls-2" d="M110.77,84.84h-2.93v1.75h2.84v1h-2.84v2.44h2.93v1h-4V83.8h4Z" transform="translate(-2 -2.23)"/><path class="cls-2" d="M117.06,91.11V83.8h1.53a5.76,5.76,0,0,1,1.74.22,3.28,3.28,0,0,1,1.24.73,3.49,3.49,0,0,1,1.13,2.71,3.44,3.44,0,0,1-1.18,2.72,3.22,3.22,0,0,1-1.24.72,5.41,5.41,0,0,1-1.71.21Zm1.1-1h.49a4,4,0,0,0,1.24-.16,2.48,2.48,0,0,0,1.7-2.45,2.55,2.55,0,0,0-.8-1.95,3.05,3.05,0,0,0-2.14-.67h-.49Z" transform="translate(-2 -2.23)"/><path class="cls-2" d="M19.05,48.13c-1.05,2.42-4.2,9.2-6,13.63a6.83,6.83,0,0,1-.29-.75c.85-2.3,4.45-9.7,5.33-13.36.35-1.47,0-1.95-2.09-2.35-.32,0-.22-.33,0-.28a29.1,29.1,0,0,0,3.38.15A22.7,22.7,0,0,0,22.45,45c.28,0,.3.23.05.28-1.45.3-2.35.33-3.45,2.83M12,64.86c0,.23-.3.2-.27,0-.26-.82-.58-1.45-1.26-3.2s-5-12.86-5.55-14c-.73-1.62-1.45-2.28-2.68-2.4-.3,0-.27-.3,0-.28,1,.08,2.63.13,3.23.13s2.37-.08,3.35-.13c.3,0,.35.23,0,.28-1.3.18-1.93.75-1.5,2.23.15.5,4.88,12,5.41,13.48a6.83,6.83,0,0,0,.29.75A25.71,25.71,0,0,0,12,64.86Z" transform="translate(-2 -2.23)"/><path class="cls-2" d="M31.8,64.44c-.75-.07-1.9-.1-2.23-.1a16.35,16.35,0,0,0-2.06.1c-.17,0-.22-.17-.05-.19,1.15-.17,1.34-.36,1.34-4.38V55.38c0-3.81-.07-3.92-1.32-4.12-.25,0-.19-.23,0-.19a19.27,19.27,0,0,0,2.08.17,16.5,16.5,0,0,0,2.18-.17c.21,0,.22.15,0,.19-1.27.27-1.44.31-1.44,4.11v4.51c0,4,.28,4.21,1.5,4.37.17,0,.13.22,0,.19" transform="translate(-2 -2.23)"/><path class="cls-2" d="M51.38,64.54c-2.33,0-3.45-1.55-6.38-6.75a4.52,4.52,0,0,1-.53,0,3.88,3.88,0,0,1-.74-.07v-.27a3.21,3.21,0,0,0,.76.08c1.79,0,3.3-.7,3.3-3,0-2.06-.72-3.32-2.72-3.32V51c3,0,4.36,1.48,4.36,3.43a3.23,3.23,0,0,1-2.72,3.13c1.58,3,4.09,6.62,5.29,6.62a1,1,0,0,0,.67-.24c.19-.14.31,0,.14.16a2.28,2.28,0,0,1-1.43.46m-6.17-.1c-.84-.06-1.7-.09-2.24-.09s-1.49.06-2.06.09c-.19,0-.19-.16,0-.17,1.23-.11,1.32-.38,1.32-4.4v-4.5c0-3.81-.21-4-1.14-4.13-.18,0-.13-.21,0-.19a11.65,11.65,0,0,0,1.5.07c.44,0,1.8-.12,2.47-.14v.22a6.24,6.24,0,0,0-1.39.14c.08.48,0,1.89,0,2.83v5.7c0,4,.22,4.26,1.5,4.4C45.4,64.28,45.38,64.46,45.21,64.44Z" transform="translate(-2 -2.23)"/><path class="cls-2" d="M69.67,54.31c0,.22-.16.19-.17,0-.11-2.18-1.09-2.59-2.71-2.7-.5,0-1.18-.05-1.71-.05a.51.51,0,0,0,0-.22c.36,0,1.29,0,1.79,0,1-.06,2.3-.14,2.92-.24.12-.11.24,0,.15.13a24.41,24.41,0,0,0-.22,3.13m-6.14-2.75c-.26,0-1.21,0-1.76,0-1.52,0-2.31.45-2.86,2.47,0,.19-.24.18-.19,0A17.94,17.94,0,0,0,59,51.11c-.07-.13.12-.2.19-.1a8.87,8.87,0,0,0,2.59.31c.84,0,1.72,0,1.84,0A.46.46,0,0,0,63.53,51.56Zm3.36,12.88c-.74-.09-2.3-.12-2.64-.12a21.34,21.34,0,0,0-2.48.12c-.17,0-.19-.16,0-.19,1.51-.26,1.8-.36,1.8-4.38,0-1.72,0-7.95,0-8.31a.46.46,0,0,1,0-.21c.07,0,1.36,0,1.45,0a.51.51,0,0,1,0,.22c-.09,1,0,6.73,0,8.35,0,4,.2,4.08,1.88,4.36C67.06,64.27,67.05,64.47,66.89,64.44Z" transform="translate(-2 -2.23)"/><path class="cls-2" d="M106.3,64.42c0-.09,0-.19,0-.28a5.41,5.41,0,0,0,4.14-5.45c0-4.06-2.68-7.56-5.67-7.56a3.83,3.83,0,0,0-.47,0c0-.07,0-.19,0-.27.19,0,.55,0,.76,0a7,7,0,0,1,7.13,6.82,6.87,6.87,0,0,1-5.81,6.76m-1,.11a7,7,0,0,1-7.13-6.84,6.87,6.87,0,0,1,6.1-6.8c0,.08,0,.2,0,.27-2.92.35-4.45,2.91-4.45,5.5,0,4.08,2.51,7.55,5.66,7.55a4.15,4.15,0,0,0,.79-.07c0,.09,0,.19,0,.28A7.18,7.18,0,0,1,105.25,64.53Z" transform="translate(-2 -2.23)"/><path class="cls-2" d="M127.05,53.77c-.32-1.13-.79-2.53-2.56-2.53a4.18,4.18,0,0,0-1.31.21c0-.07-.07-.14-.1-.22a4.07,4.07,0,0,1,1.77-.36,6.14,6.14,0,0,1,2,.3c0-.17.24-.1.19.12,0,.06.1,1.66.22,2.43.07.21-.12.28-.19.05M125,64.14c0-.08-.09-.17-.12-.26a2.18,2.18,0,0,0,1.33-2.2,3.41,3.41,0,0,0-2.07-3.13c-.39-.22-1.07-.6-1.45-.84a3.69,3.69,0,0,1-2-3.13,4,4,0,0,1,2.39-3.35c0,.08.07.15.1.22a2.12,2.12,0,0,0-1.27,2.12,3,3,0,0,0,1.5,2.56c.36.26,1.36.84,1.79,1.08a4,4,0,0,1,2.37,3.37A3.86,3.86,0,0,1,125,64.14Zm-1.93.39a6.06,6.06,0,0,1-2.82-.47c-.06.19-.31,0-.2-.12,0,0-.33-3-.33-3,0-.12.12-.24.19,0,.46,2,1.2,3.28,3.18,3.28a5,5,0,0,0,1.79-.33c0,.09.09.18.12.26A5,5,0,0,1,123,64.53Z" transform="translate(-2 -2.23)"/><path class="cls-2" d="M143.7,64.42c0-.09,0-.19,0-.28a5.4,5.4,0,0,0,4.15-5.45c0-4.06-2.68-7.56-5.68-7.56a3.8,3.8,0,0,0-.46,0c0-.07,0-.19-.06-.27.19,0,.56,0,.76,0a7,7,0,0,1,7.13,6.82,6.87,6.87,0,0,1-5.8,6.76m-1,.11a7,7,0,0,1-7.13-6.84,6.87,6.87,0,0,1,6.09-6.8c0,.08,0,.2.06.27-2.93.35-4.46,2.91-4.46,5.5,0,4.08,2.51,7.55,5.66,7.55a4.07,4.07,0,0,0,.79-.07c0,.09,0,.19,0,.28A7.33,7.33,0,0,1,142.65,64.53Z" transform="translate(-2 -2.23)"/><path class="cls-2" d="M84.64,4c0-.38.28-.6.22-.88-.24-.06.08-.4-.15-.53-.4.32,0-.29-.27-.32a12.84,12.84,0,0,0-1.6,1.92,43.54,43.54,0,0,0-4.36,8.78,5.17,5.17,0,0,0-.54,1.31c-.2.22-.21.68-.33.92.14.27-.11.43-.1.69-.17,0-.05.38-.23.2-.11,0,.14.4-.06.64,0,.2-.19.1-.22.2.25.1-.28.06,0,.25.1.1,0,.27-.09.38-.09-.18-.12.18-.2.29s.13,0,.07.09c-.17.24,0,.22,0,.43,0,0,0,.07-.09,0s0-.1-.06-.1c.08.13-.2.78-.2.78h.17s.34-.2-.29.64c0-.08-.09-.17-.08,0,.12.32-.27.38-.12.58-.1.24,0,.6-.26.69,0,.1.13,0,.09.14-.26,1.34-.39,1.33-.39,1.33s.23.18,0,.29c-.13-.16-.12.28-.06.14.07.17-.08.43,0,.64s-.37.44-.08.14c-.16.27,0,.73-.3.91.14.19,0,.49,0,.64-.25.24-.13.57-.27.87a.21.21,0,0,1,0,.27c-.11.55-.15,1-.24,1.64,0,.15-.08.37-.18.34-.11.46-.12,1.29-.3,1.89A3.18,3.18,0,0,1,74,31.42h.11s.06.05,0,.08c-.29-.06,0,.2-.16.24,0,0,0,0,0,0s.1,0,.09,0c-.27.18.1.48-.12.65a3.25,3.25,0,0,0-.16,1.1c.13.1-.15.24,0,.23s0,.08,0,.11c-.06.18-.21.5,0,.65.22-.12-.06-.05-.06-.18s.12-.15.2-.2c-.28-.27.52-.39,0-.6.13-.11.12.09.22.1.13-.23-.12-.35-.16-.54.39-.17.3-.42.43-.81-.25-.2.23-.27.23-.43-.53-.2.36-.4.06-.72,0-.08.18-.36,0-.15.08-.11-.11-.3.12-.27,0-.2.11-.41.15-.61s-.09-.42.16-.5c-.12-.12-.17-.37,0-.36s.14-.26,0-.36a10,10,0,0,0,.42-1.76c.06-.16.06-.4.14-.49A15,15,0,0,1,76.28,24c.16-.17,0-.54.27-.47-.31.68-.27,1.39-.57,2,.14.22-.07,1-.25,1.3-.07.13-.15.35,0,.48-.1.28-.26.46-.14.77-.16.15.18.56-.16.74A14,14,0,0,0,75,31.1C75,31,75,31,75,31s0,.12,0,.2,0,.51-.19.24c-.24.39-.06.77-.25,1.2.21.33-.28.44-.12.78s-.17.42-.2.6.08,0,.07,0,.14.05.11.13c0-.1.12-.15.11-.27s-.08-.17-.07,0,0,0-.08,0,0,0,0-.09.17-.47.19-.17a6.26,6.26,0,0,0,.32-1.39s0-.05.09-.06c-.07-.32.29-.53.23-.81a2.2,2.2,0,0,1,.07-.28c-.1.12-.09-.06-.13-.12.33-.12.09-.4.32-.59.13.58-.26,1.24-.17,1.77,0-.3.06-.47.1-.7a.52.52,0,0,0,.11-.47c.18-.2.09-.46.21-.64s.06-.28.16-.3-.1,0-.11-.06,0-.4.15-.18c.11-.08-.17-.47.1-.53-.15-.42.38-.74.22-1.16a2.93,2.93,0,0,1,.15-.82c.18-.08,0-.43.24-.24-.21,1.12-.36,2.11-.62,3.21.18-.13.08-.27.24-.28-.13-.42.13-.43.13-.63s-.15-.15,0-.23,0,0,0-.08c.19-.27.12.1.18.14s0-.1,0-.15.08-.18.14-.06c-.23.6.13-.16,0-.11s-.34.05-.29-.17.15-.33.28-.56a.51.51,0,0,1,0,.34c.1-.25,0-.51.28-.61-.25,0,0-.35-.27-.27s-.06-.16,0-.24c.25-.11,0,.12.12.21a2.55,2.55,0,0,1,.23-.47c-.13-.12,0-.25,0-.29a5,5,0,0,1,.29-.67c0-.2-.28-.09-.4,0,0-.06,0-.14,0-.2s.4,0,.25-.1c.12-.07.27-.09.28-.27-.24-.27.15-.36,0-.6,0-.05.07,0,.11,0s.05,0,0,.09a.79.79,0,0,0,.09-.35c-.32-.21.17-.16.16-.34s-.13,0,0,0-.08.09-.12.07a2.19,2.19,0,0,1,.29-1c.06.21.36-.41,0-.08a.88.88,0,0,1,0-.23c0-.36.14.17,0-.25a.34.34,0,0,0,.2,0c-.15-.24.37-.48,0-.4-.19-.25.08-.07.15-.23a3.53,3.53,0,0,0,.15-.49c-.1-.05,0-.08,0-.11.07-.37.12-.24-.14-.14-.08-.06,0-.11,0-.2.58-.09.3-.74.54-1-.08-.14.18,0,.11-.18s.18-.17,0-.15,0-.16.07-.24,0,.09,0,.14a3.86,3.86,0,0,0,.19-.54,2.2,2.2,0,0,0-.15.26c-.17-.39.59-.31.1-.46,0-.12.18-.21.08-.36s.12-.16.17,0-.16.53,0,.21.1-.53.3-.65c-.18-.16-.13.21-.28.27.06-.14-.22-.19,0-.22,0,0,.05-.14,0-.14s.14-.31.29-.11c.31-.33,0,.06-.14-.18s.21-.27.31-.39c0,0-.1,0-.11-.06a.39.39,0,0,1,.25-.12c.09-.17,0-.25.14-.37.44-.87.75-1.88,1.12-2.82-.15.06-.13.31-.29.39-.06-.16.13-.27.1-.47a20.82,20.82,0,0,1,1.13-2.54C83,10.36,83.4,9.18,83.93,8a1.28,1.28,0,0,1,.22-.36c.07-.07,0,0-.19.11.14-.43.6-1.22.45-1.21a1.31,1.31,0,0,1-.2.3c0-.25.3-.62.21-.93.27-.39,0-.88.3-1.3-.13,0-.18-.12-.15-.27s.32-.58.07-.39M74.43,28.41s.08.16.07.2S74.42,28.43,74.43,28.41Zm1.67-8.27a.16.16,0,0,1,.12.06C76.19,20.34,76.07,20.18,76.1,20.14ZM74.59,33.35h0S74.61,33.42,74.59,33.35Zm.1-.69a.77.77,0,0,1,0,.2S74.71,32.89,74.69,32.66Zm.87-2.5c0,.06,0,.1,0,.16S75.53,30.31,75.56,30.16Zm.16-.85s0,.09,0,.12S75.67,29.4,75.72,29.31ZM79.14,17.5c0-.07.12-.11.16-.18a1,1,0,0,1-.06.18l-.07.15C79.13,17.58,79.12,17.54,79.14,17.5Zm-.5,1.18s0,0-.1.11A.5.5,0,0,0,78.64,18.68Zm-.12.27s0,0,0,0S78.5,19,78.52,19Zm-.3.27a.78.78,0,0,0,0,.14S78.16,19.36,78.22,19.22Zm-.46.61s.09.07,0,.12S77.76,19.87,77.76,19.83Zm-.18-.35,0,.05C77.5,19.6,77.58,19.49,77.58,19.48Zm0,2s0-.07,0-.11S77.63,21.42,77.56,21.46Zm-.06,3.17c.07.08,0,.1,0,.15S77.53,24.7,77.5,24.63ZM77.33,24c.07,0,0,.07,0,.08S77.27,24.05,77.33,24Zm0-.92a1,1,0,0,1,0,.17C77.24,23.19,77.29,23.14,77.29,23.09Zm-.16-2.41c.07.08-.06.39-.11.19C77.13,20.9,77.1,20.76,77.13,20.68Zm-.39,1c.15-.12.34-.23.16.06,0,0-.06,0-.09.05s0-.13-.07-.11l0,0Zm.11,1.79a.88.88,0,0,0,0,.16S76.74,23.62,76.85,23.43Zm-.12.48,0-.06.09,0s-.05,0-.06,0S76.71,24,76.73,23.91Zm0-1.29a1,1,0,0,1-.09.34.33.33,0,0,0,0,.2.3.3,0,0,1,0-.21A1.89,1.89,0,0,0,76.73,22.62Zm-.12-.5a.05.05,0,0,1-.06,0C76.46,22,76.66,21.89,76.61,22.12Zm0,2.06c.15,0,.19.08,0,.09S76.49,24.19,76.57,24.18Zm-.77,4.58h0S75.84,28.85,75.8,28.76Zm0-.31,0,.06S75.82,28.5,75.84,28.45Zm.25-.88c0,.15-.25.35-.15.58,0,0-.06,0-.09,0-.24-.14.2-.22,0-.32.26-.1,0-.17.23-.28,0-.05-.07-.05-.11-.05A.08.08,0,0,1,76.09,27.57Zm0-.55c0-.28,0-.07.09-.39C76.2,26.76,76.21,26.93,76.13,27Zm.09-.63a.77.77,0,0,0,.06-.15S76.34,26.38,76.22,26.39Zm.23-1.78c0-.09.11-.08.17-.12a.15.15,0,0,1,.06-.09.15.15,0,0,1-.06.09c0,.17,0,.39-.21.35C76.37,24.72,76.62,24.7,76.45,24.61Zm.4,3.16c0,.11,0,.32-.18.25S76.78,27.57,76.85,27.77Zm.06-.86a.61.61,0,0,0,0-.12S77,26.89,76.91,26.91Zm.1.19h0S77.05,27.17,77,27.1Zm0-.19s0,0,0,0S77.05,27,77,26.91Zm-.37,0c-.15,0,.12-.26-.16-.22,0,.2-.07.14-.08,0s.13,0,.18-.06.3-.29.1-.47c.23,0,.11-.43.25-.59a2.41,2.41,0,0,1,.17-.6C77,25.47,76.86,26.31,76.66,26.89Zm.5-5s0,0-.06,0h0c0-.08.06,0,.06,0Zm0,2.62,0,.2C77.13,24.59,77.2,24.54,77.21,24.47Zm.27.64c-.17.06,0,.27-.21.33-.18-.11.11-.15,0-.31.06-.06.12,0,.17-.11s0-.11,0,0C77.56,24.9,77.53,25.13,77.48,25.11Zm.3-1c-.08,0-.07.23-.18.18s.14-.17,0-.28c-.06.08-.14.15-.12.27,0-.16.12-.27,0-.31.29.07,0-.24.2-.22C77.83,23.87,77.71,24,77.78,24.12ZM77.85,22c-.28,0,.12-.26,0-.42C78.11,21.69,77.86,21.83,77.85,22ZM78,18.45c0-.05,0-.07,0-.12S78,18.36,78,18.45Zm.2,3.18c.19,0-.05.13,0,.25S78.18,21.76,78.18,21.63Zm.11.93,0,.1h0l0,.09a.14.14,0,0,1,0-.09h0A1,1,0,0,0,78.29,22.56Zm0-1.22a.38.38,0,0,0,.06-.16C78.39,21.25,78.47,21.3,78.34,21.34Zm.2-.8s0,0,0,0S78.51,20.62,78.54,20.54Zm.23.3s0,0,0,0h0s0,0,0,0h0Zm0-.67c0,.14-.29.22-.22.17s-.08.09-.16.09c.13,0,0,.19,0,.23a.1.1,0,0,0,0,.11c0,.14.17-.12.14.07s-.25,0-.36.07c.13-.22-.16-.41.08-.56a1.54,1.54,0,0,0,.55-.26c-.07-.08,0-.25.1-.11C78.62,20,78.85,20.14,78.74,20.17Zm.07-.47v0S78.75,19.78,78.81,19.7Zm0-.58c-.13-.06,0-.41.16-.54,0,.05,0,.1,0,.14l.29-.29C79.35,18.93,78.86,18.63,78.84,19.12Zm0,1.33a.31.31,0,0,0,0-.1C79,20.46,78.89,20.42,78.87,20.45Zm.07-1.09s0,0,0-.31A.87.87,0,0,1,78.94,19.36Zm.19.4c.07,0,0,.1,0,.14s-.19.15-.12,0c0,0,.07,0,.11-.05s-.14-.27,0-.33C79.32,19.72,79.11,19.59,79.13,19.76Zm.1-.62h.11S79.33,19.19,79.23,19.14Zm0-1.78s0-.09.06-.13S79.28,17.33,79.27,17.36Zm1.16-1.65s0,.07-.05,0ZM80,17.2c.06-.14.24-.26.27-.13A.46.46,0,0,1,80,17.2Zm.32-.43a2.13,2.13,0,0,1,.21-.49C80.42,16.44,80.41,16.64,80.28,16.77Zm.3-.76s-.12-.06,0-.08S80.6,16,80.58,16Zm.11-.18s-.06-.06,0-.14A.78.78,0,0,1,80.69,15.83Zm.4-1.37c-.07.09-.15,0,0-.05S81.09,14.43,81.09,14.46Z" transform="translate(-2 -2.23)"/><path class="cls-2" d="M80.05,17.65c-.09.26,0,0,.09.09s-.06-.1-.09-.09" transform="translate(-2 -2.23)"/><path class="cls-2" d="M78.26,20.76c0-.11.12-.16.09-.3s-.16.23-.09.3" transform="translate(-2 -2.23)"/><path class="cls-2" d="M75.8,21.06a1.55,1.55,0,0,0,0,.21c.09,0,0-.16,0-.21" transform="translate(-2 -2.23)"/><polyline class="cls-2" points="76.25 20.43 76.25 20.43 76.27 20.43 76.27 20.43 76.25 20.43"/><path class="cls-2" d="M75.08,24.74s0,.11,0,.11,0-.08,0-.11" transform="translate(-2 -2.23)"/><path class="cls-2" d="M74.85,25.75c0-.07,0-.16.05-.23s0,.16-.05.23" transform="translate(-2 -2.23)"/><path class="cls-2" d="M74.44,27.62c.1-.09.09-.3.1-.35s-.09.3-.1.35" transform="translate(-2 -2.23)"/><path class="cls-2" d="M77,28.1c-.06-.2-.1.45,0,.1,0,0,0-.08,0-.1" transform="translate(-2 -2.23)"/><path class="cls-2" d="M74.42,28.1c0-.05,0-.06,0-.11,0-.45-.14.14,0,.11" transform="translate(-2 -2.23)"/><path class="cls-2" d="M75.43,28.59c0,.05-.09.13-.09.16s.12,0,.09-.16" transform="translate(-2 -2.23)"/><path class="cls-2" d="M76.47,29.42c0-.08,0-.1,0-.17a1.28,1.28,0,0,0,0,.17" transform="translate(-2 -2.23)"/><path class="cls-2" d="M76.59,29.4c0-.06.08-.06,0-.12a1,1,0,0,1,0,.12" transform="translate(-2 -2.23)"/><path class="cls-2" d="M76.46,30s.08-.06,0-.08-.35,0,0,.08" transform="translate(-2 -2.23)"/><polyline class="cls-2" points="74.5 27.64 74.5 27.64 74.5 27.64"/><polyline class="cls-2" points="74.5 27.64 74.5 27.64 74.5 27.64"/><path class="cls-2" d="M76.26,30.3l.13-.1s-.08,0-.13.1" transform="translate(-2 -2.23)"/><path class="cls-2" d="M76.18,30.25c-.07.1,0,.15-.06.23.06-.08,0-.15.06-.23" transform="translate(-2 -2.23)"/><path class="cls-2" d="M74.47,32.59s0-.12,0-.17,0,.15,0,.17" transform="translate(-2 -2.23)"/><path class="cls-2" d="M75.07,32.79a.21.21,0,0,0,.08-.13c0-.19-.1.06-.08.13" transform="translate(-2 -2.23)"/><path class="cls-2" d="M73.68,33c.12,0,0-.22,0-.34-.11,0,0,.13,0,.34" transform="translate(-2 -2.23)"/><path class="cls-2" d="M74.11,34.24c0-.1-.1,0-.12-.05s.11,0,.12.05" transform="translate(-2 -2.23)"/><path class="cls-2" d="M74.27,34.74h-.08s.06.19.08,0" transform="translate(-2 -2.23)"/><path class="cls-2" d="M74,41.09A.24.24,0,0,1,74.1,41H74a.17.17,0,0,1,0,.1" transform="translate(-2 -2.23)"/><path class="cls-2" d="M74,41.16v-.07a.14.14,0,0,0,0,.07" transform="translate(-2 -2.23)"/><path class="cls-2" d="M73.69,35.15c.07-.1,0-.11,0-.16a.88.88,0,0,1,0,.16" transform="translate(-2 -2.23)"/><path class="cls-2" d="M75.33,36.66c-.07,0-.19-.16-.25,0a.29.29,0,0,0-.2-.12.23.23,0,0,1-.21,0c-.13-.19-.32,0-.59,0,0,.09,0,.09-.06.14.14.35-.42,0-.57.18-.15-.18-.35.22-.41-.09-.14.16-.29.19-.4.37-.27-.14,0,.23-.29.09-.59.32-.25,1-.95,1.38,0,0,0,.22.06.27.33.06.38.4.42.63.42.23.22.77.61.93-.07.57.29-.28.4.26.44.16-.13.33,0,.61,0,0,.32.22.24,0,.4.47.07-.41.43-.38,0-.05,0-.1,0-.12.33-.06.16-.26.15-.46.41,0,.24.66.37.59s.23-.37.29-.52c0,.07.08.21.2.1,0-.18.66-.48.36-.62.55-.26-.09-.83.4-1.11.06.13.22-.16.32-.17.07-.29-.24-.33-.24-.61.25-.47-.21-.85-.07-1.34M73.8,40.29c-.06-.28.08-.64.16-.16C74,40.23,74,40.34,73.8,40.29Z" transform="translate(-2 -2.23)"/><path class="cls-3" d="M76.41,27.26c0,.15-.08.3-.11.44l.22,0c0-.2.07-.41.11-.61l-.12,0a.19.19,0,0,1-.1.17" transform="translate(-2 -2.23)"/><path class="cls-3" d="M75.69,26.93l-.15,0a2,2,0,0,1-.06.28,3.59,3.59,0,0,0-.08.35l.19,0,.1-.24a.39.39,0,0,1,0-.39" transform="translate(-2 -2.23)"/><path class="cls-3" d="M75.23,31.34a.76.76,0,0,1-.16.46l.24,0a3.22,3.22,0,0,1,.09-.51l-.17,0v0" transform="translate(-2 -2.23)"/><path class="cls-3" d="M74.45,31.69l.3.06a.93.93,0,0,1,.12-.34c.11.19.1,0,.13-.15l-.32-.05c.13.19-.14.35-.23.48" transform="translate(-2 -2.23)"/><path class="cls-3" d="M76,27.52a.1.1,0,0,1,.11.05l-.1.06.09,0,0-.08c0-.11-.12-.13-.14-.05" transform="translate(-2 -2.23)"/><path class="cls-3" d="M76.69,27.76l.16,0v0c0-.1-.11-.08-.16,0" transform="translate(-2 -2.23)"/><path class="cls-3" d="M91.56,18.94c.77-2.31-1.61-4.14-3.35-5.3A3.51,3.51,0,0,0,88,11.78c-1.1-2.52-4.23-4.43-7.25-5.07a11.7,11.7,0,0,0-1.19-.2A8,8,0,0,0,78,6.45c-1.79.07-3.87.69-4.5,2.58-2,.05-4.7.1-6.09,1.66a2.43,2.43,0,0,0-.49,2.76c-1.3.38-3,1.19-3.25,2.75-.08,1,.71,1.68,1.34,2.4l-.55.32a2.36,2.36,0,0,0-1.21,1.86c-.08,1.58,1.37,2.62,2.48,3.37A2,2,0,0,0,65,25.44c0,2.18,1.92,3.14,3.32,4.13.93,2.2,3.36,3.3,5.46,3.81a4.32,4.32,0,0,1,.06-.47l-.11,0c0,.08,0,.15-.06.13a.86.86,0,0,0,0-.15c-1.94-.52-3.92-1.55-4.69-3a22.94,22.94,0,0,0,5.07,1.77c0-.07,0-.13.11-.1s0-.06,0-.08H74a1.4,1.4,0,0,1,0-.34A26.24,26.24,0,0,1,69,29.27c.19-1,1.27-1.17,2.42-1.09a17,17,0,0,1,3.93.82c1,.38,2.12,1,2.13,1.54a.52.52,0,0,1-.47.51c.1.19.33.15.65,0a.89.89,0,0,0,.5-1.25C77.23,28.09,74,27.17,72,27.1a6.77,6.77,0,0,0-2,.23,2.23,2.23,0,0,0-1.54,1.27l-.08.33c-1.24-.78-2.55-1.72-2.71-2.87a1.43,1.43,0,0,1,.81-1.41s.59.3,2.09.88a47.23,47.23,0,0,0,6.12,1.83l.09-.64-.41-.09a33.72,33.72,0,0,1-7.11-2.28c.1,0,.49-.13.74-.17a16.61,16.61,0,0,1,6.87.53,22.56,22.56,0,0,1,6.58,2.89,20.39,20.39,0,0,1-4.3-.39,2.31,2.31,0,0,0-.14.32c-.09-.09.13-.32-.12-.21-.09.08-.14.19,0,.24s.06.18.22.26a27.66,27.66,0,0,0,5,.4,3.93,3.93,0,0,1,1.23,2.63,15.28,15.28,0,0,1-7.74.5h0a.56.56,0,0,1,0,.08c0,.15,0,.25-.07.42l.39.06a15.89,15.89,0,0,0,7.08-.31c-1.71,1.83-5.26,1.87-7.37,1.62-.23,0-.47-.06-.71-.1,0,.16-.09.31-.13.44.44.08.85.14,1.21.18,1.84.18,6.41.13,8.17-2.64,1.7-.67,3.81-1.71,4-3.82a5.64,5.64,0,0,0,3-3.08,4.29,4.29,0,0,0-.75-3.41,3.75,3.75,0,0,0,1.33-1.84M77.9,7.7c4.27.12,8.77,2.22,9.48,5.38a28.81,28.81,0,0,0-12.47-4c-.21,0-.4,0-.58,0C75,7.86,77.2,7.71,77.9,7.7ZM67.43,12c.49-1.17,3.26-1.51,4.39-1.57.51,0,1.63,0,1.63,0a4.47,4.47,0,0,0,.27.47,7.34,7.34,0,0,0,4.52,2.35c.06-.08.2-.13.17-.25C77,12.69,75,12,74.25,10.53A27.84,27.84,0,0,1,87,14.6a4.81,4.81,0,0,1-2.4,1.9,39.38,39.38,0,0,0-8.08-2.87,25,25,0,0,0-8.87-.35l-.24,0A1.39,1.39,0,0,1,67.43,12Zm-3,4.74a1.74,1.74,0,0,1,1.25-1.67,5.31,5.31,0,0,1,2-.5,9.42,9.42,0,0,0,1.25,1,21.08,21.08,0,0,0,7.77,2.5c0-.05,0-.11.08-.21s-.11-.08-.07-.1a.85.85,0,0,0,.09-.23c-.88-.12-1.87-.31-3-.57a16.56,16.56,0,0,1-5.36-2.47c4.83-.58,9.46.73,13.65,2.41l.73.36a10.74,10.74,0,0,1-3,.47.21.21,0,0,0,0,.13c.12.24.45-.14.14.19-.15-.21-.26.11-.29.1s0,.06,0,.1h.1c0-.05.06-.07.14,0h0a13.38,13.38,0,0,0,3.64-.65s1.84,1,2.56,1.44a13.55,13.55,0,0,1,2.65,2,12.6,12.6,0,0,1-3.64,1.32C82,20,77.4,18.85,74.83,18.28a20.89,20.89,0,0,0-9.24.08A2.56,2.56,0,0,1,64.42,16.78ZM83,27.56a20,20,0,0,0-9.09-4.38c-3.22-.57-5.86-.51-7.74.59-1-.63-2.43-1.63-2.17-2.91.53-1.23,2.3-1.33,2.3-1.33A26.74,26.74,0,0,0,75,22.65l.5.1c0-.07,0-.12.1-.05.18-.11,0-.29,0-.29s0,0,.09-.15A35.73,35.73,0,0,1,67,19.36a21.2,21.2,0,0,1,8.68.51,28.07,28.07,0,0,1,7.48,2.9,29.68,29.68,0,0,1-4.82-.1.2.2,0,0,0,0,.15.33.33,0,0,1-.18,0c0,.31,0,.44,0,.33a24.17,24.17,0,0,0,5.8,0c1.26.79,3,2.11,3.18,3.69A18.45,18.45,0,0,1,83,27.56Zm3.74,1.21a5.79,5.79,0,0,1-2.59,1.74,3.3,3.3,0,0,0-.63-2.4,19.89,19.89,0,0,0,3.67-.63A2.79,2.79,0,0,1,86.74,28.77Zm3.35-4.16a4.21,4.21,0,0,1-2.16,2,6.31,6.31,0,0,0-2.15-3.75,13,13,0,0,0,3.36-1.27C89.85,22.39,90.61,23.47,90.09,24.61Zm-.22-4.3a16.68,16.68,0,0,0-4.58-3.45A7,7,0,0,0,87.65,15c1,.65,2.88,1.85,3.08,3.41A2.09,2.09,0,0,1,89.87,20.31Z" transform="translate(-2 -2.23)"/><path class="cls-3" d="M74.53,33.07,74.16,33a.53.53,0,0,1-.22.15c0,.12.13.21.17.31l.37.08a.68.68,0,0,0,0-.14.32.32,0,0,1,0-.32" transform="translate(-2 -2.23)"/><path class="cls-3" d="M74.5,33.53l.08,0c0-.09,0-.08-.08,0" transform="translate(-2 -2.23)"/><path class="cls-4" d="M74.59,33.35c0,.07,0,0,0,0" transform="translate(-2 -2.23)"/><path class="cls-2" d="M89.56,54.67c0,.3,0,.73,0,1,0,0-.13,0-.18,0a1.72,1.72,0,0,1-.29-.05s0-.68,0-1c-.09-2.65-.41-3.07-1.85-3.28-.19,0-.17-.2,0-.19.75.07,1.44.13,2.1.13s1.28-.06,2-.13c.14,0,.15.16,0,.19-1.41.21-1.85,1.06-1.84,3.33m-5.5,10.12c-3.78,0-5.27-2.26-5.38-4.57-.08-1.73-.08-3-.07-4.75,0-3.8,0-3.95-1.15-4.13-.2,0-.15-.2,0-.19a14.23,14.23,0,0,0,1.89.14,15.76,15.76,0,0,0,2.4-.14c.16,0,.21.16,0,.19-1.38.3-1.6.35-1.69,4.12-.05,2,0,3.3,0,4.33.1,2.26,1.18,4.56,4.42,4.56a4.81,4.81,0,0,0,4.51-5.09c0-2.15,0-2.47,0-3.63,0-.09.38-.07.47-.07v3.73A5.16,5.16,0,0,1,84.06,64.79Z" transform="translate(-2 -2.23)"/><path class="cls-2" d="M154.63,63.27a1.24,1.24,0,0,0-2.48,0,1.24,1.24,0,1,0,2.48,0Zm-1.24,1.11a1.11,1.11,0,1,1,1.11-1.11A1.11,1.11,0,0,1,153.39,64.38Z" transform="translate(-2 -2.23)"/><path class="cls-2" d="M153.54,63.35a.41.41,0,0,0,.38-.39c0-.26-.14-.43-.49-.43h-.5V64h.17v-.63h.25l.39.63H154l-.42-.64m-.45-.16v-.5h.31c.17,0,.34,0,.35.25s-.19.25-.37.25Z" transform="translate(-2 -2.23)"/></svg>