<svg id="Layer_1" data-name="Layer 1" xmlns="http://www.w3.org/2000/svg" viewBox="0 0 289 148"><defs><style>.cls-1{fill:#c37b2a;}.cls-2{fill:#fff;}.cls-3{fill:#231f20;}</style></defs><title>French Creek Sportsmens Club-Logo-01</title><path class="cls-1" d="M42.06,147.17l.51-1a6,6,0,0,0,4,1.49c2.29,0,3.29-1,3.29-2.17,0-3.36-7.55-1.3-7.55-5.84,0-1.8,1.4-3.36,4.52-3.36a6.87,6.87,0,0,1,3.8,1.09l-.44,1a6.35,6.35,0,0,0-3.36-1c-2.24,0-3.24,1-3.24,2.23,0,3.36,7.55,1.33,7.55,5.8,0,1.8-1.44,3.35-4.57,3.35A6.64,6.64,0,0,1,42.06,147.17Z" transform="translate(-2 -0.77)"/><path class="cls-1" d="M65.36,140.6c0,2.61-1.89,4.19-5,4.19H57.06v3.87h-1.3V136.39h4.59C63.47,136.39,65.36,138,65.36,140.6Zm-1.29,0c0-2-1.3-3.08-3.75-3.08H57.06v6.13h3.26C62.77,143.65,64.07,142.53,64.07,140.6Z" transform="translate(-2 -0.77)"/><path class="cls-1" d="M69,142.53a6.44,6.44,0,1,1,6.44,6.24A6.17,6.17,0,0,1,69,142.53Zm11.58,0a5.16,5.16,0,1,0-5.14,5.08A5,5,0,0,0,80.59,142.53Z" transform="translate(-2 -0.77)"/><path class="cls-1" d="M94.92,148.66l-2.8-3.94c-.32,0-.63.05-1,.05h-3.3v3.89h-1.3V136.39h4.6c3.11,0,5,1.58,5,4.21a3.81,3.81,0,0,1-2.81,3.86l3,4.2Zm-.07-8.06c0-2-1.3-3.08-3.75-3.08H87.84v6.15H91.1C93.55,143.67,94.85,142.53,94.85,140.6Z" transform="translate(-2 -0.77)"/><path class="cls-1" d="M103.17,137.52H98.86v-1.13h9.92v1.13h-4.31v11.14h-1.3Z" transform="translate(-2 -0.77)"/><path class="cls-1" d="M111.23,147.17l.51-1a6,6,0,0,0,4.05,1.49c2.29,0,3.29-1,3.29-2.17,0-3.36-7.55-1.3-7.55-5.84,0-1.8,1.4-3.36,4.52-3.36a6.87,6.87,0,0,1,3.8,1.09l-.44,1a6.32,6.32,0,0,0-3.36-1c-2.24,0-3.24,1-3.24,2.23,0,3.36,7.55,1.33,7.55,5.8,0,1.8-1.44,3.35-4.57,3.35A6.64,6.64,0,0,1,111.23,147.17Z" transform="translate(-2 -0.77)"/><path class="cls-1" d="M137.67,136.39v12.27h-1.24v-9.81l-4.82,8.25H131l-4.82-8.2v9.76h-1.25V136.39H126l5.33,9.1,5.27-9.1Z" transform="translate(-2 -0.77)"/><path class="cls-1" d="M152.09,147.54v1.12h-8.67V136.39h8.41v1.13h-7.12v4.36h6.35V143h-6.35v4.56Z" transform="translate(-2 -0.77)"/><path class="cls-1" d="M167.14,136.39v12.27h-1.07l-7.88-9.95v9.95h-1.3V136.39H158l7.9,10v-10Z" transform="translate(-2 -0.77)"/><path class="cls-1" d="M173.69,136.52a3.09,3.09,0,0,1-.23,1l-.75,2.42h-.84l.61-2.53a.9.9,0,0,1-.65-.89.93.93,0,1,1,1.86,0Z" transform="translate(-2 -0.77)"/><path class="cls-1" d="M177.35,147.17l.51-1a6,6,0,0,0,4,1.49c2.29,0,3.29-1,3.29-2.17,0-3.36-7.55-1.3-7.55-5.84,0-1.8,1.4-3.36,4.52-3.36a6.85,6.85,0,0,1,3.8,1.09l-.43,1a6.36,6.36,0,0,0-3.37-1c-2.24,0-3.24,1-3.24,2.23,0,3.36,7.55,1.33,7.55,5.8,0,1.8-1.43,3.35-4.57,3.35A6.64,6.64,0,0,1,177.35,147.17Z" transform="translate(-2 -0.77)"/><path class="cls-1" d="M196.31,142.53a6.16,6.16,0,0,1,6.43-6.24,5.92,5.92,0,0,1,4.49,1.79l-.83.82a4.85,4.85,0,0,0-3.62-1.45,5.08,5.08,0,1,0,0,10.16,4.8,4.8,0,0,0,3.62-1.47l.83.82a6,6,0,0,1-4.51,1.81A6.15,6.15,0,0,1,196.31,142.53Z" transform="translate(-2 -0.77)"/><path class="cls-1" d="M211.75,136.39H213v11.15h6.87v1.12h-8.16Z" transform="translate(-2 -0.77)"/><path class="cls-1" d="M223.48,143.42v-7h1.3v7c0,2.91,1.37,4.24,3.75,4.24s3.77-1.33,3.77-4.24v-7h1.26v7c0,3.52-1.89,5.35-5,5.35S223.48,146.94,223.48,143.42Z" transform="translate(-2 -0.77)"/><path class="cls-1" d="M249.47,145.38c0,2.09-1.54,3.28-4.61,3.28h-5.64V136.39h5.29c2.73,0,4.31,1.16,4.31,3.16a2.86,2.86,0,0,1-1.87,2.79A2.93,2.93,0,0,1,249.47,145.38Zm-8.95-7.92v4.46h3.9c2,0,3.1-.76,3.1-2.23s-1.13-2.23-3.1-2.23Zm7.65,7.82c0-1.59-1.17-2.3-3.33-2.3h-4.32v4.61h4.32C247,147.59,248.17,146.89,248.17,145.28Z" transform="translate(-2 -0.77)"/><rect class="cls-1" x="113.32" width="64.24" height="63.87"/><rect class="cls-1" x="118.4" y="6.16" width="54.08" height="51.79"/><path class="cls-2" d="M176.09,60.33H118.8v-55h57.29ZM122,57.1h50.87V8.54H122Z" transform="translate(-2 -0.77)"/><path class="cls-2" d="M135.32,34.45v17.6h3.8V32.88c-.78.3-2.18.92-2.18.92Z" transform="translate(-2 -0.77)"/><path class="cls-2" d="M140.31,26c-.38.14-.87.28-1.24.42V17.58h24.8a3.82,3.82,0,0,0,3.93-3.81H127.08A3.82,3.82,0,0,0,131,17.58h4.26V27.91l-8.19,3,1.47,3.47s5.06-1.88,7.12-2.7l1.86-.75,2.9-1.15c3.92-1.52,8.16-2.89,12.51-2.86a16.17,16.17,0,0,1,11.46,4.4l2.72-3A21.84,21.84,0,0,0,153,23.43,37.32,37.32,0,0,0,140.31,26Z" transform="translate(-2 -0.77)"/><path class="cls-2" d="M155.9,47.91a9.44,9.44,0,0,1-9.56-9.48,9.67,9.67,0,0,1,7.17-9.12.08.08,0,0,0,0-.16,25.18,25.18,0,0,0-9,1.83.75.75,0,0,0-.39.29,11.64,11.64,0,0,0-2.08,7.15A13.6,13.6,0,0,0,156,52.09a15.17,15.17,0,0,0,10.36-4.42l-2.75-2.79A11.46,11.46,0,0,1,155.9,47.91Z" transform="translate(-2 -0.77)"/><path class="cls-3" d="M122.53,116.34a2,2,0,0,1,1.08-.24,4.28,4.28,0,0,1,1.14.24,5.49,5.49,0,0,1,.94.46,1.51,1.51,0,0,1,.48.42c-.56.38-1.15.74-1.76,1.09a16.07,16.07,0,0,1-2,.92,16.62,16.62,0,0,1-2.28.66,14.13,14.13,0,0,1-8.26-.88,14.26,14.26,0,0,1-4.51-3.11,14.51,14.51,0,0,1-3-4.52,13.8,13.8,0,0,1,0-10.8,14.67,14.67,0,0,1,3-4.53,14.39,14.39,0,0,1,4.51-3.1,14.13,14.13,0,0,1,8.26-.88,16.62,16.62,0,0,1,2.28.66,13.63,13.63,0,0,1,2,.94l1.76,1.06a1.3,1.3,0,0,1-.48.42,4.33,4.33,0,0,1-.94.46,3.62,3.62,0,0,1-1.14.24,1.63,1.63,0,0,1-1.08-.28,11,11,0,0,0-1.28-.68,5.15,5.15,0,0,0-1.14-.34,11.61,11.61,0,0,0-1.2-.12l-1.46,0a11.15,11.15,0,0,0-4.48.92,12.43,12.43,0,0,0-3.73,2.49,11.72,11.72,0,0,0-2.52,3.66,11.42,11.42,0,0,0,0,9,11.79,11.79,0,0,0,2.52,3.7,11.92,11.92,0,0,0,3.73,2.5,11,11,0,0,0,4.48.92c.56,0,1,0,1.46,0a6.79,6.79,0,0,0,1.2-.14,5.8,5.8,0,0,0,1.14-.36A8.36,8.36,0,0,0,122.53,116.34Z" transform="translate(-2 -0.77)"/><path class="cls-3" d="M189.62,116.34a2,2,0,0,1,1.08-.24,4.28,4.28,0,0,1,1.14.24,5.49,5.49,0,0,1,.94.46,1.65,1.65,0,0,1,.48.42c-.56.38-1.15.74-1.76,1.09a16.8,16.8,0,0,1-2,.92,17,17,0,0,1-2.28.66A14.17,14.17,0,0,1,179,119a14.33,14.33,0,0,1-4.5-3.11,14.51,14.51,0,0,1-3-4.52,13.8,13.8,0,0,1,0-10.8,14.67,14.67,0,0,1,3-4.53A14.46,14.46,0,0,1,179,93a14.17,14.17,0,0,1,8.27-.88,17,17,0,0,1,2.28.66,14.16,14.16,0,0,1,2,.94l1.76,1.06a1.4,1.4,0,0,1-.48.42,4.33,4.33,0,0,1-.94.46,3.62,3.62,0,0,1-1.14.24,1.63,1.63,0,0,1-1.08-.28,11,11,0,0,0-1.28-.68,5.48,5.48,0,0,0-1.14-.34,11.61,11.61,0,0,0-1.2-.12l-1.47,0a11.23,11.23,0,0,0-4.48.92,12.51,12.51,0,0,0-3.72,2.49,11.4,11.4,0,0,0-2.52,3.66,11.42,11.42,0,0,0,0,9,11.46,11.46,0,0,0,2.52,3.7,12,12,0,0,0,3.72,2.5,11.06,11.06,0,0,0,4.48.92c.56,0,1.05,0,1.47,0a6.79,6.79,0,0,0,1.2-.14,6.26,6.26,0,0,0,1.14-.36A8.36,8.36,0,0,0,189.62,116.34Z" transform="translate(-2 -0.77)"/><path class="cls-3" d="M263.78,117.51H250.41c-.26,0-.48-.11-.5-.31s0-.27,0-.49l0-9h11.48a2.69,2.69,0,0,0,1.42-.32,2,2,0,0,0,.72-.76,2.42,2.42,0,0,0,.26-.86,6.14,6.14,0,0,0,0-.62h-13.9V95.41c0-.13,0-.3,0-.5s.19-.3.48-.3h13.37a2.56,2.56,0,0,0,2.56-2.56H246.2v1.32a1.27,1.27,0,0,0,.18.6,1,1,0,0,0,.28.3,1.21,1.21,0,0,0,.35.21l.12.12,0,0a.93.93,0,0,0,0,.1.65.65,0,0,1,0,.24l0,4V117.1a.52.52,0,0,1-.16.4,1.35,1.35,0,0,1-.12.12,1.25,1.25,0,0,0-.76,1.17v1.28h20.09A2.55,2.55,0,0,0,263.78,117.51Z" transform="translate(-2 -0.77)"/><path class="cls-3" d="M240.62,117.51H227.25c-.27,0-.48-.11-.5-.31a3.62,3.62,0,0,1,0-.49l0-9h11.48a2.67,2.67,0,0,0,1.42-.32,1.86,1.86,0,0,0,.72-.76,2.23,2.23,0,0,0,.26-.86,6.14,6.14,0,0,0,0-.62H226.73V95.41a3.41,3.41,0,0,1,0-.5q0-.3.48-.3h13.37a2.56,2.56,0,0,0,2.56-2.56H223v1.32a1.27,1.27,0,0,0,.18.6,1.13,1.13,0,0,0,.28.3,1.36,1.36,0,0,0,.35.21l.12.12,0,0a.93.93,0,0,1,.05.1.49.49,0,0,1,0,.24l.05,4V117.1a.52.52,0,0,1-.16.4,1.35,1.35,0,0,1-.12.12,1.27,1.27,0,0,0-.76,1.17v1.28h20.1A2.56,2.56,0,0,0,240.62,117.51Z" transform="translate(-2 -0.77)"/><path class="cls-3" d="M71.46,117.51H58.09c-.27,0-.48-.11-.5-.31a3.62,3.62,0,0,1,0-.49l0-9H69a2.64,2.64,0,0,0,1.42-.32,1.86,1.86,0,0,0,.72-.76,2.23,2.23,0,0,0,.26-.86,6.14,6.14,0,0,0,0-.62H57.57V95.41a3.41,3.41,0,0,1,0-.5q0-.3.48-.3H71.46A2.56,2.56,0,0,0,74,92.06H53.87v1.32a1.27,1.27,0,0,0,.18.6,1.13,1.13,0,0,0,.28.3,1.26,1.26,0,0,0,.36.21l.12.12a0,0,0,0,0,0,0,.93.93,0,0,1,0,.1.49.49,0,0,1,0,.24l.06,4V117.1a.56.56,0,0,1-.16.4l-.12.12a1.25,1.25,0,0,0-.76,1.17v1.28H74A2.56,2.56,0,0,0,71.46,117.51Z" transform="translate(-2 -0.77)"/><path class="cls-3" d="M270.37,94.59a.22.22,0,0,0,0,.1.51.51,0,0,1,0,.24l.08,22.13a.65.65,0,0,1,0,.24c0,.06-.06.11-.08.16l-.12.12a1.08,1.08,0,0,0-.62.49,1.21,1.21,0,0,0-.18.6V120h3.6V111.5a2.45,2.45,0,0,1,0-.36,1,1,0,0,1,.22-.28l16-16.57c-.19-.21-.4-.46-.62-.74l-.68-.82c-.23-.26-.43-.51-.6-.74s-.3-.39-.38-.5c-.22.22-.4.4-.56.54l-.44.42a1.18,1.18,0,0,0-.32.72.79.79,0,0,0,.08.4.86.86,0,0,1,.08.36.5.5,0,0,1-.16.36l-5,5.33q-2,2.16-3.38,3.54c-.89.92-1.58,1.63-2.06,2.14l-1.06,1.12q-.35.36-.42.42a.22.22,0,0,1-.12.06.47.47,0,0,1-.46,0,.35.35,0,0,1-.22-.4l-.16-11.92" transform="translate(-2 -0.77)"/><path class="cls-3" d="M291,118.91a1.6,1.6,0,0,0-.18-.85,1.06,1.06,0,0,0-1-.48.68.68,0,0,1-.68-.36l-3-3.76q-.56-.72-1.14-1.44c-.38-.48-2.45-3.23-2.8-3.68l-1-1.26c-.31-.39-.49-.67-.74-1a2.74,2.74,0,0,0-1.55-1,2.61,2.61,0,0,0-2.13.53L287.4,120H291Z" transform="translate(-2 -0.77)"/><path class="cls-3" d="M270.59,117.27,270.37,95a.7.7,0,0,0,0-.24l-.09-.16-.11-.12a1.14,1.14,0,0,1-.63-.48,1.27,1.27,0,0,1-.18-.6V92.1h3.61l-.13,15.28" transform="translate(-2 -0.77)"/><path class="cls-3" d="M137.84,105h10a.76.76,0,0,0,.56-.26.85.85,0,0,0,.24-.58V91.9h3.6v1.28a1.2,1.2,0,0,1-.76,1.16.83.83,0,0,0-.16.12.55.55,0,0,0-.12.4V117a.55.55,0,0,0,.12.4.42.42,0,0,0,.16.12,1,1,0,0,1,.56.44,1.39,1.39,0,0,1,.2.72V120h-3.6v-11.6a.76.76,0,0,0-.24-.56.77.77,0,0,0-.56-.24H135.16" transform="translate(-2 -0.77)"/><path class="cls-3" d="M146.37,107.55H133.66a.82.82,0,0,0-.8.8V120h-3.61v-1.28a1.39,1.39,0,0,1,.2-.72,1.06,1.06,0,0,1,.56-.44.36.36,0,0,0,.16-.12.51.51,0,0,0,.12-.4V94.86a.51.51,0,0,0-.12-.4.61.61,0,0,0-.16-.12,1.22,1.22,0,0,1-.76-1.16V91.9h3.61v12.29a.85.85,0,0,0,.24.58.74.74,0,0,0,.56.26h10" transform="translate(-2 -0.77)"/><path class="cls-3" d="M79.91,91.9c2.18,2.88,4.84,6.92,6.68,9.32l2.32,3c.78,1,1.49,1.95,2.14,2.8s5.75,7.54,6.23,8.16l1,1.28a2.15,2.15,0,0,1,.5,1.34,3.14,3.14,0,0,1-.26,1.18c-.19.4-1,.47-1.4.85l-16-21.49c-.11-.14-.22-.18-.34-.14a.24.24,0,0,0-.18.26l.08,21.57h-3.6v-1.28a1.2,1.2,0,0,1,.2-.68,1.22,1.22,0,0,1,.56-.49l.12-.12a.56.56,0,0,0,.16-.4" transform="translate(-2 -0.77)"/><path class="cls-3" d="M78,117.65V94.86a.55.55,0,0,0-.12-.4l-.16-.12A1.21,1.21,0,0,1,77,93.18V91.9h2.92l.69,8.45" transform="translate(-2 -0.77)"/><path class="cls-3" d="M97.91,115.76l-.59,0-.6-.38V91.7h3.6V93a1.27,1.27,0,0,1-.76,1.16l-.12.12a.52.52,0,0,0-.16.4m-1.8,25.2" transform="translate(-2 -0.77)"/><path class="cls-3" d="M99,94.12v22.79a.55.55,0,0,0,.12.4.83.83,0,0,0,.16.12,1.2,1.2,0,0,1,.76,1.16v1.28H97.12L97,111.42" transform="translate(-2 -0.77)"/><path class="cls-3" d="M28.4,114.7l-.22,2.45a.55.55,0,0,1,0,.24s-.05.1-.08.16l-.12.12a1.06,1.06,0,0,0-.62.48,1.21,1.21,0,0,0-.18.6v1.32h3.61l-.13-8.36" transform="translate(-2 -0.77)"/><path class="cls-3" d="M27.82,118a2.76,2.76,0,0,0,.44-.94l-.1-22a.65.65,0,0,0-.16-.48c-.05,0-.09-.08-.12-.08a1.18,1.18,0,0,1-.72-1.12V92.05l12,0a7.7,7.7,0,0,1,3.12.64A8,8,0,0,1,46.49,97a7.9,7.9,0,0,1,.6,3.08,8.44,8.44,0,0,1-.44,2.52,8.53,8.53,0,0,1-1.92,3,7.05,7.05,0,0,1-3,1.88.56.56,0,0,0-.2.12.28.28,0,0,0,0,.32l-2.64.4-.2-.28a.51.51,0,0,0-.44-.16H32.77a3.69,3.69,0,0,1,.82-1.88,2.19,2.19,0,0,1,1.94-.72h3.64a4.55,4.55,0,0,0,2-.38,5.43,5.43,0,0,0,1.68-1.14A5.58,5.58,0,0,0,44,102.08a4.91,4.91,0,0,0,.42-2,5.38,5.38,0,0,0-.4-2.12,6,6,0,0,0-2-2.37,4.68,4.68,0,0,0-2.92-.92H31.25c-.25,0-.39.09-.42.26a1.66,1.66,0,0,0-.06.46l-.13,21.89" transform="translate(-2 -0.77)"/><path class="cls-3" d="M50.88,119a1.64,1.64,0,0,0-.18-.86,1.08,1.08,0,0,0-1-.48.69.69,0,0,1-.68-.35l-3-3.76q-.55-.72-1.14-1.44l-1.1-1.4c-.35-.46-.67-.88-1-1.26s-1.61-1.8-1.87-2.11a2.74,2.74,0,0,0-1.55-1,2.62,2.62,0,0,0-2.13.53l10,13.2h3.6Z" transform="translate(-2 -0.77)"/><path class="cls-3" d="M197.56,114.7l-.21,2.45a.55.55,0,0,1,0,.24l-.08.16-.12.12a1.06,1.06,0,0,0-.62.48,1.21,1.21,0,0,0-.18.6v1.32h3.6l-.12-8.36" transform="translate(-2 -0.77)"/><path class="cls-3" d="M197,118a3,3,0,0,0,.44-.94l-.1-22a.65.65,0,0,0-.16-.48s-.09-.08-.12-.08a1.18,1.18,0,0,1-.72-1.12V92.05l12,0a7.7,7.7,0,0,1,3.12.64,8.08,8.08,0,0,1,4.2,4.25,7.9,7.9,0,0,1,.6,3.08,8.76,8.76,0,0,1-.44,2.52,8.53,8.53,0,0,1-1.92,3,7.05,7.05,0,0,1-3,1.88.56.56,0,0,0-.2.12.27.27,0,0,0,0,.32l-2.64.4-.2-.28a.51.51,0,0,0-.44-.16h-5.45a3.78,3.78,0,0,1,.82-1.88,2.2,2.2,0,0,1,1.94-.72h3.65a4.55,4.55,0,0,0,2-.38,5.43,5.43,0,0,0,1.68-1.14,5.58,5.58,0,0,0,1.14-1.66,4.91,4.91,0,0,0,.42-2,5.56,5.56,0,0,0-.4-2.12,6,6,0,0,0-2-2.37,4.7,4.7,0,0,0-2.92-.92h-7.93c-.24,0-.38.09-.42.26a2.15,2.15,0,0,0-.06.46l-.12,21.89" transform="translate(-2 -0.77)"/><path class="cls-3" d="M220.05,119a1.64,1.64,0,0,0-.18-.86,1.09,1.09,0,0,0-1-.48.71.71,0,0,1-.69-.35l-3-3.76q-.56-.72-1.14-1.44c-.39-.48-.75-.95-1.1-1.4s-.67-.88-1-1.26-1.62-1.8-1.87-2.11a2.74,2.74,0,0,0-1.55-1,2.61,2.61,0,0,0-2.13.53l10,13.2h3.6Z" transform="translate(-2 -0.77)"/><path class="cls-3" d="M5.89,120.2V94.93a.54.54,0,0,0-.16-.4l-.12-.12H4.26a2.43,2.43,0,0,1-2.15-2.27V92H24.22a2.55,2.55,0,0,1-2.56,2.56H9.05c-.26,0-.42.08-.46.24a2.34,2.34,0,0,0-.06.56V120.2M2,105.14H20.15a6.14,6.14,0,0,1,0,.62,2.42,2.42,0,0,1-.26.86,2,2,0,0,1-.72.76,2.69,2.69,0,0,1-1.42.32H4.56A2.56,2.56,0,0,1,2,105.14Z" transform="translate(-2 -0.77)"/><path class="cls-3" d="M6.17,114.82,6,117.26a.49.49,0,0,1,0,.24c0,.06,0,.11-.08.16l-.12.12a1.15,1.15,0,0,0-.62.48,1.27,1.27,0,0,0-.18.6v1.34h3.6l-.13-8.37" transform="translate(-2 -0.77)"/></svg>