<svg id="Layer_1" data-name="Layer 1" xmlns="http://www.w3.org/2000/svg" viewBox="0 0 257.76 147.11"><defs><style>.cls-1{fill:#512c1d;}.cls-2{fill:#fff;}</style></defs><title>Lodge-Spa-Logo-01</title><path class="cls-1" d="M131.24,1.89a31.84,31.84,0,1,0,32.07,31.84A32,32,0,0,0,131.24,1.89Z" transform="translate(-0.5 -1.89)"/><path class="cls-2" d="M131.24,5.75a28,28,0,1,0,28.18,28A28.12,28.12,0,0,0,131.24,5.75Zm0,52.94a25.45,25.45,0,0,1-13.8-4.06V47.2l23.91,0,5.33,6.24A25,25,0,0,1,131.24,58.69Zm7.17-22.14a9.28,9.28,0,0,1-6.87,2.74c-4.57,0-8.29-2.79-8.29-6.22s3.72-6.21,8.29-6.21a9.73,9.73,0,0,1,6.61,2.44h3.94c-1.93-3.05-6.07-5-10.55-5-5.73,0-10.57,3.09-11.43,7.28h-2.67V21.93h24.79c3,0,5.25,2,5.25,4.82a4.94,4.94,0,0,1-5.25,4.81l-15.8,0a2.55,2.55,0,0,0-.48,1.47,2.35,2.35,0,0,0,.53,1.49h15.75c3,0,5.25,2,5.25,4.82a4.94,4.94,0,0,1-5.25,4.81H117.44V34.56L120,34.5c.92,4.27,5.76,7.37,11.51,7.37,4.68,0,8.89-2.09,10.74-5.32ZM149,51.44l-4-4.65a7.72,7.72,0,0,0,2.24-13.72,7.58,7.58,0,0,0,3.29-6.32c0-4.46-3.55-7.82-8.27-7.82H114.32V52.16A25.13,25.13,0,1,1,149,51.44Z" transform="translate(-0.5 -1.89)"/><path d="M26.77,114.24a.44.44,0,0,1,.33.13c.21.08.29.12.29.16,0,.33-.13.7-.21,1.19s-.16.9-.24,1.4-.17.9-.25,1.39-.17.87-.25,1.24a1.08,1.08,0,0,1-.08.49H7.63v-.53H8a1.72,1.72,0,0,0,1.44-1,4.39,4.39,0,0,0,.65-2.42V97.07a4.07,4.07,0,0,0-.61-2.38,1.73,1.73,0,0,0-1.48-1H7.63v-.53h9v.53h-.37a1.69,1.69,0,0,0-1.43,1,4.27,4.27,0,0,0-.66,2.26v22.38H20.2a4.83,4.83,0,0,0,1.85-.33,8.79,8.79,0,0,0,1.8-.94,9.25,9.25,0,0,0,1.52-1.31A5.41,5.41,0,0,0,26.44,115Z" transform="translate(-0.5 -1.89)"/><path d="M29.67,106.68a13.41,13.41,0,0,1,1-5,14.28,14.28,0,0,1,2.76-4.39,15.08,15.08,0,0,1,4.31-3.17,12.42,12.42,0,0,1,5.5-1.23,12,12,0,0,1,5.47,1.19,14.34,14.34,0,0,1,7.06,7.6,13,13,0,0,1,0,9.94,13.48,13.48,0,0,1-2.75,4.4,13.85,13.85,0,0,1-4.27,3.16,12.19,12.19,0,0,1-5.51,1.23,12.39,12.39,0,0,1-5.5-1.19,14.87,14.87,0,0,1-4.27-3.16,14.7,14.7,0,0,1-2.8-4.44A13.49,13.49,0,0,1,29.67,106.68Zm13.55,12.78a6.43,6.43,0,0,0,3.7-1.11,11.13,11.13,0,0,0,2.88-3,13.87,13.87,0,0,0,1.89-4.06,16.62,16.62,0,0,0,.65-4.65,16,16,0,0,0-.65-4.6A13.3,13.3,0,0,0,49.84,98,9.75,9.75,0,0,0,47,95.06a6.3,6.3,0,0,0-3.74-1.15A6.48,6.48,0,0,0,39.48,95a10.5,10.5,0,0,0-2.87,3A13.86,13.86,0,0,0,34.72,102a16.5,16.5,0,0,0,0,9.24,14.92,14.92,0,0,0,1.85,4.11,11.7,11.7,0,0,0,2.91,2.92A6.83,6.83,0,0,0,43.22,119.46Z" transform="translate(-0.5 -1.89)"/><path d="M59,93.66v-.53H70a14,14,0,0,1,5.54,1.06,15.21,15.21,0,0,1,4.6,3,14.12,14.12,0,0,1,3.13,4.32,11.44,11.44,0,0,1,1.19,5.21,12.58,12.58,0,0,1-1,5.22,14.08,14.08,0,0,1-2.83,4.31,13.26,13.26,0,0,1-4.11,2.92,11.43,11.43,0,0,1-5,1.11H59v-.53h.37a1.7,1.7,0,0,0,1.44-1,4.39,4.39,0,0,0,.65-2.42V97.07a4.07,4.07,0,0,0-.61-2.38,1.72,1.72,0,0,0-1.48-1Zm6.49,25.55h6a6.4,6.4,0,0,0,3.41-1,9.74,9.74,0,0,0,2.83-2.72,14.17,14.17,0,0,0,1.93-4,16,16,0,0,0,.74-4.85,13.38,13.38,0,0,0-.82-4.8,12.64,12.64,0,0,0-2.26-4A10,10,0,0,0,74,95.18a8.24,8.24,0,0,0-4-1H65.53Z" transform="translate(-0.5 -1.89)"/><path d="M113.21,107.5V108h-.41a1.72,1.72,0,0,0-1.44,1,4.56,4.56,0,0,0-.66,2.43V118a13.59,13.59,0,0,1-2.09.94c-.83.29-1.69.54-2.63.79s-1.81.36-2.8.53a21,21,0,0,1-2.63.2,13.39,13.39,0,0,1-5.3-1.1,15,15,0,0,1-4.43-3,15.53,15.53,0,0,1-3-4.4,13,13,0,0,1-1.11-5.3,12.78,12.78,0,0,1,1.11-5.3A14.5,14.5,0,0,1,95.21,94a13.42,13.42,0,0,1,5.34-1.11,12.88,12.88,0,0,1,2.47.17,19.36,19.36,0,0,1,2.75.53,17.28,17.28,0,0,1,2.59.74,13.43,13.43,0,0,1,2.09.94v5.06H110a2.72,2.72,0,0,0-.2-.62c-.09-.25-.17-.45-.25-.62a5,5,0,0,0-1-1.72,8.34,8.34,0,0,0-1.68-1.56,10.72,10.72,0,0,0-2.1-1.15,7.34,7.34,0,0,0-2.21-.62v0a16.44,16.44,0,0,0-2-.12,7,7,0,0,0-3.61,1,10,10,0,0,0-3,2.76,14.46,14.46,0,0,0-2,4.06,16.35,16.35,0,0,0,0,9.82,15.4,15.4,0,0,0,2.06,4.07,11.43,11.43,0,0,0,3,2.79,7.27,7.27,0,0,0,3.61,1,17.79,17.79,0,0,0,3.21-.29,33.81,33.81,0,0,0,3.33-.82v-6.9a4.34,4.34,0,0,0-.62-2.38,1.72,1.72,0,0,0-1.48-1h-.37v-.54h8.59Z" transform="translate(-0.5 -1.89)"/><path d="M131.46,109.52H131l-.13-.45a1.69,1.69,0,0,0-.57-.91,3.62,3.62,0,0,0-1.19-.78,6.42,6.42,0,0,0-1.61-.49,6.07,6.07,0,0,0-1.76-.21H122v12.57h5.67a7.21,7.21,0,0,0,2-.28,12.31,12.31,0,0,0,2-.87,9.06,9.06,0,0,0,1.69-1.19,6,6,0,0,0,1.15-1.48l.33-.65q0-.14.36,0c.05,0,.05,0,.05,0-.05.32-.13.69-.21,1.15s-.16.82-.25,1.31l-.24,1.36c-.08.41-.13.82-.21,1.15a1.08,1.08,0,0,1-.08.49H115.52v-.53h.37a1.72,1.72,0,0,0,1.44-1,4.39,4.39,0,0,0,.65-2.42V97.07a4.07,4.07,0,0,0-.61-2.38,1.73,1.73,0,0,0-1.48-1h-.37v-.53h18.69v5.46h-.41l-.21-.66a3.46,3.46,0,0,0-.86-1.48,5.24,5.24,0,0,0-1.48-1.19,7.5,7.5,0,0,0-1.85-.82,5.4,5.4,0,0,0-2-.33H122V105.7h3.74a7.85,7.85,0,0,0,1.76-.17c.58-.16,1.07-.33,1.56-.49a5,5,0,0,0,1.2-.66,2.06,2.06,0,0,0,.61-.82l.13-.37h.45v6.33Z" transform="translate(-0.5 -1.89)"/><path d="M170.52,104.63v.53H170a2.71,2.71,0,0,0-2,.87,4.38,4.38,0,0,0-.86,3.12v1.23a8,8,0,0,1-1.65,4.89c1,.94,1.94,1.72,2.76,2.34a21.92,21.92,0,0,0,2.3,1.4,6.33,6.33,0,0,0,1.85.61,4.29,4.29,0,0,0,1.52,0v.62a13.93,13.93,0,0,1-4.89-.08,16.19,16.19,0,0,1-5.63-2.67,13.93,13.93,0,0,1-3.86,2.13,13.55,13.55,0,0,1-4.68.82,10.54,10.54,0,0,1-3.25-.53,10.26,10.26,0,0,1-2.67-1.44,8.09,8.09,0,0,1-1.85-2.13,5.38,5.38,0,0,1-.7-2.59,6.16,6.16,0,0,1,.5-2.38,11.91,11.91,0,0,1,1.43-2.39,13,13,0,0,1,2.1-2.09,12.37,12.37,0,0,1,2.63-1.64,31.24,31.24,0,0,1-1.56-3.13A7.19,7.19,0,0,1,151,99.7a6.9,6.9,0,0,1,.5-2.59A6.35,6.35,0,0,1,152.78,95a6.23,6.23,0,0,1,2-1.48,5,5,0,0,1,2.38-.58,7.28,7.28,0,0,1,2.35.37,6.15,6.15,0,0,1,2,1,4.77,4.77,0,0,1,1.35,1.52,3.5,3.5,0,0,1,.5,1.81,4.18,4.18,0,0,1-.5,2,7.76,7.76,0,0,1-1.43,1.93,11.25,11.25,0,0,1-2.1,1.64,13.36,13.36,0,0,1-2.63,1.19c.66,1,1.32,1.94,2.05,3s1.52,2,2.35,3,1.39,1.64,2.05,2.38,1.32,1.4,1.89,2a7.23,7.23,0,0,0,1.4-4.31v-1.23a4.89,4.89,0,0,0-.74-3.12,2.24,2.24,0,0,0-1.77-.87h-.49v-.53ZM162.76,117c-.7-.57-1.39-1.15-2.14-1.89s-1.47-1.56-2.25-2.46c-.91-1.11-1.73-2.18-2.59-3.33s-1.6-2.26-2.26-3.33A7.84,7.84,0,0,0,151,108.7a7.26,7.26,0,0,0-1,3.61,6,6,0,0,0,.53,2.51,7.24,7.24,0,0,0,1.52,2.05,9,9,0,0,0,2.26,1.4,7.51,7.51,0,0,0,2.71.53,9.71,9.71,0,0,0,3.12-.49A9.47,9.47,0,0,0,162.76,117Zm-6.49-13.1a7.8,7.8,0,0,0,3-2.51,5.71,5.71,0,0,0,1.19-3.49,3.84,3.84,0,0,0-.29-1.56,3.65,3.65,0,0,0-.78-1.36,2.91,2.91,0,0,0-1.11-.9,2.65,2.65,0,0,0-1.39-.33,2,2,0,0,0-1.15.33,4.19,4.19,0,0,0-1,1,4.53,4.53,0,0,0-.7,1.39,6,6,0,0,0-.24,1.69,7.18,7.18,0,0,0,.65,2.42A36.5,36.5,0,0,0,156.27,103.85Z" transform="translate(-0.5 -1.89)"/><path d="M185.12,112.89h.45c.08.16.12.37.21.61a3.19,3.19,0,0,1,.24.62,9.1,9.1,0,0,0,1,1.76,14.83,14.83,0,0,0,1.56,1.61,11.58,11.58,0,0,0,1.93,1.23,8.57,8.57,0,0,0,2,.66,3.83,3.83,0,0,1,.7,0c.25,0,.45,0,.66,0a6.63,6.63,0,0,0,2.22-.41A5.92,5.92,0,0,0,198,118a6.58,6.58,0,0,0,1.23-1.6,3.92,3.92,0,0,0,.49-1.89,2.88,2.88,0,0,0-.57-1.69,8,8,0,0,0-1.65-1.72,12.49,12.49,0,0,0-2.38-1.6,16,16,0,0,0-2.87-1.24A12.78,12.78,0,0,1,189.6,107a16,16,0,0,1-2.22-1.81,8.77,8.77,0,0,1-1.52-2.09,4.92,4.92,0,0,1-.58-2.14,7.23,7.23,0,0,1,.7-3.08,9.26,9.26,0,0,1,1.85-2.59,8.85,8.85,0,0,1,2.71-1.72,8.3,8.3,0,0,1,3.29-.66,8.5,8.5,0,0,1,1.68.12,10.69,10.69,0,0,1,1.89.42,12.68,12.68,0,0,1,1.89.61,14.47,14.47,0,0,1,1.6.74v5.38h-.45a4.56,4.56,0,0,0-.29-.82c-.12-.37-.24-.66-.32-.86a4.89,4.89,0,0,0-.7-1.36,6.66,6.66,0,0,0-1.07-1.27,5.11,5.11,0,0,0-1.23-1,4.26,4.26,0,0,0-1.36-.66,9,9,0,0,0-1-.2,3.21,3.21,0,0,0-.83-.08,4.79,4.79,0,0,0-2.13.41,5.8,5.8,0,0,0-1.81,1.19,6.82,6.82,0,0,0-1.23,1.77,5.09,5.09,0,0,0-.45,2.09,2.6,2.6,0,0,0,.57,1.52,9.66,9.66,0,0,0,1.6,1.6,18,18,0,0,0,2.3,1.48,22.18,22.18,0,0,0,2.84,1.15,10,10,0,0,1,2.75,1.32,10.46,10.46,0,0,1,2.3,1.89,7.88,7.88,0,0,1,1.56,2.21,5,5,0,0,1,.58,2.31,6.24,6.24,0,0,1-.7,2.91,7.45,7.45,0,0,1-1.85,2.43,9.69,9.69,0,0,1-2.75,1.64,8.92,8.92,0,0,1-3.33.61,17.53,17.53,0,0,1-2.42-.16c-.83-.16-1.65-.29-2.47-.49s-1.56-.45-2.26-.74a13.48,13.48,0,0,1-1.64-.91l.41-.57-.41.57Z" transform="translate(-0.5 -1.89)"/><path d="M204.84,93.66v-.53h11.75a10.69,10.69,0,0,1,3.66.61,9.14,9.14,0,0,1,3,1.65,7.2,7.2,0,0,1,2.06,2.46,5.75,5.75,0,0,1,.78,3,5.58,5.58,0,0,1-.82,2.92,9.35,9.35,0,0,1-2.3,2.42,11.81,11.81,0,0,1-3.37,1.68,13.19,13.19,0,0,1-4.07.62h-4.19v8a4.57,4.57,0,0,0,.66,2.26,1.78,1.78,0,0,0,1.44.95h.37v.53h-9v-.53h.37a1.7,1.7,0,0,0,1.44-1,4.4,4.4,0,0,0,.66-2.42V97.07a4.07,4.07,0,0,0-.62-2.38,1.72,1.72,0,0,0-1.48-1Zm6.49,13.76h4.19a6,6,0,0,0,2.47-.53,7,7,0,0,0,2-1.44,6.91,6.91,0,0,0,1.36-2.09,6.23,6.23,0,0,0,.53-2.55,7.49,7.49,0,0,0-1.56-4.68,5,5,0,0,0-1.69-1.44,4,4,0,0,0-2-.54h-5.26Z" transform="translate(-0.5 -1.89)"/><path d="M254.27,119.71v.53h-9.82v-.53h.49a1.52,1.52,0,0,0,1.52-1,2.81,2.81,0,0,0-.12-2.42l-2.1-5.39h-9.69l-1.73,5a4.32,4.32,0,0,0,0,2.67,1.68,1.68,0,0,0,1.65,1.11H235v.53h-7.27v-.53h.37a2.7,2.7,0,0,0,1.81-1,6.7,6.7,0,0,0,1.52-2.42l8.46-23.79h1l9.78,23.79a8.41,8.41,0,0,0,1.52,2.38,2.87,2.87,0,0,0,1.77,1Zm-10.44-9.82-4.76-12.12-4.15,12.12Z" transform="translate(-0.5 -1.89)"/><path class="cls-1" d="M10.1,145.64H3.3l-1.46,3.25H.5L6.07,136.7H7.35l5.57,12.19H11.56Zm-.47-1L6.7,138l-2.93,6.55Z" transform="translate(-0.5 -1.89)"/><path class="cls-1" d="M18.44,137.82H14.16V136.7H24v1.12H19.73v11.07H18.44Z" transform="translate(-0.5 -1.89)"/><path class="cls-1" d="M44.31,145.64c0,2.07-1.54,3.25-4.59,3.25H34.11V136.7h5.27c2.71,0,4.28,1.15,4.28,3.14a2.84,2.84,0,0,1-1.86,2.77A2.91,2.91,0,0,1,44.31,145.64Zm-8.91-7.88v4.43h3.89c2,0,3.08-.75,3.08-2.21s-1.13-2.22-3.08-2.22ZM43,145.53c0-1.58-1.17-2.28-3.31-2.28H35.4v4.58h4.31C41.85,147.83,43,147.14,43,145.53Z" transform="translate(-0.5 -1.89)"/><path class="cls-1" d="M57.32,148.89,54.53,145c-.32,0-.63.05-1,.05H50.28v3.86H49V136.7h4.56c3.1,0,5,1.57,5,4.18a3.78,3.78,0,0,1-2.79,3.83l3,4.18Zm-.07-8c0-1.95-1.29-3.06-3.73-3.06H50.28v6.11h3.24C56,143.93,57.25,142.8,57.25,140.88Z" transform="translate(-0.5 -1.89)"/><path class="cls-1" d="M63.22,143.69v-7h1.29v6.93c0,2.9,1.36,4.22,3.72,4.22S72,146.53,72,143.63V136.7h1.25v7c0,3.5-1.88,5.31-5,5.31S63.22,147.19,63.22,143.69Z" transform="translate(-0.5 -1.89)"/><path class="cls-1" d="M77.69,147.41l.51-1a6,6,0,0,0,4,1.48c2.28,0,3.28-1,3.28-2.16,0-3.34-7.51-1.29-7.51-5.8,0-1.79,1.39-3.34,4.49-3.34a6.85,6.85,0,0,1,3.78,1.08l-.43,1a6.3,6.3,0,0,0-3.35-1c-2.23,0-3.22,1-3.22,2.22,0,3.34,7.51,1.32,7.51,5.76,0,1.8-1.43,3.33-4.55,3.33A6.58,6.58,0,0,1,77.69,147.41Z" transform="translate(-0.5 -1.89)"/><path class="cls-1" d="M101.5,136.7v12.19h-1.27v-5.62H92.6v5.62H91.31V136.7H92.6v5.44h7.63V136.7Z" transform="translate(-0.5 -1.89)"/><path class="cls-1" d="M112.44,142.8a6.12,6.12,0,0,1,6.39-6.2,5.91,5.91,0,0,1,4.46,1.77l-.82.82a4.82,4.82,0,0,0-3.6-1.44,5.05,5.05,0,1,0,0,10.1,4.8,4.8,0,0,0,3.6-1.46l.82.81a5.9,5.9,0,0,1-4.47,1.8A6.12,6.12,0,0,1,112.44,142.8Z" transform="translate(-0.5 -1.89)"/><path class="cls-1" d="M136.11,148.89,133.32,145c-.31,0-.62.05-1,.05h-3.28v3.86h-1.29V136.7h4.57c3.1,0,5,1.57,5,4.18a3.77,3.77,0,0,1-2.79,3.83l3,4.18Zm-.07-8c0-1.95-1.29-3.06-3.73-3.06h-3.24v6.11h3.24C134.75,143.93,136,142.8,136,140.88Z" transform="translate(-0.5 -1.89)"/><path class="cls-1" d="M150.74,147.78v1.11h-8.62V136.7h8.36v1.12h-7.07v4.33h6.3v1.1h-6.3v4.53Z" transform="translate(-0.5 -1.89)"/><path class="cls-1" d="M164.14,147.78v1.11h-8.63V136.7h8.36v1.12H156.8v4.33h6.31v1.1H156.8v4.53Z" transform="translate(-0.5 -1.89)"/><path class="cls-1" d="M172.69,143.16l-2.49,2.53v3.2h-1.29V136.7h1.29v7.37l7.15-7.37h1.49l-5.28,5.52,5.64,6.67h-1.53Z" transform="translate(-0.5 -1.89)"/><path class="cls-1" d="M197.66,148.89,194.88,145c-.32,0-.63.05-1,.05h-3.27v3.86h-1.29V136.7h4.56c3.1,0,5,1.57,5,4.18a3.77,3.77,0,0,1-2.78,3.83l3,4.18Zm-.07-8c0-1.95-1.28-3.06-3.72-3.06h-3.24v6.11h3.24C196.31,143.93,197.59,142.8,197.59,140.88Z" transform="translate(-0.5 -1.89)"/><path class="cls-1" d="M211.32,145.64h-6.8l-1.46,3.25h-1.34l5.58-12.19h1.27l5.57,12.19h-1.36Zm-.47-1L207.92,138,205,144.59Z" transform="translate(-0.5 -1.89)"/><path class="cls-1" d="M228.09,136.7v12.19H227L219.19,139v9.89H217.9V136.7H219l7.86,9.9v-9.9Z" transform="translate(-0.5 -1.89)"/><path class="cls-1" d="M232.72,142.8a6.12,6.12,0,0,1,6.39-6.2,5.9,5.9,0,0,1,4.46,1.77l-.81.82a4.85,4.85,0,0,0-3.61-1.44,5.05,5.05,0,1,0,0,10.1,4.83,4.83,0,0,0,3.61-1.46l.81.81a5.89,5.89,0,0,1-4.47,1.8A6.12,6.12,0,0,1,232.72,142.8Z" transform="translate(-0.5 -1.89)"/><path class="cls-1" d="M258.26,136.7v12.19H257v-5.62h-7.63v5.62h-1.29V136.7h1.29v5.44H257V136.7Z" transform="translate(-0.5 -1.89)"/></svg>