<svg id="Layer_1" data-name="Layer 1" xmlns="http://www.w3.org/2000/svg" viewBox="0 0 162.12 146.89"><defs><style>.cls-1{fill:#5c8271;}.cls-2{fill:#fff;}</style></defs><title>Magee-Homestead-Logo-01</title><path d="M25.63,119.66l0-22.52-9.95,19.63H13.76L3.85,97.14v22.52h-3V92.33H4.75l10,19.68,10-19.68h3.82v27.33Z" transform="translate(-0.88 -1.11)"/><path d="M45.45,112.75l-3,6.91H39.09L51.35,92.33h3.24l12.22,27.33h-3.4l-3-6.91Zm7.42-16.86-6.09,13.86H59Z" transform="translate(-0.88 -1.11)"/><path d="M100.07,106.31v9.92a16.85,16.85,0,0,1-10.15,3.59A14,14,0,0,1,75.67,106c0-7.69,6.36-13.74,14.41-13.74A15.5,15.5,0,0,1,100.15,96l-1.8,2.35a12.5,12.5,0,0,0-8.27-3.17,10.84,10.84,0,1,0,0,21.67,13.09,13.09,0,0,0,7.18-2.3v-8.24Z" transform="translate(-0.88 -1.11)"/><path d="M115.69,95.34v9h13.78v3H115.69v9.37h15.93v3H112.56V92.33h18.55v3Z" transform="translate(-0.88 -1.11)"/><path d="M147.07,95.34v9h13.78v3H147.07v9.37H163v3H144V92.33h18.54v3Z" transform="translate(-0.88 -1.11)"/><polygon class="cls-1" points="82.25 0 50.13 0 50.13 37.81 82.22 63.92 114.36 37.81 114.36 0 82.25 0"/><path class="cls-2" d="M55.21,4.65V37.53L83.1,60.23,111,37.53V4.65Zm16.34,42V30.12l-2.92-2.47V44.24l-4.81-3.81V21.09L83.21,36.9l19.4-15.81v19.2l-4.85,3.85V27.71L94.9,30.12V46.51L83.1,56.12Zm.21-23H94.7L83.23,33Zm36.11,12.21L105.39,38V14.94l-7.58,6.11L97.9,9.69h-3V20.53H71.55V9.69H68.63V21l-7.56-6.09V38.17L58.36,36V7.83h49.51Z" transform="translate(-0.88 -1.11)"/><path class="cls-1" d="M31.89,135.74V147.9H30.62v-5.62H23v5.62H21.73V135.74H23v5.42h7.6v-5.42Z" transform="translate(-0.88 -1.11)"/><path class="cls-1" d="M36.51,141.82a6.12,6.12,0,0,1,6.39-6.19,6.19,6.19,0,1,1,0,12.37A6.12,6.12,0,0,1,36.51,141.82Zm11.48,0a5.11,5.11,0,1,0-5.09,5A4.93,4.93,0,0,0,48,141.82Z" transform="translate(-0.88 -1.11)"/><path class="cls-1" d="M66.52,135.74V147.9H65.29v-9.73l-4.78,8.18H59.9l-4.77-8.13v9.68H53.89V135.74H55l5.28,9,5.23-9Z" transform="translate(-0.88 -1.11)"/><path class="cls-1" d="M80.81,146.78v1.12h-8.6V135.74h8.34v1.11h-7v4.32h6.29v1.1H73.5v4.51Z" transform="translate(-0.88 -1.11)"/><path class="cls-1" d="M84.41,146.42l.5-1a6,6,0,0,0,4,1.48c2.28,0,3.27-1,3.27-2.16,0-3.33-7.49-1.28-7.49-5.78,0-1.79,1.39-3.34,4.48-3.34A6.82,6.82,0,0,1,93,136.71l-.43,1a6.24,6.24,0,0,0-3.34-1c-2.22,0-3.21,1-3.21,2.2,0,3.34,7.49,1.32,7.49,5.75,0,1.79-1.43,3.32-4.54,3.32A6.57,6.57,0,0,1,84.41,146.42Z" transform="translate(-0.88 -1.11)"/><path class="cls-1" d="M100.17,136.85H95.9v-1.11h9.83v1.11h-4.27V147.9h-1.29Z" transform="translate(-0.88 -1.11)"/><path class="cls-1" d="M118.12,146.78v1.12h-8.6V135.74h8.34v1.11H110.8v4.32h6.29v1.1H110.8v4.51Z" transform="translate(-0.88 -1.11)"/><path class="cls-1" d="M130.5,144.65h-6.78l-1.46,3.25h-1.33l5.56-12.16h1.26l5.56,12.16H132ZM130,143.6l-2.92-6.52-2.92,6.52Z" transform="translate(-0.88 -1.11)"/><path class="cls-1" d="M137.06,135.74H142c3.89,0,6.51,2.5,6.51,6.08s-2.62,6.08-6.51,6.08h-4.95Zm4.88,11c3.23,0,5.31-2.05,5.31-5s-2.08-5-5.31-5h-3.59v9.93Z" transform="translate(-0.88 -1.11)"/></svg>