<svg id="Chat" xmlns="http://www.w3.org/2000/svg" viewBox="0 0 32.7 26"><defs><style>.cls-1{fill:#0289ff;}.cls-2{fill:#00a5ff;}</style></defs><title>Chat</title><path id="Shape_1_copy" data-name="Shape 1 copy" class="cls-1" d="M62.2,33.8,65.1,41,54.8,34.2Z" transform="translate(-35.3 -15)"/><path id="Rounded_Rectangle_1_copy" data-name="Rounded Rectangle 1 copy" class="cls-1" d="M53.3,25.2H64a4,4,0,0,1,4,4V33a4,4,0,0,1-4,4H53.3a4,4,0,0,1-4-4V29.2A4,4,0,0,1,53.3,25.2Z" transform="translate(-35.3 -15)"/><path class="cls-2" d="M42.8,26.1,39,35.4l13.1-8.8Z" transform="translate(-35.3 -15)"/><path id="Rounded_Rectangle_1" data-name="Rounded Rectangle 1" class="cls-2" d="M39.3,15H55.2a4,4,0,0,1,4,4v7.3a4,4,0,0,1-4,4H39.3a4,4,0,0,1-4-4V19A4,4,0,0,1,39.3,15Z" transform="translate(-35.3 -15)"/></svg>