<svg id="Layer_1" data-name="Layer 1" xmlns="http://www.w3.org/2000/svg" viewBox="0 0 226.44 108.2"><defs><style>.cls-1{fill:#fff;}</style></defs><title>BCR Collection Logo</title><path class="cls-1" d="M115.73,28.05c-4,0-7.29-2.13-7.93-5.07L106,23v6.63H123.1a3.33,3.33,0,1,0,0-6.63H112.25a1.65,1.65,0,0,1-.37-1,1.76,1.76,0,0,1,.33-1l10.89,0a3.33,3.33,0,1,0,0-6.63H106V21h1.84c.59-2.89,3.92-5,7.87-5,3.09,0,5.94,1.35,7.27,3.46h-2.71a6.69,6.69,0,0,0-4.56-1.68c-3.15,0-5.71,1.91-5.71,4.27s2.56,4.28,5.71,4.28a6.37,6.37,0,0,0,4.73-1.88h2.67C121.86,26.61,119,28.05,115.73,28.05Z" transform="translate(-2.23 -0.51)"/><path class="cls-1" d="M106,31.72v5.13a17.58,17.58,0,0,0,9.5,2.79A17.22,17.22,0,0,0,126.16,36l-3.67-4.3Z" transform="translate(-2.23 -0.51)"/><path class="cls-1" d="M115.52,5.25a17.16,17.16,0,0,0-11.65,29.89V12.25H123.1a5.43,5.43,0,0,1,5.69,5.39A5.21,5.21,0,0,1,126.53,22,5.33,5.33,0,0,1,125,31.45l2.75,3.19a17,17,0,0,0,5.12-12.19A17.29,17.29,0,0,0,115.52,5.25Z" transform="translate(-2.23 -0.51)"/><path class="cls-1" d="M115.52.51a21.94,21.94,0,1,0,22.1,21.94A22,22,0,0,0,115.52.51Zm0,41.22a19.28,19.28,0,1,1,19.42-19.28A19.37,19.37,0,0,1,115.52,41.73Z" transform="translate(-2.23 -0.51)"/><rect class="cls-1" x="0.15" y="89.51" width="226.28" height="1.06"/><path class="cls-1" d="M2.23,99.41h1v8.38H8.36v.84H2.23Z" transform="translate(-2.23 -0.51)"/><path class="cls-1" d="M11.05,104.69V99.41h1v5.24c0,2.19,1,3.19,2.81,3.19s2.83-1,2.83-3.19V99.41h.95v5.28c0,2.65-1.42,4-3.78,4S11.05,107.34,11.05,104.69Z" transform="translate(-2.23 -0.51)"/><path class="cls-1" d="M28.52,108.63l-3-4-3,4H21.46L25,103.89l-3.28-4.48h1.12l2.77,3.77,2.77-3.77h1l-3.26,4.45,3.51,4.77Z" transform="translate(-2.23 -0.51)"/><path class="cls-1" d="M32.48,104.69V99.41h1v5.24c0,2.19,1,3.19,2.82,3.19s2.83-1,2.83-3.19V99.41h.94v5.28c0,2.65-1.42,4-3.77,4S32.48,107.34,32.48,104.69Z" transform="translate(-2.23 -0.51)"/><path class="cls-1" d="M50.6,108.63l-2.11-3c-.23,0-.47,0-.73,0H45.28v2.92h-1V99.41h3.45c2.34,0,3.76,1.19,3.76,3.16a2.85,2.85,0,0,1-2.11,2.9l2.26,3.16Zm-.05-6.06c0-1.47-1-2.31-2.82-2.31H45.28v4.62h2.45C49.57,104.88,50.55,104,50.55,102.57Z" transform="translate(-2.23 -0.51)"/><path class="cls-1" d="M58.17,105.44v3.19h-1v-3.19l-3.69-6h1l3.16,5.18,3.16-5.18h1Z" transform="translate(-2.23 -0.51)"/><path class="cls-1" d="M75.75,108.63l-2.11-3c-.24,0-.47,0-.74,0H70.43v2.92h-1V99.41H72.9c2.35,0,3.77,1.19,3.77,3.16a2.86,2.86,0,0,1-2.11,2.9l2.25,3.16Zm-.06-6.06c0-1.47-1-2.31-2.81-2.31H70.43v4.62h2.45C74.72,104.88,75.69,104,75.69,102.57Z" transform="translate(-2.23 -0.51)"/><path class="cls-1" d="M86.07,106.17H80.93l-1.1,2.46h-1L83,99.41h1l4.21,9.22h-1Zm-.36-.79-2.21-4.95-2.21,4.95Z" transform="translate(-2.23 -0.51)"/><path class="cls-1" d="M98.75,99.41v9.22h-.81L92,101.15v7.48H91V99.41h.81l5.93,7.48V99.41Z" transform="translate(-2.23 -0.51)"/><path class="cls-1" d="M102.25,104a4.62,4.62,0,0,1,4.83-4.68,4.45,4.45,0,0,1,3.37,1.34l-.62.62a3.63,3.63,0,0,0-2.72-1.1,3.82,3.82,0,1,0,0,7.64,3.6,3.6,0,0,0,2.72-1.11l.62.62a4.47,4.47,0,0,1-3.38,1.36A4.62,4.62,0,0,1,102.25,104Z" transform="translate(-2.23 -0.51)"/><path class="cls-1" d="M121.55,99.41v9.22h-1v-4.25h-5.77v4.25h-1V99.41h1v4.11h5.77V99.41Z" transform="translate(-2.23 -0.51)"/><path class="cls-1" d="M129.82,104a4.62,4.62,0,0,1,4.83-4.68,4.45,4.45,0,0,1,3.37,1.34l-.62.62a3.63,3.63,0,0,0-2.73-1.1,3.82,3.82,0,1,0,0,7.64,3.61,3.61,0,0,0,2.73-1.11l.62.62a4.48,4.48,0,0,1-3.39,1.36A4.62,4.62,0,0,1,129.82,104Z" transform="translate(-2.23 -0.51)"/><path class="cls-1" d="M140.4,104a4.84,4.84,0,1,1,4.85,4.69A4.64,4.64,0,0,1,140.4,104Zm8.7,0a3.87,3.87,0,1,0-3.85,3.82A3.73,3.73,0,0,0,149.1,104Z" transform="translate(-2.23 -0.51)"/><path class="cls-1" d="M153.58,99.41h1v8.38h5.16v.84h-6.13Z" transform="translate(-2.23 -0.51)"/><path class="cls-1" d="M162.65,99.41h1v8.38h5.17v.84h-6.14Z" transform="translate(-2.23 -0.51)"/><path class="cls-1" d="M178.24,107.79v.84h-6.52V99.41H178v.85H172.7v3.28h4.76v.82H172.7v3.43Z" transform="translate(-2.23 -0.51)"/><path class="cls-1" d="M181,104a4.62,4.62,0,0,1,4.83-4.68,4.45,4.45,0,0,1,3.37,1.34l-.62.62a3.63,3.63,0,0,0-2.72-1.1,3.82,3.82,0,1,0,0,7.64,3.6,3.6,0,0,0,2.72-1.11l.62.62a4.47,4.47,0,0,1-3.38,1.36A4.62,4.62,0,0,1,181,104Z" transform="translate(-2.23 -0.51)"/><path class="cls-1" d="M194.25,100.26H191v-.85h7.45v.85h-3.24v8.37h-1Z" transform="translate(-2.23 -0.51)"/><path class="cls-1" d="M201.33,99.41h1v9.22h-1Z" transform="translate(-2.23 -0.51)"/><path class="cls-1" d="M205.81,104a4.84,4.84,0,1,1,4.84,4.69A4.63,4.63,0,0,1,205.81,104Zm8.7,0a3.87,3.87,0,1,0-3.86,3.82A3.74,3.74,0,0,0,214.51,104Z" transform="translate(-2.23 -0.51)"/><path class="cls-1" d="M226.69,99.41v9.22h-.8L220,101.15v7.48h-1V99.41h.8l5.94,7.48V99.41Z" transform="translate(-2.23 -0.51)"/><path class="cls-1" d="M2.44,61.19v-.42H13.16a11.66,11.66,0,0,1,3.4.42,9.73,9.73,0,0,1,2.79,1.18,5.85,5.85,0,0,1,1.92,1.7A3.3,3.3,0,0,1,22,66.13a2.52,2.52,0,0,1-.42,1.47,5.7,5.7,0,0,1-1.18,1.32A10.53,10.53,0,0,1,18.55,70a12.28,12.28,0,0,1-2.31.77,12,12,0,0,1,3,.74,8.78,8.78,0,0,1,2.41,1.22,5.22,5.22,0,0,1,1.6,1.57,3.18,3.18,0,0,1,.58,1.83A3.54,3.54,0,0,1,23,78.35a7.21,7.21,0,0,1-2.15,1.86,12.93,12.93,0,0,1-3.14,1.25,14.47,14.47,0,0,1-3.79.48H2.44v-.42h.29a1.32,1.32,0,0,0,1.12-.76,3.39,3.39,0,0,0,.52-1.9v-15A3.17,3.17,0,0,0,3.89,62a1.34,1.34,0,0,0-1.16-.8Zm7.13,9.24h2.88a4,4,0,0,0,1.64-.36,4.65,4.65,0,0,0,1.38-.93,3.79,3.79,0,0,0,1-1.35,3.73,3.73,0,0,0,.35-1.66,4,4,0,0,0-.28-1.54,3.61,3.61,0,0,0-.77-1.29,3.14,3.14,0,0,0-1.16-.86,3,3,0,0,0-1.41-.32H9.57Zm0,1.25v8.91h3.85a5.12,5.12,0,0,0,1.89-.35,5.84,5.84,0,0,0,1.57-1,4.67,4.67,0,0,0,1.06-1.41,3.83,3.83,0,0,0,.42-1.73,2.92,2.92,0,0,0-.49-1.7A4.22,4.22,0,0,0,16.53,73a5.79,5.79,0,0,0-2-1,7.13,7.13,0,0,0-2.37-.35Z" transform="translate(-2.23 -0.51)"/><path class="cls-1" d="M25.23,61.19v-.42H35.94a12.28,12.28,0,0,1,3.47.45,10.46,10.46,0,0,1,2.88,1.22,6.12,6.12,0,0,1,2,1.76A3.55,3.55,0,0,1,45,66.38a4,4,0,0,1-1.35,3,9.79,9.79,0,0,1-3.59,2.15l6,8.09c.23.25.42.48.58.67s.36.26.55.39a4.77,4.77,0,0,0,.7.19,9.27,9.27,0,0,0,1,.06H49v1.06H47.23c-1.28,0-2.37,0-3.24-.09a8.43,8.43,0,0,1-2.18-.49,5.16,5.16,0,0,1-1.6-1,15.61,15.61,0,0,1-1.48-1.77l-4.49-6.25H32.35v6.57a3.55,3.55,0,0,0,.48,1.86,1.48,1.48,0,0,0,1.19.8h.29v.42H25.23v-.42h.29a1.32,1.32,0,0,0,1.12-.76,3.47,3.47,0,0,0,.51-1.9v-15A3.17,3.17,0,0,0,26.67,62a1.33,1.33,0,0,0-1.15-.8ZM35.2,71a3.67,3.67,0,0,0,1.64-.35,4.26,4.26,0,0,0,1.38-1,4.78,4.78,0,0,0,1-1.47,4.21,4.21,0,0,0,.35-1.77,4.65,4.65,0,0,0-.28-1.63,4.07,4.07,0,0,0-.77-1.35,3.15,3.15,0,0,0-1.16-.93,2.52,2.52,0,0,0-1.38-.35H32.35V71H35.2Z" transform="translate(-2.23 -0.51)"/><path class="cls-1" d="M69.29,60.77v.42H69a1.52,1.52,0,0,0-1.28.83,3.85,3.85,0,0,0-.58,2V75.69a5.42,5.42,0,0,1-.55,2.43A5.65,5.65,0,0,1,65,80.18a8.28,8.28,0,0,1-2.66,1.41,12.27,12.27,0,0,1-3.63.51,11.29,11.29,0,0,1-3.78-.58,8.71,8.71,0,0,1-2.73-1.6,7,7,0,0,1-2.28-5.2V63.85A3.17,3.17,0,0,0,49.4,62a1.34,1.34,0,0,0-1.15-.8H48v-.42H57v.42h-.29a1.35,1.35,0,0,0-1.16.77,3.52,3.52,0,0,0-.51,1.89v11.9a5.46,5.46,0,0,0,.29,1.73,4.61,4.61,0,0,0,.83,1.45,4.83,4.83,0,0,0,1.35,1,4.5,4.5,0,0,0,1.89.38,8.06,8.06,0,0,0,2.6-.41,6,6,0,0,0,1.89-1.09,4.83,4.83,0,0,0,1.16-1.64,5.3,5.3,0,0,0,.38-2l0-11.26A3.17,3.17,0,0,0,64.86,62a1.6,1.6,0,0,0-1.34-.8h-.36v-.42h6.13Z" transform="translate(-2.23 -0.51)"/><path class="cls-1" d="M70.82,75.75h.32a3.61,3.61,0,0,1,.17.45,2.61,2.61,0,0,1,.19.48,7.07,7.07,0,0,0,.9,1.51,7.47,7.47,0,0,0,2.82,2.21,5.11,5.11,0,0,0,1.6.39v0h.23a4.73,4.73,0,0,0,1.54-.26,5.7,5.7,0,0,0,1.28-.67,2.84,2.84,0,0,0,.9-1,2.38,2.38,0,0,0,.32-1.18,1.6,1.6,0,0,0-.42-1.09,5.1,5.1,0,0,0-1.18-1.19,10.12,10.12,0,0,0-1.77-1.12,9.93,9.93,0,0,0-2.12-.93,9.45,9.45,0,0,1-1.86-1A11.42,11.42,0,0,1,72.17,71a8.55,8.55,0,0,1-1.06-1.7,4.68,4.68,0,0,1-.41-1.76,6.19,6.19,0,0,1,.61-2.67,6.85,6.85,0,0,1,1.63-2.18,8.49,8.49,0,0,1,2.44-1.47,7.42,7.42,0,0,1,2.92-.58,5.22,5.22,0,0,1,1.15.09,12.48,12.48,0,0,1,1.32.29,9.11,9.11,0,0,1,1.31.42,6.33,6.33,0,0,1,1.13.51l-.42.81.42-.81v4.85h-.36a5.51,5.51,0,0,0-.22-.58,7.79,7.79,0,0,0-.83-1.8,5.8,5.8,0,0,0-.94-1,4.4,4.4,0,0,0-1.08-.87A2.76,2.76,0,0,0,78.65,62a1.65,1.65,0,0,0-.58-.1,3.78,3.78,0,0,0-1.44.29,4.28,4.28,0,0,0-1.22.77,4.05,4.05,0,0,0-.8,1.12,3.27,3.27,0,0,0-.32,1.35,1.61,1.61,0,0,0,.42.93,10.83,10.83,0,0,0,1.18,1.06c.52.35,1.06.67,1.7,1a18.26,18.26,0,0,0,2.06.89,7.11,7.11,0,0,1,2,1,7.21,7.21,0,0,1,1.6,1.51,7,7,0,0,1,1.12,1.83,4.43,4.43,0,0,1,.42,1.86,5,5,0,0,1-.61,2.5,7.48,7.48,0,0,1-1.7,2.09A9.47,9.47,0,0,1,80,81.56a8.38,8.38,0,0,1-3,.54,16.14,16.14,0,0,1-1.7-.13c-.61-.09-1.19-.22-1.77-.35s-1.06-.32-1.57-.51-.87-.45-1.19-.64l.52-.74-.52.74Z" transform="translate(-2.23 -0.51)"/><path class="cls-1" d="M108.27,60.77v.42H108a1.34,1.34,0,0,0-1.15.77,3.52,3.52,0,0,0-.51,1.89v15a3.55,3.55,0,0,0,.48,1.86,1.48,1.48,0,0,0,1.18.8h.29v.42H99.19v-.42h.29a1.34,1.34,0,0,0,1.13-.76,3.47,3.47,0,0,0,.51-1.9V72.57H93.39v6.29a3.55,3.55,0,0,0,.48,1.86,1.39,1.39,0,0,0,1.15.8h.29v.42H86.23v-.42h.29a1.37,1.37,0,0,0,1.16-.76,3.47,3.47,0,0,0,.51-1.9v-15A3.17,3.17,0,0,0,87.71,62a1.38,1.38,0,0,0-1.19-.8h-.29v-.42h9.08v.42H95a1.29,1.29,0,0,0-1.15.77,3.51,3.51,0,0,0-.48,1.89v7.44h7.73V63.85a3.17,3.17,0,0,0-.48-1.86,1.34,1.34,0,0,0-1.16-.8h-.29v-.42h9.08Z" transform="translate(-2.23 -0.51)"/><path class="cls-1" d="M141.59,66.77h-.35a3,3,0,0,0-.16-.48,1.78,1.78,0,0,0-.2-.45,3.77,3.77,0,0,0-.8-1.32,5.56,5.56,0,0,0-1.31-1.15,6.92,6.92,0,0,0-1.61-.87,5.64,5.64,0,0,0-1.7-.45v0a6.24,6.24,0,0,0-1.06-.1c-.32,0-.67,0-1,0a5.81,5.81,0,0,0-2.89.74,7.86,7.86,0,0,0-2.4,2.05,10.79,10.79,0,0,0-1.64,3,11.33,11.33,0,0,0-.61,3.66A10.8,10.8,0,0,0,128.12,78a8.35,8.35,0,0,0,2.37,2,6,6,0,0,0,2.92.77h.42l.48,0a8.31,8.31,0,0,0,2.11-.42,9.58,9.58,0,0,0,2-.93A7.69,7.69,0,0,0,140,78.16a5.26,5.26,0,0,0,1-1.51c.06-.13.09-.26.16-.45a2.61,2.61,0,0,0,.19-.48h.35v4.33a8,8,0,0,1-1.51.77,13.33,13.33,0,0,1-2.05.67,23.65,23.65,0,0,1-2.34.45,18.7,18.7,0,0,1-2.31.16,15.14,15.14,0,0,1-9.34-3.17,11.58,11.58,0,0,1-2.88-3.44,8.55,8.55,0,0,1-1.06-4.13,8.39,8.39,0,0,1,1.06-4.14,10.63,10.63,0,0,1,2.88-3.4,13.94,13.94,0,0,1,4.24-2.34,14.85,14.85,0,0,1,5.1-.87,12.67,12.67,0,0,1,2.18.13,17.21,17.21,0,0,1,2.28.38,15.29,15.29,0,0,1,2.08.55,6.39,6.39,0,0,1,1.64.67Z" transform="translate(-2.23 -0.51)"/><path class="cls-1" d="M143.05,61.19v-.42h10.71a12.28,12.28,0,0,1,3.47.45,10.46,10.46,0,0,1,2.88,1.22,6.12,6.12,0,0,1,2,1.76,3.55,3.55,0,0,1,.74,2.18,4,4,0,0,1-1.35,3,9.79,9.79,0,0,1-3.59,2.15l6,8.09c.23.25.42.48.58.67a5,5,0,0,0,.55.39,4.77,4.77,0,0,0,.7.19,9.27,9.27,0,0,0,1,.06h.16v1.06h-1.77c-1.28,0-2.37,0-3.24-.09a8.43,8.43,0,0,1-2.18-.49,5.16,5.16,0,0,1-1.6-1,15.61,15.61,0,0,1-1.48-1.77l-4.49-6.25h-1.89v6.57a3.55,3.55,0,0,0,.48,1.86,1.48,1.48,0,0,0,1.19.8h.28v.42h-9.07v-.42h.29a1.33,1.33,0,0,0,1.12-.76,3.47,3.47,0,0,0,.51-1.9v-15a3.17,3.17,0,0,0-.48-1.86,1.34,1.34,0,0,0-1.15-.8ZM153,71a3.67,3.67,0,0,0,1.64-.35,4.49,4.49,0,0,0,1.38-1,4.78,4.78,0,0,0,1-1.47,4.21,4.21,0,0,0,.35-1.77,4.65,4.65,0,0,0-.28-1.63,4.07,4.07,0,0,0-.77-1.35,3.23,3.23,0,0,0-1.16-.93,2.52,2.52,0,0,0-1.38-.35h-3.59V71H153Z" transform="translate(-2.23 -0.51)"/><path class="cls-1" d="M182.77,73.83h-.36l-.06-.36a1.41,1.41,0,0,0-.48-.7,2.78,2.78,0,0,0-.93-.61,4.48,4.48,0,0,0-1.22-.39,5.09,5.09,0,0,0-1.41-.16h-2.92v9H180a5.54,5.54,0,0,0,1.58-.23,9.75,9.75,0,0,0,1.57-.67,6.94,6.94,0,0,0,1.31-.93,4.52,4.52,0,0,0,.9-1.15l.26-.55h.29c0,.26-.1.58-.16,1s-.13.74-.19,1.13-.13.73-.2,1.12-.13.67-.19,1a1.44,1.44,0,0,1,0,.32.76.76,0,0,1-.07.32H168.23v-.42h.29a1.37,1.37,0,0,0,1.16-.76,3.47,3.47,0,0,0,.51-1.9v-15a3.17,3.17,0,0,0-.48-1.86,1.38,1.38,0,0,0-1.19-.8h-.29v-.42h16.94v4.81h-.29l-.19-.54a2.69,2.69,0,0,0-.67-1.16,4.24,4.24,0,0,0-1.16-.93,5.81,5.81,0,0,0-1.44-.64,4.37,4.37,0,0,0-1.54-.26h-4.49V70.3h3.14a6.83,6.83,0,0,0,2.47-.52c.77-.32,1.22-.7,1.35-1.12l.06-.29h.36v5.46Z" transform="translate(-2.23 -0.51)"/><path class="cls-1" d="M201.84,73.83h-.35l-.07-.36a1.35,1.35,0,0,0-.48-.7,2.6,2.6,0,0,0-.93-.61,4.27,4.27,0,0,0-1.22-.39,5,5,0,0,0-1.41-.16h-2.92v9h4.59a5.48,5.48,0,0,0,1.57-.23,9.87,9.87,0,0,0,1.58-.67,6.94,6.94,0,0,0,1.31-.93,4.52,4.52,0,0,0,.9-1.15l.25-.55H205c0,.26-.09.58-.16,1s-.13.74-.19,1.13-.13.73-.19,1.12-.13.67-.19,1a1.09,1.09,0,0,1,0,.32,1,1,0,0,1-.06.32H187.31v-.42h.29a1.36,1.36,0,0,0,1.15-.76,3.39,3.39,0,0,0,.52-1.9v-15a3.17,3.17,0,0,0-.48-1.86,1.39,1.39,0,0,0-1.19-.8h-.29v-.42h16.94v4.81H204l-.19-.54a2.62,2.62,0,0,0-.68-1.16,4.2,4.2,0,0,0-1.15-.93,5.81,5.81,0,0,0-1.44-.64,4.41,4.41,0,0,0-1.54-.26h-4.5V70.3h3.15a6.83,6.83,0,0,0,2.47-.52c.77-.32,1.22-.7,1.34-1.12l.07-.29h.35v5.46Z" transform="translate(-2.23 -0.51)"/><path class="cls-1" d="M220.25,61.19v-.42h5.42v.42h-.29a2,2,0,0,0-.83.19,5.7,5.7,0,0,0-1.06.58c-.35.25-.74.54-1.12.86a7.37,7.37,0,0,0-1.06,1l-3.53,3.91,4.43,7.45a23.08,23.08,0,0,0,3.24,4.33,4.39,4.39,0,0,0,2.82,1.5h.16V82.1h-1.8a15.35,15.35,0,0,1-5.1-.74,5.36,5.36,0,0,1-2.88-2.18l-5.14-8.63v8.31a3.55,3.55,0,0,0,.48,1.86,1.5,1.5,0,0,0,1.19.8h.29v.42h-9.08v-.42h.29a1.32,1.32,0,0,0,1.12-.76,3.39,3.39,0,0,0,.52-1.9v-15a3.1,3.1,0,0,0-.49-1.86,1.33,1.33,0,0,0-1.15-.8h-.29v-.42h9.08v.42h-.29A1.33,1.33,0,0,0,214,62a3.44,3.44,0,0,0-.52,1.89v6.7l6.23-7a4.52,4.52,0,0,0,1-1.64c.17-.48.07-.7-.28-.7Z" transform="translate(-2.23 -0.51)"/></svg>