<svg id="Layer_1" data-name="Layer 1" xmlns="http://www.w3.org/2000/svg" viewBox="0 0 69.1 68.6"><defs><style>.cls-1{fill:#fff;}</style></defs><title>BRC-Collection-Logo-03Icon</title><path class="cls-1" d="M20.64,49.51v8A27.47,27.47,0,0,0,35.5,61.89,27,27,0,0,0,52.13,56.2l-5.74-6.72Z" transform="translate(-0.95 -0.7)"/><path class="cls-1" d="M35.5,8.11A26.82,26.82,0,0,0,17.28,54.85V19.06H47.34c5.08,0,8.91,3.62,8.91,8.42a8.16,8.16,0,0,1-3.55,6.81,8.15,8.15,0,0,1,3.55,6.79,8.24,8.24,0,0,1-6,8l4.29,5a26.57,26.57,0,0,0,8-19.07A27,27,0,0,0,35.5,8.11Z" transform="translate(-0.95 -0.7)"/><path class="cls-1" d="M35.83,43.77c-6.2,0-11.41-3.34-12.41-7.94l-2.78.06V46.27h26.7C50.56,46.27,53,44,53,41.08s-2.37-5.19-5.65-5.19h-17a2.57,2.57,0,0,1-.57-1.6,2.74,2.74,0,0,1,.52-1.59l17,0c3.22,0,5.65-2.24,5.65-5.19s-2.37-5.19-5.65-5.19H20.64V32.67h2.87c.92-4.53,6.14-7.85,12.32-7.85,4.82,0,9.27,2.12,11.35,5.41H42.94a10.43,10.43,0,0,0-7.11-2.63c-4.93,0-8.94,3-8.94,6.69S30.9,41,35.83,41A10,10,0,0,0,43.22,38h4.17C45.4,41.52,40.86,43.77,35.83,43.77Z" transform="translate(-0.95 -0.7)"/><path class="cls-1" d="M35.5.7A34.3,34.3,0,1,0,70.05,35,34.43,34.43,0,0,0,35.5.7Zm0,64.45A30.15,30.15,0,1,1,65.86,35,30.3,30.3,0,0,1,35.5,65.15Z" transform="translate(-0.95 -0.7)"/></svg>