<svg id="Layer_1" data-name="Layer 1" xmlns="http://www.w3.org/2000/svg" viewBox="0 0 144.85 72.22"><defs><style>.cls-1{fill:#fff;}</style></defs><title>Preferred Legend LOGO LARGE_white</title><path class="cls-1" d="M136.33,3.62a.75.75,0,0,0-.06-.13.38.38,0,0,0-.31-.14c-.16,0-.34.06-.34.25a.27.27,0,0,0,.24.25l.29.08a.41.41,0,0,1,.33.38c0,.2-.17.42-.53.42a.74.74,0,0,1-.34-.08.45.45,0,0,1-.19-.31l.13-.07a.47.47,0,0,0,0,.16.36.36,0,0,0,.36.19c.27,0,.39-.16.39-.31a.26.26,0,0,0-.08-.19,1,1,0,0,0-.34-.12c-.2,0-.43-.13-.43-.39s.25-.37.47-.37a.46.46,0,0,1,.49.31Z" transform="translate(-1.67 -2.66)"/><path class="cls-1" d="M138.11,4.7H138V3.49l-.47,1.21h-.09L137,3.49V4.7h-.13V3.27H137l.48,1.21.46-1.21h.17Z" transform="translate(-1.67 -2.66)"/><polygon class="cls-1" points="70.6 19.76 36.72 19.76 36.72 19.36 108.13 19.36 108.13 19.76 74.27 19.76 70.6 19.76"/><path class="cls-1" d="M145.46,23a1.05,1.05,0,0,0-1,.85H76.83l-2.74-1.47-2.74,1.47H3.75a1,1,0,1,0-1,1.25h0a1.06,1.06,0,0,0,1-.85H71.36l2.73,1.46,2.74-1.46h67.6a1,1,0,1,0,1-1.25Z" transform="translate(-1.67 -2.66)"/><polygon class="cls-1" points="74.12 23.09 108.13 23.09 108.13 23.5 36.72 23.5 36.72 23.09 70.73 23.09 74.12 23.09"/><path class="cls-1" d="M67.92,7.92h-.71v4h.61l-.21-.82v-2l.88-.88h1.37V7.92Z" transform="translate(-1.67 -2.66)"/><polygon class="cls-1" points="119.77 0.25 117.86 0.25 117.86 0.59 119.23 0.59 120.09 1.47 120.09 8.76 119.23 9.64 117.86 9.64 117.86 9.98 119.73 9.98 119.72 9.99 120.53 9.99 120.53 9.98 120.53 0.25 119.77 0.25"/><polygon class="cls-1" points="75.27 0.25 75.27 0.59 76.64 0.59 77.52 1.47 77.52 8.77 76.64 9.64 75.27 9.64 75.27 9.98 77.24 9.98 77.92 9.98 77.92 0.25 77.17 0.25 75.27 0.25"/><polygon class="cls-1" points="83.95 9.58 80.78 9.58 80.15 8.76 80.15 4.92 81.62 4.92 83.45 7.08 83.7 7.08 83.7 2.44 83.45 2.44 81.62 4.56 80.15 4.56 80.15 1.47 80.82 0.59 84.22 0.59 86.64 3.93 86.87 3.93 86.72 0.25 78.72 0.25 78.32 0.25 78.32 9.98 81.83 9.98 86.87 9.98 86.87 6.3 86.64 6.3 83.95 9.58"/><polygon class="cls-1" points="33.41 0.25 33.41 0.59 34.78 0.59 35.66 1.47 35.66 8.77 34.78 9.64 33.41 9.64 33.41 9.98 35.39 9.98 36.06 9.98 36.06 0.25 35.31 0.25 33.41 0.25"/><polygon class="cls-1" points="42.09 9.58 38.92 9.58 38.29 8.76 38.29 4.92 39.76 4.92 41.59 7.08 41.84 7.08 41.84 2.44 41.59 2.44 39.76 4.56 38.29 4.56 38.29 1.47 38.96 0.59 42.37 0.59 44.78 3.93 45.01 3.93 44.87 0.25 36.86 0.25 36.46 0.25 36.46 9.98 39.97 9.98 45.01 9.98 45.01 6.3 44.78 6.3 42.09 9.58"/><polygon class="cls-1" points="14.15 0.25 14.15 0.59 15.52 0.59 16.4 1.47 16.4 1.47 16.4 8.76 16.4 8.77 15.52 9.64 14.15 9.64 14.15 9.98 16.18 9.98 16.8 9.98 16.8 0.25 16.07 0.25 14.15 0.25"/><polygon class="cls-1" points="25.1 4.96 22.54 9.58 19.85 9.58 19.03 8.76 19.03 1.47 19.91 0.59 21.59 0.59 21.59 0.25 17.93 0.25 17.2 0.25 17.2 9.98 20.95 9.98 25.35 9.98 25.35 4.96 25.1 4.96"/><polygon class="cls-1" points="107.36 0.25 106.94 0.25 104.37 0.25 104.37 0.59 105.55 0.59 106.94 2.42 106.94 8.12 104.99 5.72 100.55 0.25 99.98 0.25 107.35 9.16 107.37 9.18 107.36 2.45 108.82 0.59 110 0.59 110 0.25 107.36 0.25"/><polygon class="cls-1" points="99.09 0.25 98.27 0.25 97.85 0.25 95.13 0.25 95.13 0.59 97.5 0.59 97.85 0.98 97.85 7.72 96.32 9.64 95.13 9.64 95.13 9.98 97.79 9.98 98.36 9.98 101.05 9.98 101.05 9.64 99.81 9.64 98.27 7.73 98.27 1.45 105.27 9.98 107.15 9.98 107.35 9.98 107.35 9.67 99.53 0.25 99.09 0.25"/><path class="cls-1" d="M67.25,2.73l-.65.71h-.76c-.36-.13-.72-.25-1.07-.35h0a8.77,8.77,0,0,0-2.54-.42h-.57A6.27,6.27,0,0,0,57.51,4a4.65,4.65,0,0,0-1.83,3.77v.07s0,.06,0,.1a4.42,4.42,0,0,0,.58,2.19l0,0a4.53,4.53,0,0,0,.3.46,6.33,6.33,0,0,0,5,2.24h.3A19,19,0,0,0,66.41,12l.4-.06V7.92h-4v.33h1.41l.73.88v2.15a3.06,3.06,0,0,1-2.81,1.19c-2.44,0-3.49-1.38-3.49-4.28,0-3.45,1.09-5.09,3.72-5.09.14,0,.27,0,.41,0a4.52,4.52,0,0,1,2.12.73A7,7,0,0,1,67.25,6.7h.23v-4Zm-8.38,1L58.48,4A4.85,4.85,0,0,0,56.6,7.85s0,0,0,.07,0,.06,0,.09a4.52,4.52,0,0,0,.59,2.25l0,0a4.76,4.76,0,0,0,.31.47,5.34,5.34,0,0,0,1.25,1.16l.08.06A4.89,4.89,0,0,1,57,10.51c-.09-.14-.2-.28-.28-.43l0,0A4.21,4.21,0,0,1,56.15,8s0-.06,0-.09,0,0,0-.07A4.39,4.39,0,0,1,57.88,4.3,5.06,5.06,0,0,1,59,3.58.91.91,0,0,0,58.87,3.69Z" transform="translate(-1.67 -2.66)"/><path class="cls-1" d="M132.45,7.72c0-.1,0-.2,0-.31s0-.16,0-.23a.13.13,0,0,0,0-.06c-.24-2.42-1.89-3.86-4.9-4.15-.37,0-.76-.06-1.17-.06h-3.71v9.73h4.17c3.7,0,5.65-1.91,5.65-4.85Zm-4.07,4.06a3.08,3.08,0,0,1-1.85.46h-1.31l-.82-.82V4.13l.82-.82h1.1l.39,0a3.37,3.37,0,0,1,1.19.27c1.2.55,1.55,1.9,1.55,4.19C129.45,9.85,129.26,11.14,128.38,11.78Zm1.46,0a4.6,4.6,0,0,0,.75-.9,5.45,5.45,0,0,0,.85-3.07V7.69c0-.12,0-.24,0-.35a2.44,2.44,0,0,0,0-.27s0,0,0-.06a4.94,4.94,0,0,0-.8-2.32l-.18-.27h0a4.29,4.29,0,0,0-.54-.59,4.08,4.08,0,0,1,2,3.26.13.13,0,0,0,0,.06,1.93,1.93,0,0,0,0,.24c0,.1,0,.2,0,.31s0,0,0,.06A4.4,4.4,0,0,1,129.84,11.73Z" transform="translate(-1.67 -2.66)"/><path class="cls-1" d="M49.44,39.69a5.74,5.74,0,0,0-.19-1.38,16.08,16.08,0,0,1,1.63-.16l0-.55a18.11,18.11,0,0,0-1.84.25c-1-2.76-4.44-5.05-11.05-5.05-13,0-20.55,6.81-20.55,11,0,1.84,1.48,3.16,4.6,3.16A17.68,17.68,0,0,0,38.7,36.36l-.28-.11c-2,4.1-12.09,10.16-17,10.16-2.31,0-3.42-1.1-3.42-2.64,0-3.86,7-10.61,19.76-10.61,6.58,0,9.78,2.21,10.6,4.82C37,40.66,32.64,55.42,19.69,55.42a24.37,24.37,0,0,1-2.56-.14l-.28.34a46.91,46.91,0,0,0,6,.44c6.31,0,9.28-2,12.84-6.81.55-.72,1.1-1.54,1.7-2.37A13.53,13.53,0,0,0,40,47.1C45.75,47.1,49.44,43.36,49.44,39.69Zm-10.08,7a12.71,12.71,0,0,1-1.74-.11c2.51-3.42,5.68-7.14,10.83-8.19a5.89,5.89,0,0,1,.11,1C48.56,43,44.79,46.72,39.36,46.72Z" transform="translate(-1.67 -2.66)"/><path class="cls-1" d="M132,52.06a4.59,4.59,0,0,0-5.26-4.32,10.45,10.45,0,0,0-4.84,2.19l.25.22a9.28,9.28,0,0,1,4.33-2c2.49-.29,4,1.39,4.27,3.66.45,3.83-2.53,9.35-10.13,10.25-4.13.49-8-1.5-8.36-4.73-.18-1.47.85-4,2.44-5.86,3.73-4.36,9.23-10.36,12.4-13.35L127,38s-1.49.31-2.72.46c-1.81,2.3-4.43,5-7.15,8l-1,1.28h-.49a12.75,12.75,0,0,0-9.3,3.56c-2.32,1.53-4.37,2.95-5.68,3.68a6.44,6.44,0,0,1-2.81.8c-.64,0-1.1-.19-1.1-.77s1.18-2.2,2.67-3.66c3.66-.55,6.2-2.48,6.2-3.36,0-.28-.22-.44-.75-.44a10.48,10.48,0,0,0-7.76,3.82c-3.67,2.43-6.47,4.41-7.48,4.41-.27,0-.41-.13-.41-.44,0-1.65,6.42-4.49,6.42-7.13,0-.83-.25-1.66-.25-2.48a.37.37,0,0,1,.22-.33c.44-.2,1.33-.77,1.33-1.38,0-.33-.25-.5-.58-.5A1.5,1.5,0,0,0,95,45.15v.52c-.54.67-2.22,2.4-7,5.57h0c-3.75,2.47-6.62,4.51-7.64,4.51-.27,0-.41-.13-.41-.44,0-1.65,6.42-4.49,6.42-7.13,0-.83-.25-1.66-.25-2.48a.37.37,0,0,1,.22-.33c.44-.2,1.33-.77,1.33-1.38,0-.33-.25-.5-.58-.5a1.5,1.5,0,0,0-1.35,1.66v.52c-.54.67-2.22,2.4-7,5.57h0c-2.34,1.54-4.41,3-5.73,3.71a6.44,6.44,0,0,1-2.81.8c-.64,0-1.11-.19-1.11-.77s1.19-2.2,2.68-3.66C75.41,50.77,78,48.84,78,48c0-.28-.23-.44-.75-.44A10.32,10.32,0,0,0,70,50.7c-1.44,1-3,2.73-6.61,3.09,5.1-6.32,6.15-13.45,16.14-17.35l.79-.26.54-.11a1.11,1.11,0,0,1,.26,0l.17,0v0a.61.61,0,0,1-.07.1l-.19.21a5.73,5.73,0,0,1-.45.39c-.31.25-.63.49-1,.72v0q.52-.3,1-.63a5.6,5.6,0,0,0,.49-.36l.23-.22a.85.85,0,0,0,.1-.14.25.25,0,0,0,0-.25v0h0a.72.72,0,0,0-.34-.1h-.3a3.7,3.7,0,0,0-.58.1,6.05,6.05,0,0,0-1.09.36l0,0c-7.94,2.92-10.79,8.63-16.24,15.33l-1.46,1.8a2.2,2.2,0,0,1-.62-1l1.5-1.08c0-.44-.33-.51-.66-.48a1.23,1.23,0,0,0-1.18,1.38c-1.69,1.12-3.16,2.11-4.18,2.68a6.36,6.36,0,0,1-2.81.8c-.63,0-1.1-.19-1.1-.77s1.19-2.2,2.67-3.66c3.67-.55,6.2-2.48,6.2-3.36,0-.28-.22-.44-.74-.44a10.13,10.13,0,0,0-6.7,2.73c-3.7,2.44-8.41,5.5-9.39,5.5-.28,0-.42-.13-.42-.44,0-1.65,6.42-4.49,6.42-7.13,0-.83-.25-1.66-.25-2.48a.37.37,0,0,1,.22-.33c.44-.2,1.33-.77,1.33-1.38,0-.33-.25-.5-.58-.5a1.5,1.5,0,0,0-1.35,1.66v.52c-.55.69-2.29,2.48-7.33,5.79l.19.16c4.71-3.09,6.56-5,7.16-5.67.06.52.17,1,.17,1.18,0,1.27-6.83,5.07-6.83,7.74,0,.86.33,1.21.91,1.21,1.26,0,5.42-2.68,8.9-5a6.18,6.18,0,0,0-1.82,3.52c0,1.05.86,1.46,1.93,1.46a7.63,7.63,0,0,0,3.33-.91,48.23,48.23,0,0,0,4.1-2.63,2,2,0,0,0,.68,1.16c-3.84,4.58-8.22,8.85-15.06,9.63l-.28,0-.79,0a7.12,7.12,0,0,1-.8,0c-.14,0-.27,0-.4,0a1,1,0,0,1-.34-.1c-.23-.13-.31-.25-.16-.44a2.12,2.12,0,0,1,.54-.45c.2-.12.39-.23.58-.32a11.61,11.61,0,0,1,1.26-.54v0a11.88,11.88,0,0,0-1.31.45,3.73,3.73,0,0,0-.62.28,2.21,2.21,0,0,0-.63.46.54.54,0,0,0-.13.49.73.73,0,0,0,.33.36,1.19,1.19,0,0,0,.43.16,2.22,2.22,0,0,0,.43.06,5.91,5.91,0,0,0,.84,0c.28,0,.55,0,.81-.05s.27,0,.41-.06l.4,0c5.48-.54,10.37-3.48,14.62-7.55a26.52,26.52,0,0,0,1.86-2,10.36,10.36,0,0,0,5.64-1.94,4.88,4.88,0,0,0-1,2.47c0,1.05.86,1.46,1.93,1.46a7.71,7.71,0,0,0,3.34-.91c1.48-.79,3.35-2.15,5.48-3.55h0c4.71-3.09,6.56-5,7.16-5.67.06.52.17,1,.17,1.18,0,1.27-6.83,5.07-6.83,7.74,0,.86.33,1.21.91,1.21,1.4,0,4.3-2.1,7.85-4.46h0c4.71-3.09,6.56-5,7.16-5.67.06.52.17,1,.17,1.18,0,1.27-6.83,5.07-6.83,7.74,0,.86.33,1.21.91,1.21,1.33,0,4-1.91,7.34-4.12a5.13,5.13,0,0,0-1.12,2.66c0,1.05.86,1.46,1.93,1.46a7.67,7.67,0,0,0,3.34-.91c1.35-.72,3-1.91,4.92-3.18a5.52,5.52,0,0,0-1.4,3.06c0,.63.3,1,.88,1,1.59,0,5.19-2.27,7.58-4a8.15,8.15,0,0,0-1,4.84c.44,3.67,3.94,6.08,9.22,5.45C129.37,61.39,132.48,56,132,52.06Zm-27.17-4.32c.33,0,.47.08.47.24,0,.72-2.78,2.68-5.7,3.12C101.45,49.36,103.68,47.74,104.84,47.74Zm-44.31,0c.33,0,.47.08.47.24,0,.72-2.79,2.68-5.71,3.12C57.14,49.36,59.37,47.74,60.53,47.74ZM77.67,48c0,.72-2.78,2.68-5.7,3.12,1.84-1.74,4.07-3.36,5.23-3.36C77.53,47.74,77.67,47.82,77.67,48Zm27.77,7.79c-.19,0-.3-.09-.3-.25,0-1.35,6.31-7.58,10.22-7.56h.54l-2.66,3.28-.14.21C110.66,53.23,106.91,55.77,105.44,55.77Z" transform="translate(-1.67 -2.66)"/><path class="cls-1" d="M25.05,71.9s0,0,0,0v-.12c0-.83,0-.92,0-1.1s-.06-.24-.24-.28l-.18,0c-.08,0-.11,0-.11,0s0-.06.11-.06l.85,0,.9,0c.08,0,.11,0,.11.06s0,0-.08,0l-.19,0c-.14,0-.18.12-.2.29s0,.31,0,1.15v.94a11.11,11.11,0,0,0,0,1.14c0,.18.06.27.22.3l.23,0c.07,0,.1,0,.1.05s-.05.06-.11.06l-1,0-.77,0c-.1,0-.12,0-.12-.06s0-.05.1-.05l.17,0c.13,0,.16-.13.17-.3a9.3,9.3,0,0,0,0-1.08v-.44s0,0,0,0H23.37a0,0,0,0,0,0,0v.56c0,.51,0,.73,0,1s.06.25.22.28l.23,0c.06,0,.1,0,.1.05s0,.06-.1.06l-1,0-.79,0c-.06,0-.12,0-.12,0s0-.06.1-.06l.16,0c.13,0,.18-.16.19-.32s0-.6,0-1.12v-.93c0-.84,0-1,0-1.13s-.07-.29-.26-.32l-.15,0c-.09,0-.1,0-.1-.06s.05-.05.11-.05l.85,0,.89,0c.1,0,.12,0,.12.06s0,0-.1,0l-.19,0c-.14,0-.17.16-.18.32s0,.39,0,1.06v.12a0,0,0,0,0,0,0Z" transform="translate(-1.67 -2.66)"/><path class="cls-1" d="M29.76,72.3a2.1,2.1,0,0,1,2.31-2.13,2,2,0,0,1,2.22,2A2.12,2.12,0,0,1,32,74.39,2.1,2.1,0,0,1,29.76,72.3Zm3.45.11c0-.89-.37-1.91-1.32-1.91-.5,0-1.05.28-1.05,1.55,0,1,.42,2,1.35,2C32.52,74.05,33.21,73.9,33.21,72.41Z" transform="translate(-1.67 -2.66)"/><path class="cls-1" d="M39.93,72.75c0,.42,0,.93,0,1.15s0,.25.21.28l.23,0c.09,0,.11,0,.11.06s0,0-.13,0l-1,0-.79,0c-.09,0-.13,0-.13-.06s0-.05.11-.05l.17,0c.12,0,.16-.14.18-.3s0-.61,0-1.14V70.64h-.81c-.31,0-.42.09-.49.28a.78.78,0,0,0,0,.12s0,.09-.07.09-.05,0,0-.11c0-.22.08-.51.12-.72s0-.13.06-.13l.18,0a4.34,4.34,0,0,0,.6,0h2.34a2.44,2.44,0,0,0,.34,0l.17,0c.05,0,.05,0,.05.16s0,.58,0,.71,0,.11-.05.11,0,0-.06-.09a.54.54,0,0,1,0-.11c0-.17-.1-.3-.42-.32a8.7,8.7,0,0,0-.87,0Z" transform="translate(-1.67 -2.66)"/><path class="cls-1" d="M45,71.81c0-.88,0-1,0-1.16s-.06-.25-.2-.28l-.18,0c-.07,0-.09,0-.09-.06s0-.05.12-.05l.8,0h1.52a2,2,0,0,0,.29,0l.08,0s0,0,0,.05,0,.08,0,.24a4.74,4.74,0,0,0,0,.57c0,.05,0,.08-.06.08s-.05,0-.05-.08a.67.67,0,0,0,0-.18c0-.13-.1-.2-.35-.22s-.65,0-.81,0-.05,0-.05.06v1.18s0,.07.05.07h.78c.26,0,.33,0,.39-.12s0-.07.08-.07,0,0,0,.06,0,.25,0,.46,0,.39,0,.45,0,.1,0,.1,0,0-.06-.09,0-.08,0-.12-.1-.25-.36-.26-.6,0-.76,0,0,0,0,.07v1.08c0,.38.09.46.68.46a1.46,1.46,0,0,0,.5-.06c.16-.06.22-.18.27-.43q0-.09.06-.09s0,.05,0,.12a5.61,5.61,0,0,1-.08.72c0,.14-.08.14-.28.14-.74,0-1.15,0-1.71,0l-.78,0c-.09,0-.13,0-.13-.06s0-.05.11-.05l.16,0c.15,0,.18-.23.19-.57s0-.53,0-.87Z" transform="translate(-1.67 -2.66)"/><path class="cls-1" d="M52.37,72.76a2.51,2.51,0,0,0,.08,1c.07.11.17.13.62.13a1.3,1.3,0,0,0,.62-.08c.13-.06.22-.2.28-.45,0-.06,0-.11.07-.11s0,0,0,.11a4.82,4.82,0,0,1-.11.79c0,.14-.09.14-.3.14-.75,0-1.25,0-1.82,0l-.84,0c-.07,0-.12,0-.12-.06s0-.05.11-.05l.19,0c.19,0,.19-.13.21-.56,0-.22,0-.54,0-.88v-.94c0-.88,0-1,0-1.15s0-.24-.18-.28a1.05,1.05,0,0,0-.21,0c-.06,0-.12,0-.12,0s.06-.06.17-.06l.79,0,.91,0c.1,0,.13,0,.13.05s0,.06-.13.06l-.18,0c-.15,0-.18.13-.19.32s0,.28,0,1.17Z" transform="translate(-1.67 -2.66)"/><path class="cls-1" d="M57.35,74.24a.2.2,0,0,1-.12-.21,5.76,5.76,0,0,1,0-.8c0-.09,0-.13.06-.13s0,.05.05.1a.5.5,0,0,0,0,.16.9.9,0,0,0,.91.7c.51,0,.67-.27.67-.5s0-.41-.5-.72l-.34-.24c-.65-.46-.84-.84-.84-1.31,0-.62.52-1.12,1.38-1.12a3.24,3.24,0,0,1,.62,0l.26.07s.07,0,.07.07,0,.28,0,.76c0,.1,0,.14-.06.14s-.05,0-.06-.11a.81.81,0,0,0-.1-.31.83.83,0,0,0-.73-.35c-.45,0-.61.25-.61.49s.07.4.43.64l.28.19c.75.5,1,.83,1,1.38a1.1,1.1,0,0,1-.57,1,1.79,1.79,0,0,1-.94.23A2.12,2.12,0,0,1,57.35,74.24Z" transform="translate(-1.67 -2.66)"/><path class="cls-1" d="M67.83,72.11a3.43,3.43,0,0,1,.66-.6c.06-.05,0-.08,0-.14a1,1,0,0,1-.19-.57,1.22,1.22,0,0,1,.25-.78,2.08,2.08,0,0,1,.83-.69,1.34,1.34,0,0,1,.58-.19c.46,0,.67.22.67.45a.31.31,0,0,1-.08.21,1.94,1.94,0,0,1-.27.25s-.11,0-.12,0a.59.59,0,0,0-.64-.44.56.56,0,0,0-.42.19.87.87,0,0,0-.19.55c0,.73.46.86.85.92,0,0,0,0,0,.12a.21.21,0,0,1-.19.13h-.34a1,1,0,0,0-.61.21,1.38,1.38,0,0,0-.39,1A1.64,1.64,0,0,0,70,74.38,1.57,1.57,0,0,0,71.21,74a1.47,1.47,0,0,0,.42-1.12,1.07,1.07,0,0,0-.31-.86.51.51,0,0,0-.33-.09.6.6,0,0,0-.67.6.5.5,0,0,0,.16.42.11.11,0,0,1,0,.13.89.89,0,0,1-.22.21.36.36,0,0,1-.37,0,.47.47,0,0,1-.17-.4,1.25,1.25,0,0,1,.6-.9,2.12,2.12,0,0,1,1.34-.4,4.67,4.67,0,0,1,.57,0l.54,0c.35,0,.6-.14.6-.37a.45.45,0,0,0-.17-.39.17.17,0,0,1,0-.2.53.53,0,0,1,.2-.22.27.27,0,0,1,.32,0,.41.41,0,0,1,.21.37,1.19,1.19,0,0,1-.5.84,2.37,2.37,0,0,1-.95.4l-.33,0c-.06,0-.07,0,0,.13a1.44,1.44,0,0,1,.06.44,2.43,2.43,0,0,1-1.09,1.77,2.71,2.71,0,0,1-1.6.54,1.82,1.82,0,0,1-2-1.77A1.68,1.68,0,0,1,67.83,72.11Z" transform="translate(-1.67 -2.66)"/><path class="cls-1" d="M80.22,71.81c0-.84,0-1,0-1.12s-.08-.29-.21-.32l-.21,0c-.07,0-.1,0-.1-.06s0-.05.12-.05l.82,0,.87,0a2.24,2.24,0,0,1,1.1.19.9.9,0,0,1,.49.82,1.26,1.26,0,0,1-.72,1.08,17.72,17.72,0,0,0,1,1.43c.28.32.41.41.56.43l.14,0c.06,0,.09,0,.09.05s0,.06-.11.06h-.48a1.71,1.71,0,0,1-1-.18,2.13,2.13,0,0,1-.56-.67c-.24-.41-.37-.63-.47-.78a.06.06,0,0,0-.06,0h-.36a0,0,0,0,0,0,0V73a7.27,7.27,0,0,0,0,.9c0,.14,0,.26.21.3a1.29,1.29,0,0,0,.24,0c.09,0,.1,0,.1.06s0,0-.12,0l-1,0-.77,0c-.08,0-.11,0-.11-.06s0-.05.1-.05l.18,0c.11,0,.15-.13.17-.31s0-.6,0-1.13Zm.92.36a.09.09,0,0,0,0,.08,1,1,0,0,0,.41.07.49.49,0,0,0,.34-.09.85.85,0,0,0,.21-.68c0-.76-.48-1-.76-1a.65.65,0,0,0-.22,0s0,0,0,.06Z" transform="translate(-1.67 -2.66)"/><path class="cls-1" d="M87.48,71.81c0-.88,0-1,0-1.16s-.06-.25-.19-.28l-.18,0c-.07,0-.1,0-.1-.06s0-.05.12-.05l.8,0h1.52a1.72,1.72,0,0,0,.29,0l.09,0s0,0,0,.05,0,.08,0,.24,0,.29,0,.57c0,.05,0,.08,0,.08s0,0,0-.08a.67.67,0,0,0,0-.18c0-.13-.1-.2-.36-.22s-.64,0-.8,0,0,0,0,.06v1.18s0,.07,0,.07h.78c.26,0,.33,0,.39-.12s0-.07.07-.07,0,0,0,.06,0,.25-.05.46v.45c0,.07,0,.1,0,.1s0,0-.06-.09,0-.08,0-.12-.09-.25-.36-.26-.59,0-.76,0c0,0,0,0,0,.07v1.08c0,.38.08.46.68.46a1.46,1.46,0,0,0,.5-.06c.15-.06.22-.18.26-.43,0-.06,0-.09.07-.09s0,.05,0,.12a4.13,4.13,0,0,1-.09.72c0,.14-.07.14-.27.14-.75,0-1.15,0-1.72,0l-.77,0c-.1,0-.13,0-.13-.06s0-.05.11-.05l.16,0c.15,0,.17-.23.18-.57s0-.53,0-.87Z" transform="translate(-1.67 -2.66)"/><path class="cls-1" d="M93.42,74.24c-.09,0-.11-.11-.11-.21a6.42,6.42,0,0,1,0-.8c0-.09,0-.13.06-.13s0,.05,0,.1a1.1,1.1,0,0,0,0,.16.9.9,0,0,0,.91.7c.51,0,.67-.27.67-.5s0-.41-.5-.72l-.33-.24c-.66-.46-.84-.84-.84-1.31,0-.62.51-1.12,1.37-1.12a3.24,3.24,0,0,1,.62,0l.26.07c.06,0,.07,0,.07.07s0,.28,0,.76c0,.1,0,.14-.06.14s0,0-.06-.11a.74.74,0,0,0-.09-.31.86.86,0,0,0-.74-.35c-.44,0-.61.25-.61.49s.07.4.44.64l.27.19c.75.5,1,.83,1,1.38a1.1,1.1,0,0,1-.57,1,1.79,1.79,0,0,1-.94.23A2.12,2.12,0,0,1,93.42,74.24Z" transform="translate(-1.67 -2.66)"/><path class="cls-1" d="M99.14,72.3a2.1,2.1,0,0,1,2.31-2.13,2,2,0,0,1,2.22,2,2.12,2.12,0,0,1-2.26,2.21A2.1,2.1,0,0,1,99.14,72.3Zm3.45.11c0-.89-.37-1.91-1.32-1.91-.5,0-1,.28-1,1.55,0,1,.42,2,1.35,2C101.91,74.05,102.59,73.9,102.59,72.41Z" transform="translate(-1.67 -2.66)"/><path class="cls-1" d="M107.64,71.81c0-.84,0-1,0-1.12s-.08-.29-.21-.32l-.21,0c-.07,0-.1,0-.1-.06s0-.05.12-.05l.82,0,.87,0a2.24,2.24,0,0,1,1.1.19.9.9,0,0,1,.49.82,1.26,1.26,0,0,1-.72,1.08,17.72,17.72,0,0,0,1,1.43c.28.32.41.41.56.43l.14,0c.06,0,.09,0,.09.05s0,.06-.11.06H111a1.71,1.71,0,0,1-1-.18,2,2,0,0,1-.56-.67c-.25-.41-.37-.63-.47-.78a.06.06,0,0,0-.06,0h-.36a0,0,0,0,0,0,0V73a7.27,7.27,0,0,0,0,.9c0,.14.05.26.21.3a1.29,1.29,0,0,0,.24,0c.09,0,.1,0,.1.06s0,0-.12,0l-1,0-.77,0c-.08,0-.11,0-.11-.06s0-.05.1-.05l.18,0c.11,0,.15-.13.17-.31s0-.6,0-1.13Zm.93.36a.09.09,0,0,0,.05.08,1,1,0,0,0,.41.07.49.49,0,0,0,.34-.09.85.85,0,0,0,.21-.68c0-.76-.48-1-.76-1a.65.65,0,0,0-.22,0s0,0,0,.06Z" transform="translate(-1.67 -2.66)"/><path class="cls-1" d="M116.2,72.75c0,.42,0,.93,0,1.15s0,.25.21.28l.23,0c.09,0,.11,0,.11.06s0,0-.12,0l-1,0-.79,0c-.08,0-.12,0-.12-.06s0-.05.11-.05l.17,0c.12,0,.15-.14.17-.3s0-.61,0-1.14V70.64h-.81c-.3,0-.42.09-.49.28a.78.78,0,0,0,0,.12s0,.09-.06.09,0,0,0-.11c0-.22.08-.51.12-.72s0-.13.06-.13l.18,0a4.47,4.47,0,0,0,.6,0h2.34a2.33,2.33,0,0,0,.34,0l.17,0s0,0,0,.16,0,.58,0,.71,0,.11-.06.11,0,0-.06-.09a.31.31,0,0,0,0-.11c0-.17-.1-.3-.42-.32a8.33,8.33,0,0,0-.86,0Z" transform="translate(-1.67 -2.66)"/><path class="cls-1" d="M120.88,74.24a.2.2,0,0,1-.12-.21c0-.44,0-.65,0-.8s0-.13.07-.13,0,.05,0,.1a1,1,0,0,0,0,.16.92.92,0,0,0,.92.7c.51,0,.67-.27.67-.5s0-.41-.5-.72l-.34-.24c-.65-.46-.84-.84-.84-1.31,0-.62.51-1.12,1.38-1.12a3.24,3.24,0,0,1,.62,0l.26.07c.05,0,.07,0,.07.07s0,.28,0,.76c0,.1,0,.14-.06.14s0,0-.06-.11a.81.81,0,0,0-.1-.31.83.83,0,0,0-.73-.35c-.45,0-.61.25-.61.49s.07.4.43.64l.28.19c.75.5,1,.83,1,1.38a1.1,1.1,0,0,1-.57,1,1.79,1.79,0,0,1-.94.23A2.12,2.12,0,0,1,120.88,74.24Z" transform="translate(-1.67 -2.66)"/></svg>